<?xml version="1.0" encoding="utf-8"?>
<!-- Generator: Adobe Illustrator 20.1.0, SVG Export Plug-In . SVG Version: 6.00 Build 0)  -->
<svg version="1.1" id="Слой_1" xmlns="http://www.w3.org/2000/svg" xmlns:xlink="http://www.w3.org/1999/xlink" x="0px" y="0px"
	 viewBox="0 0 100.4 100.4" enable-background="new 0 0 100.4 100.4" xml:space="preserve">
<g>
	<path fill="#FFFFFF" d="M50.2,100.4C22.5,100.4,0,77.9,0,50.2C0,22.5,22.5,0,50.2,0c27.7,0,50.2,22.5,50.2,50.2
		C100.4,77.9,77.9,100.4,50.2,100.4z M50.2,2C23.6,2,2,23.6,2,50.2c0,26.6,21.6,48.2,48.2,48.2c26.6,0,48.2-21.6,48.2-48.2
		C98.4,23.6,76.8,2,50.2,2z"/>
</g>
<g transform="translate(1 1)">
	<g>
		<g>
			<g>
				<path fill="#FFFFFF" d="M38.6,57.7c-6.4,0-11.6,5.2-11.6,11.6c0,0.5,0.4,0.9,0.9,0.9h21.4c0.5,0,0.9-0.4,0.9-0.9
					C50.3,62.9,45.1,57.7,38.6,57.7z M28.8,68.5c0.5-5,4.6-8.9,9.8-8.9c5.2,0,9.4,3.9,9.8,8.9H28.8z"/>
			</g>
			<g>
				<path fill="#FFFFFF" d="M57.4,68.5h-1.8c-0.2-4.7-2.5-9-5.8-11.9c0,0,0,0-0.1-0.1c-0.1-0.1-0.1-0.1-0.2-0.2c-3-2.5-6.8-4-10.9-4
					c-9.1,0-16.5,7.1-17,16.1h-1.8c-0.5,0-0.9,0.4-0.9,0.9v5.4c0,0.5,0.4,0.9,0.9,0.9h37.5c0.5,0,0.9-0.4,0.9-0.9v-5.4
					C58.3,68.8,58,68.5,57.4,68.5z M56.5,73.8h-2.7v-0.9c0-0.5-0.4-0.9-0.9-0.9c-0.5,0-0.9,0.4-0.9,0.9v0.9h-5.4v-0.9
					c0-0.5-0.4-0.9-0.9-0.9c-0.5,0-0.9,0.4-0.9,0.9v0.9h-5.4v-0.9c0-0.5-0.4-0.9-0.9-0.9c-0.5,0-0.9,0.4-0.9,0.9v0.9h-5.4v-0.9
					c0-0.5-0.4-0.9-0.9-0.9c-0.5,0-0.9,0.4-0.9,0.9v0.9h-5.4v-0.9c0-0.5-0.4-0.9-0.9-0.9c-0.5,0-0.9,0.4-0.9,0.9v0.9h-2.7v-3.6h1.8
					c0.5,0,0.9-0.4,0.9-0.9c0-4.3,1.8-8.2,4.7-11l0.9,0.9c0.2,0.2,0.4,0.3,0.6,0.3c0.3,0,0.4-0.1,0.6-0.3c0.4-0.4,0.4-0.9,0-1.3
					l-0.8-0.8c2.3-1.7,5.1-2.8,8.2-3v0.9c0,0.5,0.4,0.9,0.9,0.9c0.5,0,0.9-0.4,0.9-0.9v-0.9c3.1,0.2,5.9,1.3,8.2,3L47,58
					c-0.4,0.4-0.4,0.9,0,1.3c0.2,0.2,0.4,0.3,0.6,0.3c0.3,0,0.4-0.1,0.6-0.3l0.9-0.9c2.9,2.8,4.7,6.7,4.7,11c0,0.5,0.4,0.9,0.9,0.9
					h1.8V73.8L56.5,73.8z"/>
			</g>
			<g>
				<path fill="#FFFFFF" d="M75.7,22H65c-0.5,0-0.9,0.4-0.9,0.9v51.8c0,0.5,0.4,0.9,0.9,0.9h10.7c0.5,0,0.9-0.4,0.9-0.9V22.9
					C76.6,22.3,76.2,22,75.7,22z M74.8,73.8h-8.9V72h4.5c0.5,0,0.9-0.4,0.9-0.9c0-0.5-0.4-0.9-0.9-0.9h-4.5v-2.7h2.7
					c0.5,0,0.9-0.4,0.9-0.9c0-0.5-0.4-0.9-0.9-0.9h-2.7v-2.7h4.5c0.5,0,0.9-0.4,0.9-0.9c0-0.5-0.4-0.9-0.9-0.9h-4.5v-2.7h2.7
					c0.5,0,0.9-0.4,0.9-0.9c0-0.5-0.4-0.9-0.9-0.9h-2.7v-2.7h4.5c0.5,0,0.9-0.4,0.9-0.9c0-0.5-0.4-0.9-0.9-0.9h-4.5v-2.7h2.7
					c0.5,0,0.9-0.4,0.9-0.9c0-0.5-0.4-0.9-0.9-0.9h-2.7v-2.7h4.5c0.5,0,0.9-0.4,0.9-0.9c0-0.5-0.4-0.9-0.9-0.9h-4.5v-2.7h2.7
					c0.5,0,0.9-0.4,0.9-0.9c0-0.5-0.4-0.9-0.9-0.9h-2.7v-2.7h4.5c0.5,0,0.9-0.4,0.9-0.9c0-0.5-0.4-0.9-0.9-0.9h-4.5v-2.7h2.7
					c0.5,0,0.9-0.4,0.9-0.9c0-0.5-0.4-0.9-0.9-0.9h-2.7v-6.3h8.9V73.8z"/>
			</g>
			<g>
				<path fill="#FFFFFF" d="M18.3,50.1c0.2,0,0.4,0,0.5,0L35,42.4c0.2-0.1,0.3-0.2,0.4-0.3l15.2-12.8c0.1,0,0.3-0.1,0.4-0.2l3.3-2.8
					c1.7-1.4,1.9-4,0.5-5.7l-1.6-1.9c-1.4-1.7-4-1.9-5.7-0.5l-3.4,2.7l0,0l-15.6,13c-0.1,0.1-0.3,0.2-0.3,0.3
					c-0.1,0.1-0.2,0.2-0.2,0.3L17.7,48.7c-0.2,0.3-0.2,0.8,0.1,1.1C17.9,50,18.1,50.1,18.3,50.1z M29.2,35.8c1.2,0.6,2.2,1.5,3,2.6
					c0,0,0,0,0,0c0.1,0.1,0.1,0.2,0.2,0.3c0,0,0,0.1,0.1,0.1c0,0.1,0.1,0.2,0.1,0.2c0,0,0.1,0.1,0.1,0.1c0,0.1,0.1,0.1,0.1,0.2
					c0,0.1,0.1,0.1,0.1,0.2c0,0.1,0.1,0.1,0.1,0.2c0,0.1,0.1,0.1,0.1,0.2c0.1,0.1,0.1,0.2,0.2,0.4l0.3,0.8L27.3,44l-2.1-2.7
					L29.2,35.8z M21.2,46.9l3-4.1l1.6,1.9L21.2,46.9z M35,40.1l-0.1-0.4c-0.9-2.2-2.4-4-4.4-5.2L44.3,23c1,2.3,2.6,4.2,4.6,5.5
					L35,40.1z M48.7,19.4c1-0.7,2.5-0.6,3.2,0.3l1.6,1.9c0.7,1,0.6,2.5-0.3,3.2l-2.9,2.4c-2.1-1.3-3.7-3.1-4.6-5.4L48.7,19.4z"/>
			</g>
			<g>
				<path fill="#FFFFFF" d="M71.2,29.1c1,0,1.8-0.8,1.8-1.8s-0.8-1.8-1.8-1.8c-1,0-1.8,0.8-1.8,1.8S70.3,29.1,71.2,29.1z"/>
			</g>
		</g>
	</g>
</g>
</svg>
