<?xml version="1.0" encoding="utf-8"?>
<!-- Generator: Adobe Illustrator 20.1.0, SVG Export Plug-In . SVG Version: 6.00 Build 0)  -->
<svg version="1.1" id="Capa_1" xmlns="http://www.w3.org/2000/svg" xmlns:xlink="http://www.w3.org/1999/xlink" x="0px" y="0px"
	 viewBox="330.2 183.5 67.4 93.8" enable-background="new 330.2 183.5 67.4 93.8" xml:space="preserve">
<path fill="#00AD1D" d="M397.1,208.3c-0.5-1.2-1.3-2.2-2.3-2.9l-0.3-0.2l0.8-2c0.6-1.3,0.6-2.8,0-4.1c-0.5-1.3-1.6-2.4-2.9-2.9
	c-0.7-0.3-1.4-0.4-2.1-0.4c-2.2,0-4.1,1.3-4.9,3.3l-11.9,28h-4.3v-20.2l0.1-0.1c1.6-1.5,2.6-3.7,2.6-5.9c0-3.8-5.7-14.4-6.8-16.5
	c-0.3-0.5-0.7-0.8-1.3-0.8c-0.5,0-1,0.3-1.3,0.8c-1.1,2.1-6.8,12.7-6.8,16.5c0,2.2,0.9,4.4,2.6,5.9l0.1,0.1v20.2h-5l-13.4-31.6
	c-0.3-0.7-1.2-1.1-1.9-0.8l-7.2,3c-0.4,0.1-0.6,0.4-0.8,0.8c-0.1,0.4-0.1,0.8,0,1.1l11.7,27.5h-3c-0.8,0-1.5,0.7-1.5,1.5V270
	c0,4.1,3.3,7.4,7.4,7.4h38.1c4.1,0,7.4-3.3,7.4-7.4v-41.5c0-0.8-0.7-1.5-1.5-1.5h-3.6l8.1-19.2l0.4,0.5c0.3,0.3,0.5,0.6,0.6,1
	c0.4,0.9,0.4,1.8,0,2.7l-3.7,8.7c-0.3,0.7,0,1.6,0.8,1.9c0.7,0.3,1.6-0.1,1.9-0.8l3.7-8.7C397.8,211.6,397.8,209.9,397.1,208.3z
	 M363.5,188.8l0.4-0.7l0.4,0.7c1.1,2.2,4.8,9.7,4.8,12c0,1.6-0.8,3.2-2.1,4.2c-0.9,0.6-1.9,1-3,1c-1.1,0-2.2-0.3-3-1
	c-1.3-1-2.1-2.5-2.1-4.2C358.7,198.5,362.4,191.1,363.5,188.8z M366.3,208.6v18.5h-4.9v-18.5l0.5,0.1c1.3,0.3,2.6,0.3,3.9,0
	L366.3,208.6z M333.5,199.8l4.5-1.9l1.8,4.3l-4.5,1.9L333.5,199.8z M336.5,206.8l4.5-1.9l9.4,22.2h-5.3L336.5,206.8z M387.4,230v40
	c0,1.2-0.5,2.3-1.3,3.1c-0.8,0.8-2,1.3-3.1,1.3h-38.1c-2.5,0-4.5-2-4.5-4.5v-40H387.4z M382.1,227.1h-5.3l9.4-22.2l4.5,1.8
	L382.1,227.1z M392.7,202.1l-0.8,2l-4.5-1.8l0.9-2c0.5-1.2,2-1.8,3.2-1.3c0.6,0.3,1.1,0.7,1.3,1.3
	C392.9,200.8,392.9,201.5,392.7,202.1z"/>
</svg>
