<?xml version="1.0" encoding="utf-8"?>
<!-- Generator: Adobe Illustrator 20.1.0, SVG Export Plug-In . SVG Version: 6.00 Build 0)  -->
<svg version="1.1" id="Слой_1" xmlns="http://www.w3.org/2000/svg" xmlns:xlink="http://www.w3.org/1999/xlink" x="0px" y="0px"
	 viewBox="0 0 100.4 100.4" enable-background="new 0 0 100.4 100.4" xml:space="preserve">
<g>
	<path fill="#FFFFFF" d="M50.2,100.4C22.5,100.4,0,77.9,0,50.2C0,22.5,22.5,0,50.2,0c27.7,0,50.2,22.5,50.2,50.2
		C100.4,77.9,77.9,100.4,50.2,100.4z M50.2,2C23.6,2,2,23.6,2,50.2c0,26.6,21.6,48.2,48.2,48.2s48.2-21.6,48.2-48.2
		C98.4,23.6,76.8,2,50.2,2z"/>
</g>
<g>
	<g>
		<path fill="#FFFFFF" d="M38.3,43.8h0.8l0,0.2c0.4,3.6,2.6,6.7,5.7,8.5c3.3,1.8,7.5,1.8,10.8,0c1.6-0.9,2.9-2.1,3.9-3.6l0.1-0.1
			l0.1,0c0.8-0.1,1.6-0.3,2.2-0.7c3.4-1.8,3.8-6.4,3.8-6.6l0.5-5.4c0.1-0.7-0.2-1.4-0.7-1.9c-0.5-0.5-1.2-0.8-1.9-0.8H62l0.4-6.1
			c0.2-2.4-0.7-4.7-2.3-6.5C58.5,19,56.2,18,53.8,18h-7.1c-2.4,0-4.7,1-6.3,2.8c-1.7,1.8-2.5,4.1-2.3,6.5l0.4,6.1h-1.8
			c-0.7,0-1.4,0.3-1.9,0.8c-0.5,0.5-0.7,1.2-0.7,1.9l0.5,5.4c0.1,1,0.7,1.8,1.7,2.2l0.2,0.1V53c0,0.5,0.4,1,1,1c0.5,0,1-0.4,1-1
			V43.8z M59.5,43.3c-0.1,1.2-0.4,2.3-0.9,3.4l-0.1,0.2l-0.2,0c-1.1-0.1-2.3-0.5-3.7-1.2l-0.2-0.1l0-0.2c0-0.2,0.1-0.4,0.1-0.6
			c0-1.5-1.3-2.8-2.8-2.8c-1.5,0-2.8,1.3-2.8,2.8c0,1.5,1.3,2.8,2.8,2.8c0.5,0,1-0.1,1.4-0.4l0.1-0.1l0.1,0.1
			c1.2,0.6,2.4,1.1,3.5,1.3l0.4,0.1L57,49c-0.7,0.7-1.5,1.4-2.4,1.8c-1.4,0.8-2.9,1.2-4.5,1.2c-1.5,0-3.1-0.4-4.5-1.2
			c-2.8-1.5-4.6-4.3-4.8-7.5l-0.7-10.4l0.2,0c6.7-0.6,10.4-3,12.3-4.9l0.2-0.2l0.2,0.2c0.5,0.5,1.2,1,2,1.5c1,0.5,2.6,1,4.8,1.6
			l0.2,0L59.5,43.3z M52.7,44.8c0,0.5-0.4,0.9-0.9,0.9c-0.5,0-0.9-0.4-0.9-0.9c0-0.5,0.4-0.9,0.9-0.9C52.3,44,52.7,44.3,52.7,44.8z
			 M61.9,35.3h1.8c0.2,0,0.3,0.1,0.4,0.2c0.1,0.1,0.2,0.3,0.2,0.5l-0.5,5.4c0,0.3-0.3,0.5-0.6,0.5h-1.8L61.9,35.3z M60.9,46
			c0.2-0.6,0.3-1.3,0.4-1.9l0-0.2h1.9l-0.2,0.4c-0.5,0.9-1,1.6-1.8,2.1l-0.6,0.4L60.9,46z M56.7,20.6c0.7,0.4,1.4,0.9,2,1.5
			c1.3,1.4,1.9,3.2,1.8,5.1l-0.1,2.1l-0.3-0.1c-2.3-0.6-3.4-1-4-1.3c-1.3-0.7-1.8-1.3-1.8-1.6l0-0.1l0.1-0.1l2.1-5.5L56.7,20.6z
			 M41.7,22.1c1.3-1.4,3-2.1,4.9-2.1h7.1c0.2,0,0.3,0,0.5,0l0.3,0l-2,5.3c-0.3,0.5-3.1,4.8-12.2,5.7l-0.3,0l-0.3-3.9
			C39.8,25.2,40.4,23.5,41.7,22.1z M37,41.9c-0.3,0-0.6-0.2-0.6-0.5L36,35.9c0-0.2,0-0.3,0.2-0.5c0.1-0.1,0.3-0.2,0.4-0.2h1.9
			l0.4,6.6H37z"/>
	</g>
	<g>
		<path fill="#FFFFFF" d="M79.4,70.3c-0.7-3.6-2.4-6.9-4.9-9.4c-2.6-2.5-5.8-4.2-9.3-4.9c-1.1-0.2-2.2-0.3-3.3-0.3h-3.6
			c-0.3,0-0.5,0.1-0.7,0.3l-7.4,7.4L42.8,56c-0.2-0.2-0.4-0.3-0.7-0.3h-3.6c-1.1,0-2.2,0.1-3.3,0.3c-3.5,0.7-6.8,2.4-9.3,4.9
			c-2.6,2.6-4.3,5.8-4.9,9.4l-1.2,6.5c-0.1,0.3,0,0.6,0.2,0.8c0.2,0.2,0.5,0.3,0.7,0.3h58.8c0.3,0,0.6-0.1,0.7-0.3
			c0.2-0.2,0.3-0.5,0.2-0.8L79.4,70.3z M58.7,57.6h3.1c0.2,0,0.3,0,0.5,0l0.6,0L50.2,70.3l-2.1-2.1L58.7,57.6z M38.1,57.6
			c0.2,0,0.3,0,0.5,0h3.1l7.1,7.1l-2.1,2.1l-9.2-9.2L38.1,57.6z M22,76l1-5.4C24.1,64.4,28.8,59.5,35,58l0.1,0l0.1,0.1l14.3,14.3
			c0,0,0,0,0.1,0.1c0.3,0.3,0.9,0.3,1.2,0c0,0,0.1,0,0.1-0.1L65.2,58l0.1,0c6.2,1.4,10.9,6.4,12.1,12.7l1,5.4H22z"/>
	</g>
</g>
</svg>
