<?xml version="1.0" encoding="utf-8"?>
<!-- Generator: Adobe Illustrator 20.1.0, SVG Export Plug-In . SVG Version: 6.00 Build 0)  -->
<svg version="1.1" id="Слой_1" xmlns="http://www.w3.org/2000/svg" xmlns:xlink="http://www.w3.org/1999/xlink" x="0px" y="0px"
	 viewBox="0 0 100.4 100.4" enable-background="new 0 0 100.4 100.4" xml:space="preserve">
<g>
	<path fill="#FFFFFF" d="M50.2,100.4C22.5,100.4,0,77.9,0,50.2C0,22.5,22.5,0,50.2,0c27.7,0,50.2,22.5,50.2,50.2
		C100.4,77.9,77.9,100.4,50.2,100.4z M50.2,2C23.6,2,2,23.6,2,50.2c0,26.6,21.6,48.2,48.2,48.2c26.6,0,48.2-21.6,48.2-48.2
		C98.4,23.6,76.8,2,50.2,2z"/>
</g>
<g>
	<g>
		<path fill="#FFFFFF" d="M78.6,59.1l0-11.1c0-3.7-1.5-7.2-4.2-9.8c-1.5-1.5-3.4-2.6-5.4-3.3l-0.5-0.2l0.4-0.3
			c1.5-1.4,2.3-3.3,2.3-5.3c0-4-3.3-7.2-7.3-7.2c-1.2,0-2.3,0.3-3.4,0.8c-0.6,0.3-0.8,1-0.5,1.5c0.3,0.5,1,0.8,1.5,0.5
			c0.7-0.4,1.5-0.6,2.3-0.6c2.8,0,5,2.2,5,5c0,1.3-0.5,2.6-1.5,3.5c-0.9,0.9-2.2,1.5-3.5,1.5c0,0-0.1,0-0.1,0l-0.4,0L63.2,34
			c-2-2.8-4.8-4.8-8.1-5.8l-0.5-0.2l0.4-0.4c1.8-1.5,2.8-3.8,2.8-6.1c0-4.5-3.6-8.1-8.1-8.1c-4.5,0-8.1,3.6-8.1,8.1
			c0,2.4,1.1,4.7,3,6.3l0.4,0.3l-0.5,0.2c-3,1.1-5.6,3-7.5,5.6l-0.1,0.1l-0.2,0c-0.2,0-0.4,0-0.7,0l-0.3,0l-0.1,0c-2.8,0-5-2.2-5-5
			c0-2.8,2.2-5,5-5c0.8,0,1.7,0.2,2.4,0.6c0.5,0.3,1.2,0.1,1.5-0.5c0.3-0.5,0.1-1.2-0.5-1.5c-1.1-0.6-2.3-0.9-3.5-0.9
			c-4,0-7.3,3.3-7.3,7.3c0,2.1,0.9,4.1,2.5,5.5l0.4,0.3l-0.5,0.2c-5.5,2.1-9,7.2-9,12.9v11.1c0,0.6,0.5,1.1,1.1,1.1
			c0.6,0,1.1-0.5,1.1-1.1V48c0-6,4.8-11.1,11-11.6l0.5,0l-0.2,0.5c-0.9,2-1.3,4.1-1.3,6.2v13.8c0,3.9,3.2,7.2,7.2,7.4l0.3,0v18.2
			h2.3v-39c0-0.6-0.5-1.1-1.1-1.1c-0.6,0-1.1,0.5-1.1,1.1v18.6l-0.3,0c-2.8-0.3-4.9-2.5-4.9-5.2V43.1c0-2.5,0.7-5,2.1-7.1
			c2.5-3.9,6.9-6.2,11.7-6.2c4.8,0,9.1,2.3,11.7,6.2c1.4,2.1,2.1,4.6,2.1,7.1v13.8c0,2.6-2,4.8-4.6,5.1l-0.3,0V43.6
			c0-0.6-0.5-1.1-1.1-1.1c-0.6,0-1.1,0.5-1.1,1.1v39h2.3V64.4l0.3,0c3.9-0.3,7-3.6,7-7.4V43.1c0-2.2-0.4-4.3-1.3-6.2l-0.2-0.5l0.5,0
			c2.9,0.2,5.6,1.4,7.7,3.4c2.3,2.2,3.5,5.1,3.5,8.2l0,11.1c0,0.6,0.5,1.1,1.1,1.1C78.1,60.3,78.6,59.8,78.6,59.1z M49.7,27.5
			c-3.2,0-5.8-2.6-5.8-5.8s2.6-5.8,5.8-5.8c3.2,0,5.8,2.6,5.8,5.8S52.9,27.5,49.7,27.5z"/>
	</g>
	<g>
		<path fill="#FFFFFF" d="M63,67.9l0,14.6h2.3l0-14.6c0-0.6-0.5-1.1-1.1-1.1c-0.3,0-0.6,0.1-0.8,0.3C63.1,67.4,63,67.6,63,67.9z"/>
	</g>
	<g>
		<path fill="#FFFFFF" d="M48.7,82.6H51V63.7c0-0.6-0.5-1.1-1.1-1.1c-0.6,0-1.1,0.5-1.1,1.1V82.6z"/>
	</g>
	<g>
		<path fill="#FFFFFF" d="M34.8,82.6H37V67.9c0-0.6-0.5-1.1-1.1-1.1c-0.6,0-1.1,0.5-1.1,1.1V82.6z"/>
	</g>
	<g>
		<path fill="#FFFFFF" d="M69.9,48.5L70,82.6h2.3l-0.1-34.1c0-0.6-0.5-1.1-1.1-1.1C70.5,47.3,69.9,47.8,69.9,48.5z"/>
	</g>
	<g>
		<path fill="#FFFFFF" d="M28.4,82.6h2.3V48.5c0-0.6-0.5-1.1-1.1-1.1c-0.6,0-1.1,0.5-1.1,1.1V82.6z"/>
	</g>
</g>
</svg>
