<?xml version="1.0" encoding="utf-8"?>
<!-- Generator: Adobe Illustrator 20.1.0, SVG Export Plug-In . SVG Version: 6.00 Build 0)  -->
<svg version="1.1" id="Capa_1" xmlns="http://www.w3.org/2000/svg" xmlns:xlink="http://www.w3.org/1999/xlink" x="0px" y="0px"
	 viewBox="-94.5 12.9 56 56" enable-background="new -94.5 12.9 56 56" xml:space="preserve">
<path fill="#FFFFFF" d="M-46.7,21.1c-5.3-5.3-12.3-8.2-19.8-8.2c-7.5,0-14.5,2.9-19.8,8.2c-10.9,10.9-10.9,28.7,0,39.6
	C-81,66-74,68.9-66.5,68.9c0,0,0,0,0,0c7.5,0,14.5-2.9,19.8-8.2C-35.8,49.8-35.8,32-46.7,21.1z M-47.9,59.5c-5,5-11.6,7.7-18.6,7.7
	c-7,0-13.6-2.7-18.6-7.7c-5-5-7.7-11.6-7.7-18.6c0-7,2.7-13.7,7.7-18.6c5-5,11.6-7.7,18.6-7.7c7,0,13.7,2.7,18.6,7.7
	c5,5,7.7,11.6,7.7,18.6C-40.2,47.9-42.9,54.5-47.9,59.5z"/>
<g>
	<path fill="#FFFFFF" d="M-76.2,31.3c1.9,0,3.5,1.6,3.5,3.5c0,0.5,0.4,0.8,0.8,0.8c0.5,0,0.8-0.4,0.8-0.8c0-2.8-2.3-5.1-5.1-5.1
		c-2.8,0-5.1,2.3-5.1,5.1c0,0.5,0.4,0.8,0.8,0.8c0.5,0,0.8-0.4,0.8-0.8C-79.7,32.9-78.1,31.3-76.2,31.3z"/>
	<path fill="#FFFFFF" d="M-56.8,31.4c1.9,0,3.5,1.6,3.5,3.5c0,0.5,0.4,0.8,0.8,0.8c0.4,0,0.8-0.4,0.8-0.8c0-2.8-2.3-5.1-5.1-5.1
		c-2.8,0-5.1,2.3-5.1,5.1c0,0.5,0.4,0.8,0.8,0.8c0.5,0,0.8-0.4,0.8-0.8C-60.3,32.9-58.8,31.4-56.8,31.4z"/>
</g>
<path fill="#FFFFFF" d="M-54.2,46.4c-0.1-0.2-0.2-0.4-0.5-0.5c-0.4-0.2-0.9,0-1.1,0.4c-1.8,4.1-6,6.8-10.7,6.8
	c-4.8,0-9-2.7-10.7-6.8c-0.1-0.3-0.4-0.5-0.8-0.5c-0.1,0-0.2,0-0.3,0.1c-0.4,0.2-0.6,0.7-0.5,1.1c2,4.8,6.8,7.8,12.3,7.8
	c5.4,0,10.2-3.1,12.2-7.8C-54.1,46.9-54.1,46.6-54.2,46.4z"/>
</svg>
