<?xml version="1.0" encoding="utf-8"?>
<!-- Generator: Adobe Illustrator 20.1.0, SVG Export Plug-In . SVG Version: 6.00 Build 0)  -->
<svg version="1.1" id="Capa_1" xmlns="http://www.w3.org/2000/svg" xmlns:xlink="http://www.w3.org/1999/xlink" x="0px" y="0px"
	 viewBox="445.4 196.4 78.9 78.9" enable-background="new 445.4 196.4 78.9 78.9" xml:space="preserve">
<g>
	<path fill="#00AD1D" d="M516,243.8c0.1-1.3-0.4-2.6-1.4-3.7l-1.7-1.7c-7.5-7.5-17.4-11.6-28-11.6c-10.6,0-20.5,4.1-28,11.6
		l-1.7,1.7c-2.7,3-0.9,6,0,6.9l1.7,1.7c7.5,7.5,17.4,11.6,28,11.6c10.6,0,20.5-4.1,28-11.6l1.7-1.7
		C515.2,246.5,515.9,245.3,516,243.8z M512.5,245l-1.7,1.7c-6.9,6.9-16.1,10.7-25.9,10.7c-9.8,0-19-3.8-25.9-10.7l-1.7-1.7
		c-0.3-0.3-1-1.5,0-2.7l1.7-1.7c6.9-6.9,16.1-10.7,25.9-10.7c9.8,0,19,3.8,25.9,10.7l1.7,1.7C513.5,243.4,512.8,244.6,512.5,245z"/>
	<path fill="#00AD1D" d="M524.3,197.9c0-0.4-0.1-0.8-0.4-1c-0.3-0.3-0.7-0.4-1-0.4h-75.9c-0.8,0-1.5,0.7-1.5,1.5v75.9
		c0,0.8,0.7,1.5,1.5,1.5h75.9c0.8,0,1.5-0.7,1.5-1.5V197.9z M521.3,272.4h-73v-57.5h73V272.4z M521.3,211.9h-73v-12.5h73V211.9z"/>
	<path fill="#00AD1D" d="M458.6,204.2h-5c-0.8,0-1.5,0.7-1.5,1.5c0,0.8,0.7,1.5,1.5,1.5h5c0.8,0,1.5-0.7,1.5-1.5
		C460.1,204.8,459.4,204.2,458.6,204.2z"/>
	<path fill="#00AD1D" d="M471.7,204.2h-5c-0.8,0-1.5,0.7-1.5,1.5c0,0.8,0.7,1.5,1.5,1.5h5c0.8,0,1.5-0.7,1.5-1.5
		C473.2,204.8,472.5,204.2,471.7,204.2z"/>
	<path fill="#00AD1D" d="M484.9,204.2h-5c-0.8,0-1.5,0.7-1.5,1.5c0,0.8,0.7,1.5,1.5,1.5h5c0.8,0,1.5-0.7,1.5-1.5
		C486.3,204.8,485.7,204.2,484.9,204.2z"/>
	<path fill="#00AD1D" d="M484.9,233c-5.9,0-10.6,4.8-10.6,10.6c0,5.9,4.8,10.6,10.6,10.6c5.9,0,10.6-4.8,10.6-10.6
		C495.5,237.8,490.7,233,484.9,233z M484.9,251.3c-4.2,0-7.6-3.4-7.6-7.6c0-4.2,3.4-7.6,7.6-7.6c4.2,0,7.6,3.4,7.6,7.6
		C492.5,247.8,489.1,251.3,484.9,251.3z"/>
</g>
</svg>
