<?xml version="1.0" encoding="utf-8"?>
<!-- Generator: Adobe Illustrator 20.1.0, SVG Export Plug-In . SVG Version: 6.00 Build 0)  -->
<svg version="1.1" id="Capa_1" xmlns="http://www.w3.org/2000/svg" xmlns:xlink="http://www.w3.org/1999/xlink" x="0px" y="0px"
	 viewBox="510.4 411 133.2 133.2" enable-background="new 510.4 411 133.2 133.2" xml:space="preserve">
<path fill="#00AD1D" d="M643.1,541.1l-50.7-50.7c-0.7-0.7-1.9-0.7-2.6,0c-0.3,0.3-0.5,0.8-0.5,1.3c0,0.5,0.2,1,0.5,1.3l47.6,47.6
	h-18.1v-3.2c0-1-0.8-1.8-1.8-1.8c-1,0-1.8,0.8-1.8,1.8v3.2h-11.5v-3.2c0-1-0.8-1.8-1.8-1.8c-1,0-1.8,0.8-1.8,1.8v3.2h-11.5v-3.2
	c0-1-0.8-1.8-1.8-1.8c-1,0-1.8,0.8-1.8,1.8v3.2h-11.5v-3.2c0-1-0.8-1.8-1.8-1.8s-1.8,0.8-1.8,1.8v3.2h-11.5v-3.2
	c0-1-0.8-1.8-1.8-1.8c-1,0-1.8,0.8-1.8,1.8v3.2h-11.5v-3.2c0-1-0.8-1.8-1.8-1.8c-1,0-1.8,0.8-1.8,1.8v3.2h-11.5v-3.2
	c0-1-0.8-1.8-1.8-1.8c-1,0-1.8,0.8-1.8,1.8v3.2h-10.4V417.2l48,48c0.7,0.7,1.9,0.7,2.6,0c0.7-0.7,0.7-1.9,0-2.6l-51.2-51.2
	c-0.3-0.3-0.8-0.5-1.3-0.5c-0.2,0-0.5,0-0.7,0.1c-0.7,0.3-1.1,0.9-1.1,1.7v129.6c0,1,0.8,1.8,1.8,1.8h129.6c0.7,0,1.4-0.4,1.7-1.1
	C643.8,542.4,643.6,541.6,643.1,541.1z"/>
<path fill="#00AD1D" d="M550.8,476.5l-17.7-17.7c-0.3-0.3-0.8-0.5-1.3-0.5c-0.2,0-0.5,0-0.7,0.1c-0.7,0.3-1.1,0.9-1.1,1.7v35.5
	c0,1,0.8,1.8,1.8,1.8c1,0,1.8-0.8,1.8-1.8v-31.1l14.5,14.5c0.7,0.7,1.9,0.7,2.6,0C551.6,478.4,551.6,477.3,550.8,476.5z"/>
<path fill="#00AD1D" d="M595.7,521.5l-17.2-17.2c-0.7-0.7-1.9-0.7-2.6,0c-0.7,0.7-0.7,1.9,0,2.6l14.1,14.1h-33.2
	c-1,0-1.8,0.8-1.8,1.8c0,1,0.8,1.8,1.8,1.8h37.7c0.7,0,1.4-0.4,1.7-1.1C596.4,522.8,596.3,522,595.7,521.5z"/>
<path fill="#00AD1D" d="M631.2,429.4l-6-6c-1.6-1.6-3.8-2.6-6.2-2.6c-2.3,0-4.5,0.9-6.2,2.6l-75.8,75.8c-0.2,0.2-0.3,0.4-0.4,0.7
	l-9,24.7c-0.2,0.7-0.1,1.4,0.4,1.9c0.5,0.5,1.3,0.7,1.9,0.4l24.7-9c0.3-0.1,0.5-0.2,0.7-0.4l75.8-75.8
	C634.6,438.3,634.6,432.8,631.2,429.4z M532.5,522.1l6.7-18.3l11.6,11.6L532.5,522.1z M554.1,513.6L541,500.5l65.2-65.2l13.1,13.1
	L554.1,513.6z M628.6,439.1l-6.7,6.7l-13.1-13.1l6.7-6.7c1-1,2.2-1.5,3.6-1.5c1.4,0,2.6,0.5,3.6,1.5l6,6c1,1,1.5,2.2,1.5,3.6
	C630.1,436.9,629.5,438.2,628.6,439.1z"/>
</svg>
