<?xml version="1.0" encoding="utf-8"?>
<!-- Generator: Adobe Illustrator 20.1.0, SVG Export Plug-In . SVG Version: 6.00 Build 0)  -->
<svg version="1.1" id="Слой_1" xmlns="http://www.w3.org/2000/svg" xmlns:xlink="http://www.w3.org/1999/xlink" x="0px" y="0px"
	 viewBox="0 0 100.4 100.4" enable-background="new 0 0 100.4 100.4" xml:space="preserve">
<g>
	<path fill="#FFFFFF" d="M50.2,100.4C22.5,100.4,0,77.9,0,50.2C0,22.5,22.5,0,50.2,0c27.7,0,50.2,22.5,50.2,50.2
		C100.4,77.9,77.9,100.4,50.2,100.4z M50.2,2C23.6,2,2,23.6,2,50.2c0,26.6,21.6,48.2,48.2,48.2s48.2-21.6,48.2-48.2
		C98.4,23.6,76.8,2,50.2,2z"/>
</g>
<g>
	<path fill="#FFFFFF" d="M74.3,73.3c0.3-0.7,0.2-1.4-0.1-2c-0.4-0.5-1-0.8-1.8-0.8H42.8l-0.1-0.1c-1.3-2.1-2.2-4.5-2.7-6.9l0-0.2
		h29.1c0.6,0,1-0.5,1-1c0-0.6-0.5-1-1-1H39.8l0-0.2c-0.1-0.8-0.1-1.4-0.1-2c0-6.9,3.1-13.2,8.5-17.5l0.2-0.2l3,9.6
		c0.4,1.3,1.6,2.1,2.9,2.1c0.3,0,0.6,0,0.9-0.1l8.5-2.7c0.8-0.2,1.4-0.8,1.8-1.5c0.4-0.7,0.5-1.5,0.2-2.3l-8.9-28.4
		c-0.4-1.3-1.6-2.1-2.9-2.1c-0.3,0-0.6,0-0.9,0.1l-0.4,0.1l-0.3-0.9c-0.4-1.3-1.6-2.1-2.9-2.1c-0.3,0-0.6,0-0.9,0.1l-2,0.6
		c-0.8,0.2-1.4,0.8-1.8,1.5c-0.4,0.7-0.5,1.5-0.2,2.3l0.3,0.9l-0.4,0.1c-0.8,0.2-1.4,0.8-1.8,1.5c-0.4,0.7-0.5,1.5-0.2,2.3l2.2,7.1
		l-0.1,0.1C34.4,36,28,47.2,28,59.1c0,3.8,0.6,7.6,1.9,11.2l0.1,0.2h-1c-1.7,0-3,1.4-3,3v4c0,1.7,1.4,3,3,3h39.4
		c1.7,0,3.6-1.3,4.2-2.9L74.3,73.3z M62.4,43.7l0.2-0.1l1.1,3.6c0.1,0.3,0,0.6-0.1,0.7c-0.1,0.1-0.2,0.4-0.6,0.5l-8.5,2.7
		c-0.1,0-0.2,0-0.3,0c-0.4,0-0.8-0.2-0.9-0.7l-1.1-3.6L62.4,43.7C62.4,43.7,62.4,43.7,62.4,43.7z M47.2,16l2-0.6c0.1,0,0.2,0,0.3,0
		c0.3,0,0.8,0.2,0.9,0.7l0.3,0.9l-3.9,1.2l-0.3-0.9C46.4,16.7,46.7,16.2,47.2,16z M44.5,22.1c-0.1-0.3,0-0.6,0.1-0.7
		c0.1-0.1,0.2-0.4,0.6-0.5l8.5-2.7c0.1,0,0.2,0,0.3,0c0.3,0,0.8,0.2,0.9,0.7L62,41.7l-0.2,0c0,0,0,0-0.1,0l-10.1,3.2l-0.1-0.2
		L44.5,22.1z M45.2,32l0.2-0.1l2.4,7.5l-0.1,0.1c-6.3,4.6-10,11.9-10,19.7c0,3.9,0.9,7.7,2.7,11.2l0.1,0.3h-8.3l0-0.1
		C30.7,66.8,30,63,30,59.1C30,48,35.7,37.8,45.2,32z M70.6,77c-0.3,0.8-1.4,1.6-2.3,1.6H29c-0.5,0-1-0.4-1-1v-4c0-0.5,0.4-1,1-1
		h43.4L70.6,77z"/>
</g>
</svg>
