<?xml version="1.0" encoding="utf-8"?>
<!-- Generator: Adobe Illustrator 20.1.0, SVG Export Plug-In . SVG Version: 6.00 Build 0)  -->
<svg version="1.1" id="Capa_1" xmlns="http://www.w3.org/2000/svg" xmlns:xlink="http://www.w3.org/1999/xlink" x="0px" y="0px"
	 viewBox="90.8 420.5 136.8 105.9" enable-background="new 90.8 420.5 136.8 105.9" xml:space="preserve">
<path fill="#00AD1D" d="M177.9,498.4c0-1.9-1.5-3.4-3.4-3.4h-30.6c-1.9,0-3.4,1.5-3.4,3.4v9.4c0,1.9,1.5,3.4,3.4,3.4h30.6
	c1.9,0,3.4-1.5,3.4-3.4V498.4z M174.1,507.4h-29.7v-8.5h29.7V507.4z"/>
<path fill="#00AD1D" d="M227.6,475.9c0-1.5-0.4-3-1.2-4.4l-0.6-0.9l0.1-0.1l-19.7-39c-1.5-2.9-4.4-4.7-7.6-4.7h-4.8v-4.7
	c0-0.9-0.8-1.7-1.7-1.7h-65.8c-0.9,0-1.7,0.8-1.7,1.7v4.7h-4.8c-3.2,0-6.1,1.8-7.6,4.7l-19.7,39l0.1,0l-0.5,0.9
	c-0.8,1.3-1.2,2.8-1.2,4.4V518c0,4.6,3.8,8.4,8.4,8.4h119.9c4.6,0,8.4-3.8,8.4-8.4V475.9z M193.8,430.8h4.8c1.7,0,3.3,1,4.1,2.5
	l17.2,34.1h-13.9v-11c0-0.9-0.8-1.7-1.7-1.7H200v-15.4c0-0.9-0.8-1.7-1.7-1.7h-4.6V430.8z M202.7,458.1v9.4h-15.2
	c-2,0-3.9,1.2-4.7,3.1l-3.9,8.6c-0.2,0.4-0.6,0.7-1.1,0.7h-37.1c-0.5,0-0.9-0.3-1.1-0.7l-3.9-8.6c-0.8-1.9-2.7-3.1-4.7-3.1h-15.2
	v-9.4H202.7z M128,423.8h62.4v13.7H128V423.8z M196.7,441v13.7h-74.9V441H196.7z M115.7,433.3c0.8-1.5,2.3-2.5,4.1-2.5h4.8v6.7H120
	c-0.9,0-1.7,0.8-1.7,1.7v15.4H114c-0.9,0-1.7,0.8-1.7,1.7v11H98.5L115.7,433.3z M223.6,518c0,1.2-0.5,2.3-1.3,3.1
	c-0.8,0.8-2,1.3-3.1,1.3H99.2c-2.5,0-4.4-2-4.4-4.4v-42.1c0-2.5,2-4.4,4.4-4.4h31.7c0.5,0,0.9,0.3,1.1,0.7l3.9,8.6
	c0.8,1.9,2.7,3.1,4.7,3.1h37.1c2,0,3.9-1.2,4.7-3.1l3.9-8.6c0.2-0.4,0.6-0.7,1.1-0.7h31.7c2.4,0,4.4,2,4.4,4.4V518z"/>
</svg>
