<?xml version="1.0" encoding="utf-8"?>
<!-- Generator: Adobe Illustrator 20.1.0, SVG Export Plug-In . SVG Version: 6.00 Build 0)  -->
<svg version="1.1" id="Layer_1" xmlns="http://www.w3.org/2000/svg" xmlns:xlink="http://www.w3.org/1999/xlink" x="0px" y="0px"
	 viewBox="-371.6 314.9 112.3 112.3" enable-background="new -371.6 314.9 112.3 112.3" xml:space="preserve">
<ellipse transform="matrix(0.7071 -0.7071 0.7071 0.7071 -354.7315 -114.39)" fill="none" stroke="#FFFFFF" stroke-width="2" stroke-miterlimit="10" cx="-315.4" cy="371" rx="55.1" ry="55.1"/>
<line fill="none" stroke="#FFFFFF" stroke-miterlimit="10" x1="-353.3" y1="411.1" x2="-344.9" y2="402.7"/>
<line fill="none" stroke="#FFFFFF" stroke-miterlimit="10" x1="-347.2" y1="400.5" x2="-355.5" y2="408.8"/>
<path fill="none" stroke="#FFFFFF" stroke-width="2" stroke-miterlimit="10" d="M-314.5,343.1l12.4-12.4c1.2-1.2,3.3-1.2,4.5,0
	c1.2,1.2,1.2,3.3,0,4.5l-12.4,12.4"/>
<path fill="none" stroke="#FFFFFF" stroke-width="2" stroke-miterlimit="10" d="M-348.3,390.3L-348.3,390.3c-2.5,2.5-2.5,6.5,0,9
	l4.5,4.5c2.5,2.5,6.5,2.5,9,0l2.9-2.9c5.4-5.4,12.6-8.6,20.1-8.9l0,0c7.5-0.3,14.7-3.5,20.1-8.9l8.6-8.6l-36-36l-8.6,8.6
	c-5.4,5.4-8.6,12.6-8.9,20.1c-0.3,7.5-3.6,14.9-8.9,20.1L-348.3,390.3L-348.3,390.3z"/>
<path fill="none" stroke="#FFFFFF" stroke-width="2" stroke-miterlimit="10" d="M-287.5,370.1l12.4-12.4c1.2-1.2,1.2-3.3,0-4.5
	c-1.2-1.2-3.3-1.2-4.5,0l-12.4,12.4"/>
<path fill="none" stroke="#FFFFFF" stroke-width="2" stroke-miterlimit="10" d="M-330.9,379.2c-0.4-0.4-0.5-0.8-0.5-1.4
	c0-1.1,0.8-1.9,1.9-1.9h14.6l-7.7-7.7c-0.6-0.5-0.8-1.4-0.4-2.1c0.3-0.8,1-1.2,1.8-1.2h19.3c1.1,0,1.9,0.8,1.9,1.9
	c0,1.1-0.8,1.9-1.9,1.9l-14.6,0l7.7,7.7c0.5,0.6,0.8,1.4,0.4,2.1c-0.3,0.8-1,1.2-1.8,1.2h-19.3
	C-330.1,379.8-330.5,379.6-330.9,379.2"/>
</svg>
