<?xml version="1.0" encoding="utf-8"?>
<!-- Generator: Adobe Illustrator 20.1.0, SVG Export Plug-In . SVG Version: 6.00 Build 0)  -->
<svg version="1.1" id="Layer_1" xmlns="http://www.w3.org/2000/svg" xmlns:xlink="http://www.w3.org/1999/xlink" x="0px" y="0px"
	 viewBox="-204.9 314.9 112.3 112.3" enable-background="new -204.9 314.9 112.3 112.3" xml:space="preserve">
<circle fill="none" stroke="#FFFFFF" stroke-width="2" stroke-miterlimit="10" cx="-148.8" cy="371" r="55.1"/>
<g>
	<path fill="none" stroke="#FFFFFF" stroke-width="2" stroke-miterlimit="10" d="M-143.1,394l-9.1,4.1c-3.5,1.5-5.7,5-5.7,8.8v18.5"
		/>
	<path fill="none" stroke="#FFFFFF" stroke-width="2" stroke-miterlimit="10" d="M-104.4,403.7c-0.8-2.5-2.7-4.6-5.2-5.7l-9.1-4.1"
		/>
</g>
<path fill="none" stroke="#FFFFFF" stroke-width="2" stroke-miterlimit="10" d="M-161.5,383.6c2.7-3.5,4.3-7.8,4.3-12.6
	c0-11.4-9.2-20.6-20.6-20.6c-11.4,0-20.6,9.2-20.6,20.6c0,11.4,9.2,20.6,20.6,20.6c3.3,0,6.4-0.8,9.1-2.2c0.9,0.6,1.8,1.1,2.8,1.5
	c3.6,1.3,7.3,0.7,10.3-1.2C-158.3,388.5-160.4,386.2-161.5,383.6z M-166.6,367.1c2.1,0,3.9,1.7,3.9,3.9c0,2.1-1.7,3.9-3.9,3.9
	c-2.1,0-3.9-1.7-3.9-3.9C-170.4,368.9-168.7,367.1-166.6,367.1z M-189.1,374.9c-2.1,0-3.9-1.7-3.9-3.9c0-2.1,1.7-3.9,3.9-3.9
	c2.1,0,3.9,1.7,3.9,3.9C-185.2,373.1-186.9,374.9-189.1,374.9z M-177.8,374.9c-2.1,0-3.9-1.7-3.9-3.9c0-2.1,1.7-3.9,3.9-3.9
	c2.1,0,3.9,1.7,3.9,3.9C-174,373.1-175.7,374.9-177.8,374.9z"/>
<path fill="none" stroke="#FFFFFF" stroke-width="2" stroke-miterlimit="10" d="M-111.1,376.4v2.1c0,10.9-8.9,19.8-19.8,19.8l0,0
	c-10.9,0-19.8-8.9-19.8-19.8v-4.7"/>
<path fill="none" stroke="#FFFFFF" stroke-width="2" stroke-miterlimit="10" d="M-130.9,346.3"/>
<path fill="none" stroke="#FFFFFF" stroke-width="2" stroke-miterlimit="10" d="M-108.4,367.3c0.9-5.3-0.6-17-11.8-21.8
	c-11.2-4.7-25.2,1.9-24.9,6.9l0,0l0,0c-7.9,4.1-7.7,13.7-6.6,19.5c0.4,2.4,3.4,3.2,5,1.4c3.7-4.2,4.8-8.9,5.1-10.8
	c4,6.7,12.5,14.3,30.6,13.8c1.7,0,2.9-1.6,2.6-3.2C-108.7,371.6-108.8,369.6-108.4,367.3z"/>
<path fill="none" stroke="#FFFFFF" stroke-width="2" stroke-miterlimit="10" d="M-125.1,420.8c-0.7-4.7-2.4-13.6-3.4-16.8l1.7-6.3"
	/>
<path fill="none" stroke="#FFFFFF" stroke-width="2" stroke-miterlimit="10" d="M-135,397.8l1.7,6.3c-0.9,3.1-2.8,13.1-3.2,20.7"/>
</svg>
