<?xml version="1.0" encoding="utf-8"?>
<!-- Generator: Adobe Illustrator 20.1.0, SVG Export Plug-In . SVG Version: 6.00 Build 0)  -->
<svg version="1.1" id="Capa_1" xmlns="http://www.w3.org/2000/svg" xmlns:xlink="http://www.w3.org/1999/xlink" x="0px" y="0px"
	 viewBox="292.5 410.1 137.4 137.4" enable-background="new 292.5 410.1 137.4 137.4" xml:space="preserve">
<path fill="#00AD1D" d="M309.3,511.1c-0.4-0.4-0.9-0.6-1.5-0.6c-0.6,0-1.1,0.2-1.5,0.6l-6.9,6.9c-0.4,0.4-0.6,0.9-0.6,1.5
	c0,0.6,0.2,1.1,0.6,1.5c0.8,0.8,2.2,0.8,3,0l6.9-6.9C310.1,513.3,310.1,512,309.3,511.1z"/>
<path fill="#00AD1D" d="M293.1,546.9c0.8,0.8,2.2,0.8,3,0l23-23c0.4-0.4,0.6-0.9,0.6-1.5c0-0.6-0.2-1.1-0.6-1.5
	c-0.4-0.4-0.9-0.6-1.5-0.6s-1.1,0.2-1.5,0.6l-23,23C292.3,544.7,292.3,546.1,293.1,546.9z"/>
<path fill="#00AD1D" d="M325.9,530.7l-11.5,11.5c-0.8,0.8-0.8,2.2,0,3c0.8,0.8,2.2,0.8,3,0l11.5-11.5c0.8-0.8,0.8-2.2,0-3
	c-0.4-0.4-0.9-0.6-1.5-0.6C326.8,530,326.3,530.3,325.9,530.7z"/>
<path fill="#00AD1D" d="M392.2,447.7c-3.7-3.7-8.6-5.7-13.8-5.7c-5.2,0-10.1,2-13.8,5.7c-3.7,3.7-5.7,8.6-5.7,13.8
	c0,5.2,2,10.1,5.7,13.8c3.7,3.7,8.6,5.7,13.8,5.7c5.2,0,10.1-2,13.8-5.7C399.8,467.7,399.8,455.3,392.2,447.7z M389.2,472.3
	c-2.9,2.9-6.7,4.5-10.8,4.5c-4.1,0-7.9-1.6-10.8-4.5c-2.9-2.9-4.5-6.7-4.5-10.8c0-4.1,1.6-7.9,4.5-10.8c2.9-2.9,6.7-4.5,10.8-4.5
	c4.1,0,7.9,1.6,10.8,4.5C395.2,456.7,395.2,466.4,389.2,472.3z"/>
<path fill="#00AD1D" d="M426.1,453.7c0.7-1.9,1.2-3.6,1.6-5.3c2.9-11.3,2.9-23.3-0.1-34.5c-0.2-0.7-0.8-1.3-1.5-1.5
	c-11.2-3-23.3-3.1-34.5-0.1c-1.7,0.4-3.4,1-5.2,1.6c-0.2,0.1-0.3,0.1-0.4,0.1c-9.5,3.4-18.2,8.9-25.2,15.9l-1-0.8l0,0l0.9,0.9
	l-0.1,0.1l-10.7,12.4l-1.2,0c-15.6,0-30.8,6.3-41.9,17.3c-3.7,3.7-6.8,7.7-9.4,12.2c-0.3,0.6-0.4,1.3-0.1,1.9
	c0.3,0.6,0.8,1.1,1.4,1.2l20,5.1l-4.1,11.2c-1.6,4.4-0.5,9.5,2.8,12.8l18.3,18.3c2.3,2.3,5.4,3.6,8.6,3.6c1.4,0,2.8-0.3,4.2-0.7
	l11.2-4.1l5.1,20c0.2,0.6,0.6,1.2,1.2,1.4c0.6,0.3,1.3,0.2,1.9-0.1c4.4-2.6,8.5-5.7,12.2-9.4c11.2-11.2,17.5-26.7,17.3-42.5l0-0.6
	l12.6-10.9l0,0c7.1-7.1,12.5-15.8,15.8-25.1C426.1,453.9,426.1,453.8,426.1,453.7z M302.5,471.7l1-1.5c1.8-2.6,3.9-5.1,6.2-7.4
	c8.9-8.9,20.8-14.5,33.4-15.8l3.1-0.3l-25.5,29.7L302.5,471.7z M319.7,500.3c-1.6-2.2-2-5-1.1-7.5l3.8-10.3l6.4,6.4l-8.1,12.9
	L319.7,500.3z M323.9,504.7l8-12.7l6.6,6.6l-10.3,10.3L323.9,504.7z M335.3,516.1l-4.2-4.2l10.3-10.3l6.6,6.6L335.3,516.1z
	 M347.1,521.4c-0.9,0.3-1.8,0.5-2.7,0.5c-1.7,0-3.4-0.6-4.8-1.6l-1.5-1.1l12.9-8.1l6.4,6.4L347.1,521.4z M393,496.8
	c-1.3,12.6-6.9,24.5-15.8,33.4c-2.3,2.3-4.8,4.4-7.4,6.2l-1.5,1l-4.7-18.3l29.7-25.5L393,496.8z M421.4,454.5
	c-3.2,8.2-8,15.6-14.2,21.8l-45.7,39.3l-37-37l39.2-45.7c6.3-6.3,13.7-11.1,21.9-14.3l0.8-0.3l35.4,35.4L421.4,454.5z M423.7,447.1
	l-0.5,2.1l-32.4-32.4l2.1-0.5c9.8-2.5,20.3-2.6,30.2-0.3l0.8,0.2l0.2,0.8C426.3,426.8,426.2,437.3,423.7,447.1z"/>
</svg>
