<svg xmlns="http://www.w3.org/2000/svg" viewBox="0 0 279.4 61.2"><path fill="#333" d="M89.5 27.5V6.4h5.9c1.3 0 2.5.2 3.6.7 1.1.4 2.1 1.1 2.9 1.9.8.9 1.4 1.8 1.9 3 .4 1.2.6 2.5.6 4v1.9c0 1.4-.2 2.8-.6 4-.4 1.2-1.1 2.2-1.9 3-.8.9-1.8 1.5-2.9 1.9-1.1.4-2.4.7-3.7.7h-5.8zm1.8-19.6V26h4c1.1 0 2.1-.2 3.1-.6.9-.4 1.7-.9 2.3-1.6.6-.7 1.1-1.6 1.5-2.6.4-1 .5-2.1.5-3.3v-2c0-1.2-.2-2.3-.6-3.3-.4-1-.9-1.8-1.5-2.5s-1.4-1.2-2.3-1.6c-.9-.4-1.9-.6-3-.6h-4zm15.2 11.5c0-1.1.1-2.2.5-3.2s.8-1.8 1.4-2.5c.6-.7 1.3-1.2 2.2-1.6.9-.4 1.8-.6 2.9-.6 1.1 0 2 .2 2.9.6.9.4 1.6.9 2.2 1.6.6.7 1.1 1.5 1.4 2.5.4 1 .5 2 .5 3.2v.5c0 1.1-.1 2.2-.5 3.2s-.8 1.8-1.4 2.5c-.6.7-1.3 1.2-2.2 1.6-.9.4-1.8.6-2.9.6-1 0-2-.2-2.9-.6-.9-.4-1.6-.9-2.2-1.6-.6-.7-1.1-1.5-1.4-2.5-.4-1-.5-2-.5-3.2v-.5zm1.8.5c0 .9.1 1.7.4 2.5.2.8.6 1.4 1 2 .4.6 1 1 1.6 1.4.6.4 1.4.6 2.3.6.9 0 1.6-.2 2.3-.6.6-.4 1.2-.8 1.6-1.4.4-.6.8-1.3 1-2 .2-.8.4-1.6.4-2.5v-.5c0-.9-.1-1.6-.4-2.4-.2-.8-.6-1.5-1-2-.4-.6-1-1-1.7-1.4-.6-.4-1.4-.6-2.3-.6-.9 0-1.6.2-2.2.6-.6.4-1.2.9-1.6 1.4-.4.6-.8 1.3-1 2-.2.8-.4 1.6-.4 2.4v.5zm25.1 5.6c-.5.7-1.1 1.3-2 1.7-.9.4-1.8.6-3 .6-.8 0-1.5-.1-2.1-.4-.6-.2-1.2-.6-1.6-1-.4-.5-.8-1.1-1-1.8-.2-.7-.4-1.7-.4-2.7v-10h1.7V22c0 .9.1 1.5.3 2.1.2.6.4 1 .8 1.3.4.4.7.6 1.1.7.4.1.9.2 1.4.2.7 0 1.3-.1 1.8-.2.6-.1 1-.4 1.4-.6.4-.3.7-.6.9-1l.6-1.2V11.8h1.7v15.7h-1.7l.1-2zm18.1-5.7c0 1.2-.1 2.3-.4 3.2-.2 1-.6 1.8-1.2 2.5-.5.7-1.1 1.2-1.9 1.6-.7.4-1.6.6-2.5.6-1.1 0-2.1-.2-3-.6-.9-.4-1.5-1-2-1.8l-.1 2.1h-1.6V5.2h1.7v8.9c.6-.8 1.2-1.4 2-1.9.8-.4 1.8-.7 2.9-.7.9 0 1.8.2 2.6.6.7.4 1.4.9 1.9 1.6.5.7.9 1.5 1.2 2.5.2 1 .4 2.1.4 3.3v.3zm-1.7-.3c0-.9-.1-1.8-.2-2.6-.2-.8-.4-1.5-.9-2.1-.4-.6-.9-1-1.4-1.4-.6-.3-1.3-.5-2.1-.5-.6 0-1.2.1-1.7.2-.5.2-.9.4-1.3.7-.4.3-.7.6-.9 1l-.6 1.2v7.1c.2.4.4.8.7 1.2.3.4.6.7 1 .9.4.2.8.5 1.3.6.5.1 1 .2 1.6.2.8 0 1.5-.1 2-.5.6-.4 1-.8 1.4-1.4.4-.6.6-1.3.9-2 .2-.8.2-1.6.2-2.6zm6.5 8h-1.7V5.2h1.7v22.3zm10.1.3c-1 0-2-.2-2.8-.6-.9-.4-1.6-.9-2.2-1.6-.6-.7-1.1-1.5-1.4-2.4-.4-.9-.6-2-.6-3.1v-.6c0-1.2.2-2.3.6-3.3.4-1 .9-1.8 1.5-2.5s1.3-1.2 2.1-1.6c.8-.4 1.7-.6 2.6-.6 1 0 1.9.2 2.7.6.8.4 1.4.9 1.9 1.5s.9 1.4 1.2 2.3c.2.9.4 1.8.4 2.9v1h-11.2v.4c0 .9.1 1.7.4 2.4.2.7.6 1.4 1.1 2 .5.6 1 1 1.7 1.3.6.4 1.4.5 2.2.5.9 0 1.7-.1 2.5-.5.7-.4 1.3-.9 1.9-1.6l1.1.9c-.2.4-.6.7-.9 1.1-.4.4-.7.6-1.2.9-.4.2-1 .4-1.5.6-.7-.1-1.4 0-2.1 0zm-.3-14.8c-.6 0-1.3.1-1.8.4-.6.2-1 .6-1.5 1.1-.4.4-.8 1-1 1.7-.3.6-.4 1.4-.6 2.2h9.4v-.2c0-.6-.1-1.3-.3-1.9-.2-.6-.5-1.1-.9-1.6s-.9-.9-1.4-1.1c-.5-.5-1.2-.6-1.9-.6zm24.5 7.9c-.1 1.1-.4 2-.7 2.9-.4.9-.9 1.6-1.5 2.2-.6.6-1.4 1-2.3 1.3-.9.3-1.9.5-3.1.5-1.2 0-2.3-.2-3.3-.7-1-.4-1.8-1.1-2.5-1.9-.7-.9-1.2-1.8-1.6-3-.4-1.2-.6-2.5-.6-3.9v-2.7c0-1.4.2-2.7.6-3.9.4-1.2.9-2.2 1.6-3 .7-.9 1.5-1.5 2.5-1.9 1-.4 2.1-.7 3.4-.7 1.1 0 2.1.1 3 .4.9.3 1.7.7 2.3 1.3.6.6 1.1 1.3 1.5 2.2.4.9.6 1.8.7 2.9h-1.8c-.1-.9-.3-1.6-.6-2.3-.3-.7-.6-1.2-1.1-1.7-.5-.4-1-.8-1.7-1-.7-.2-1.5-.4-2.4-.4-1 0-1.9.2-2.6.6-.8.4-1.4.9-2 1.6-.5.7-.9 1.5-1.2 2.5-.3 1-.4 2.1-.4 3.3v2.7c0 1.1.1 2.2.4 3.2.2 1 .6 1.8 1.2 2.5s1.2 1.3 1.9 1.7c.7.4 1.6.6 2.6.6 1.9 0 3.3-.4 4.2-1.3.9-.9 1.5-2.2 1.7-4h1.8zm5.1 6.6H194V5.2h1.7v22.3zM200 7.3c0-.4.1-.6.3-.9.2-.2.5-.4.9-.4s.6.1.9.4c.2.2.4.5.4.9s-.1.6-.4.9c-.2.2-.5.4-.9.4s-.6-.1-.9-.4c-.2-.3-.3-.6-.3-.9zm2 20.2h-1.7V11.8h1.7v15.7zm9.7-1.2c.5 0 1.1-.1 1.6-.2s.9-.4 1.3-.7c.4-.3.7-.7 1-1.1.2-.4.4-1 .4-1.6h1.7c-.1.7-.2 1.4-.6 2.1-.4.6-.8 1.2-1.3 1.6-.6.4-1.2.8-1.9 1.1-.7.2-1.5.4-2.3.4-1.1 0-2.1-.2-2.9-.6-.9-.4-1.5-.9-2.1-1.7-.5-.7-1-1.5-1.3-2.5-.3-.9-.4-2-.4-3.1v-.6c0-1.1.1-2.1.4-3.1.3-.9.7-1.8 1.3-2.5.6-.7 1.2-1.2 2.1-1.7.9-.4 1.8-.6 2.9-.6.9 0 1.6.1 2.3.4.7.2 1.3.6 1.9 1.1.5.5.9 1.1 1.3 1.8.3.7.5 1.5.6 2.3H216c-.1-.6-.2-1.2-.4-1.7s-.5-.9-.9-1.3-.9-.6-1.4-.9c-.5-.2-1.1-.3-1.7-.3-.9 0-1.7.2-2.3.6-.6.4-1.1.9-1.5 1.4-.4.6-.7 1.3-.9 2-.2.7-.2 1.6-.2 2.4v.6c0 .9.1 1.6.2 2.4.1.8.4 1.4.9 2 .4.6.9 1 1.5 1.4.7.5 1.4.6 2.4.6zm12.6-6.7l-2 1.9v6h-1.7V5.2h1.7v14.3l1.6-1.8 6-5.9h2.2l-6.6 6.7 7.2 9.1h-2.1l-6.3-8z"/><path fill="#369647" d="M44.8 0c-2.6 0-5 .3-7.4 1 12.7 3.3 22.2 14.7 22.4 28.3v1.2c-.3 8-7 14.4-15 14.4-2.7 0-5.3-.7-7.4-2-4.5-2.6-7.5-7.4-7.5-13s3-10.3 7.4-13c-2.2-1.3-4.7-2-7.4-2-8.1 0-14.6 6.4-14.9 14.4v1.2c.2 13.7 9.7 25.1 22.4 28.3 2.4.6 4.9 1 7.4 1 16.5 0 29.8-13.4 29.8-29.8 0-16.6-13.3-30-29.8-30z"/><path fill="#AEEA00" d="M59.7 29.3C59.5 15.6 50 4.2 37.3 1c-2.4-.6-4.9-1-7.4-1C13.4 0 0 13.4 0 29.9s13.4 29.8 29.8 29.8c2.6 0 5-.3 7.4-1-12.6-3.3-22.1-14.6-22.3-28.3v-1.2c.3-8 6.9-14.4 14.9-14.4 2.7 0 5.3.7 7.4 2 4.5 2.6 7.4 7.4 7.4 13s-3 10.3-7.4 13c2.2 1.2 4.8 2 7.5 2 8.1 0 14.6-6.4 14.9-14.4v-.6c.1-.1.1-.3.1-.5z"/><linearGradient id="a" gradientUnits="userSpaceOnUse" x1="-465.804" y1="140.805" x2="-465.804" y2="173.852" gradientTransform="matrix(1.8 0 0 1.8 868.283 -253.277)"><stop offset="0" stop-opacity=".6"/><stop offset=".6" stop-opacity=".1"/></linearGradient><path opacity=".15" fill="url(#a)" d="M59.7 29.3C59.5 15.6 50 4.2 37.3 1c-2.4-.6-4.9-1-7.4-1C13.4 0 0 13.4 0 29.9s13.4 29.8 29.8 29.8c2.6 0 5-.3 7.4-1-12.6-3.3-22.1-14.6-22.3-28.3v-1.2c.3-8 6.9-14.4 14.9-14.4 2.7 0 5.3.7 7.4 2 4.5 2.6 7.4 7.4 7.4 13s-3 10.3-7.4 13c2.2 1.2 4.8 2 7.5 2 8.1 0 14.6-6.4 14.9-14.4v-.6c.1-.1.1-.3.1-.5z"/><linearGradient id="b" gradientUnits="userSpaceOnUse" x1="-457.473" y1="173.695" x2="-457.473" y2="140.677" gradientTransform="matrix(1.8 0 0 1.8 868.283 -253.277)"><stop offset="0" stop-opacity=".6"/><stop offset=".6" stop-opacity=".1"/></linearGradient><path opacity=".15" fill="url(#b)" d="M44.8 0c-2.6 0-5 .3-7.4 1 12.7 3.3 22.2 14.7 22.4 28.3v1.2c-.3 8-7 14.4-15 14.4-2.7 0-5.3-.7-7.4-2-4.5-2.6-7.5-7.4-7.5-13s3-10.3 7.4-13c-2.2-1.3-4.7-2-7.4-2-8.1 0-14.6 6.4-14.9 14.4v1.2c.2 13.7 9.7 25.1 22.4 28.3 2.4.6 4.9 1 7.4 1 16.5 0 29.8-13.4 29.8-29.8 0-16.6-13.3-30-29.8-30z"/><linearGradient id="c" gradientUnits="userSpaceOnUse" x1="-470.029" y1="160.425" x2="-464.402" y2="178.518" gradientTransform="matrix(1.8 0 0 1.8 868.283 -253.277)"><stop offset="0" stop-opacity=".5"/><stop offset=".75" stop-opacity=".03"/></linearGradient><path opacity=".4" fill="url(#c)" d="M37.3 58.7C24.7 55.5 15.2 44.1 15 30.4v-.1.2c.2 11.6 4.3 21.9 10.8 28.9 1.4.2 2.7.3 4.1.3 2.5 0 5.1-.3 7.4-1z"/><linearGradient id="d" gradientUnits="userSpaceOnUse" x1="-473.388" y1="153.163" x2="-457.128" y2="153.163" gradientTransform="matrix(1.8 0 0 1.8 868.283 -253.277)"><stop offset="0" stop-opacity=".9"/><stop offset=".6" stop-opacity=".1"/></linearGradient><path opacity=".25" fill="url(#d)" d="M15.1 29.4c2.3-7.7 10.3-12.2 18.2-10 .2.1.6.2.8.2 1-1 2.1-1.9 3.3-2.6-2.2-1.3-4.7-2-7.4-2-8.1 0-14.7 6.4-14.9 14.4v.5c-.1-.2-.1-.4 0-.5z"/><path fill="#333" d="M244.3 25.1c0 .4-.1.7-.1 1-.1.3-.2.6-.4.8-.2.2-.4.4-.6.5-.2.1-.5.2-.8.2-.3 0-.6-.1-.8-.2-.2-.1-.4-.3-.6-.5v.6h-.8v-6.9h.8v2.6c.2-.2.4-.4.6-.5.2-.1.5-.2.8-.2.3 0 .6.1.8.2.2.1.4.3.6.5.2.2.3.5.4.8.1.3.1.6.1 1v.1zm-.8-.1c0-.2 0-.5-.1-.7-.1-.2-.1-.4-.2-.6-.1-.2-.2-.3-.4-.4-.2-.1-.4-.1-.6-.1-.2 0-.3 0-.4.1-.1 0-.2.1-.3.2-.1.1-.2.1-.2.2-.1.1-.1.2-.2.3v2.1c.1.1.1.2.2.3l.2.2c.1.1.2.1.3.2.1 0 .2.1.4.1s.4-.1.6-.1c.2-.1.3-.2.4-.4.1-.2.2-.4.2-.6.1-.2.1-.4.1-.7V25zm3.3 1.3l1.1-3.6h.9l-2 5.6c-.1.1-.1.2-.2.4-.1.1-.2.3-.3.4-.1.1-.2.2-.4.3-.2.1-.4.1-.6.1h-.4v-.7h.6c.1 0 .2-.1.3-.1.1-.1.2-.1.2-.2.1-.1.1-.2.2-.4l.2-.5-1.7-4.8h.9l1.2 3.5zm10 .3c-.1.1-.1.2-.2.3-.1.1-.2.2-.4.3-.2.1-.4.2-.7.2-.3.1-.6.1-.9.1-.4 0-.8-.1-1.1-.2-.3-.1-.6-.3-.9-.6-.2-.3-.4-.6-.6-1-.1-.4-.2-.8-.2-1.3V24c0-.5.1-.9.2-1.3s.3-.7.5-1c.2-.3.5-.5.8-.6.3-.1.7-.2 1.1-.2.4 0 .7.1 1 .1.3.1.5.2.7.4.2.2.4.4.5.6.1.2.2.5.2.8h-.8c0-.2-.1-.3-.2-.5s-.2-.3-.3-.4c-.1-.1-.3-.2-.4-.3-.2-.1-.4-.1-.6-.1-.3 0-.6.1-.8.2-.2.1-.4.3-.5.5-.1.2-.2.5-.3.7-.1.3-.1.6-.1 1v.5c0 .4.1.7.1 1 .1.3.2.6.4.7.2.2.4.4.6.5.2.1.5.2.8.2.2 0 .4 0 .6-.1.2 0 .3-.1.4-.1.1-.1.2-.1.3-.2l.2-.2v-1.5h-1.5V24h2.4l-.3 2.6zm.8-1.6c0-.4.1-.7.2-1 .1-.3.2-.6.4-.8.2-.2.4-.4.7-.5.3-.1.6-.2.9-.2.4 0 .7.1.9.2.3.1.5.3.7.5.2.2.3.5.4.8.1.3.2.6.2 1v.1c0 .4-.1.7-.2 1-.1.3-.2.6-.4.8-.2.2-.4.4-.7.5-.3.1-.6.2-.9.2-.3 0-.7-.1-.9-.2-.2-.1-.5-.3-.7-.5-.2-.2-.3-.5-.4-.8-.1-.3-.2-.6-.2-1V25zm.8.1c0 .2 0 .5.1.7.1.2.1.4.2.6.1.2.2.3.4.4.4.2.8.2 1.2 0 .2-.1.3-.2.4-.4.1-.2.2-.4.2-.6.1-.2.1-.4.1-.7V25c0-.2 0-.5-.1-.7-.1-.2-.1-.4-.2-.6-.1-.2-.2-.3-.4-.4-.2-.1-.4-.1-.6-.1-.2 0-.4.1-.6.1-.2.1-.3.2-.4.4-.1.2-.2.4-.2.6-.1.2-.1.4-.1.7v.1zm4.4-.1c0-.4.1-.7.2-1 .1-.3.2-.6.4-.8.2-.2.4-.4.7-.5.3-.1.6-.2.9-.2.3 0 .7.1.9.2.3.1.5.3.7.5.2.2.3.5.4.8.1.3.2.6.2 1v.1c0 .4-.1.7-.2 1-.1.3-.2.6-.4.8-.2.2-.4.4-.7.5-.3.1-.6.2-.9.2-.3 0-.7-.1-.9-.2-.3-.1-.5-.3-.7-.5-.2-.2-.3-.5-.4-.8-.1-.3-.2-.6-.2-1V25zm.8.1c0 .2 0 .5.1.7.1.2.1.4.2.6.1.2.2.3.4.4.4.2.8.2 1.2 0 .2-.1.3-.2.4-.4.1-.2.2-.4.2-.6.1-.2.1-.4.1-.7V25c0-.2 0-.5-.1-.7-.1-.2-.1-.4-.2-.6-.1-.2-.2-.3-.4-.4-.2-.1-.4-.1-.6-.1s-.4.1-.6.1c-.2.1-.3.2-.4.4-.1.2-.2.4-.2.6-.1.2-.1.4-.1.7v.1zm4.4-.1c0-.4.1-.7.1-1 .1-.3.2-.6.4-.8.2-.2.4-.4.6-.5.2-.1.5-.2.8-.2s.6.1.8.2c.2.1.4.3.6.5v-.6h.8v4.8c0 .3-.1.6-.1.9-.1.2-.2.5-.4.6-.2.2-.4.3-.7.4-.2.1-.5.1-.8.1-.1 0-.3 0-.4-.1-.2 0-.3-.1-.5-.1-.2-.1-.3-.1-.5-.2s-.3-.2-.4-.4l.4-.5.3.3c.1.1.2.1.3.2.1.1.2.1.3.1h.3c.2 0 .4 0 .5-.1.2-.1.3-.1.4-.2.1-.1.2-.2.2-.4.1-.2.1-.4.1-.6V27c-.2.2-.4.3-.6.4-.2.1-.5.1-.8.1-.3 0-.6-.1-.8-.2-.2-.1-.4-.3-.6-.5-.2-.2-.3-.5-.4-.8.2-.2.1-.6.1-1zm.9.1c0 .2 0 .5.1.7.1.2.1.4.2.6.1.2.2.3.4.4.2.1.4.1.6.1.1 0 .3 0 .4-.1.1 0 .2-.1.3-.1.1-.1.2-.1.2-.2.1-.1.1-.2.2-.3V24c-.1-.1-.1-.2-.2-.3l-.2-.2c-.1-.1-.2-.1-.3-.1-.1 0-.2-.1-.4-.1s-.4.1-.6.1c-.2.1-.3.2-.4.4-.1.2-.2.4-.2.5-.1.3-.1.5-.1.8zm5.2 2.4h-.8v-6.9h.8v6.9zm3.4.1c-.3 0-.6-.1-.9-.2-.3-.1-.5-.3-.7-.5-.2-.2-.4-.5-.4-.7-.1-.3-.2-.6-.2-.9V25c0-.4.1-.7.2-1 .1-.3.3-.6.5-.8.2-.2.4-.4.7-.5.2-.1.5-.2.8-.2.4 0 .6.1.9.2.2.1.5.3.6.5.2.2.3.5.4.7.1.3.1.6.1.9v.4h-3.3c0 .2.1.4.1.6.1.2.2.4.3.5.1.1.3.2.4.3.2.1.4.1.6.1.3 0 .6-.1.7-.2.2-.1.4-.3.5-.5l.5.4c-.1.1-.2.2-.3.4-.1.1-.2.2-.4.3-.1.1-.3.2-.5.2-.2.2-.4.3-.6.3zm-.1-4.4c-.2 0-.3 0-.5.1-.1.1-.3.1-.4.3-.1.1-.2.3-.3.4-.1.2-.1.4-.1.6h2.4v-.1c0-.2 0-.3-.1-.5s-.1-.3-.2-.4c-.1-.1-.2-.2-.4-.3 0 0-.2-.1-.4-.1zM90.2 39.4h4.5c2 0 3.5.3 4.4 1s1.4 1.7 1.4 3.1c0 .9-.3 1.7-.9 2.4-.6.6-1.4 1-2.5 1.2v.1c1.3.2 2.3.6 2.9 1.2.6.6.9 1.5.9 2.6 0 1.5-.5 2.7-1.5 3.5-1 .8-2.4 1.2-4.2 1.2h-5V39.4zm1.1 7.3h3.6c1.5 0 2.6-.3 3.3-.8.7-.5 1-1.3 1-2.4s-.4-1.9-1.2-2.4c-.8-.5-2-.7-3.5-.7h-3.3v6.3zm0 1v7h3.8c3 0 4.5-1.2 4.5-3.7 0-2.2-1.6-3.4-4.8-3.4h-3.5zm12.8-7.5c0-.7.2-1.1.7-1.1.2 0 .4.1.5.3s.2.4.2.8c0 .3-.1.6-.2.8s-.3.3-.5.3c-.5 0-.7-.4-.7-1.1zm1.3 15.5h-1.1V43.6h1.1v12.1zm8.5-12.4c.9 0 1.6.2 2.3.5.6.3 1.2.9 1.7 1.6h.1c0-.9-.1-1.9-.1-2.8v-4.4h1.1v17.4h-.7l-.3-1.9h-.1c-.9 1.4-2.2 2.1-4 2.1-1.7 0-3-.5-3.8-1.6-.9-1-1.3-2.6-1.3-4.6 0-2.1.4-3.7 1.3-4.8.8-.9 2.1-1.5 3.8-1.5zm0 1c-1.3 0-2.3.5-3 1.4-.7.9-1 2.3-1 4 0 3.4 1.3 5.2 4 5.2 1.4 0 2.4-.4 3-1.2s1-2.1 1-3.9v-.2c0-1.9-.3-3.2-.9-4-.7-.8-1.7-1.3-3.1-1.3zm22.5 11.4l-6.1-15.1h-.1c.1.9.1 1.9.1 2.8v12.2h-1.1V39.4h1.8l5.8 14.3h.1l5.8-14.3h1.7v16.3h-1.1V43.3c0-.9 0-1.8.1-2.7h-.1l-6.1 15h-.8zm19.6 0l-.3-1.9h-.1c-.6.8-1.2 1.3-1.9 1.7-.6.3-1.4.5-2.3.5-1.2 0-2.1-.3-2.8-.9-.7-.6-1-1.5-1-2.5 0-1.2.5-2.1 1.5-2.8s2.4-1 4.3-1l2.3-.1v-.8c0-1.2-.2-2-.7-2.6-.5-.6-1.2-.9-2.3-.9-1.1 0-2.3.3-3.5.9l-.4-1c1.3-.6 2.6-.9 3.9-.9 1.3 0 2.3.3 3 1 .7.7 1 1.8 1 3.2v8.1h-.7zm-4.4-.8c1.3 0 2.3-.4 3.1-1.1.7-.7 1.1-1.8 1.1-3.1v-1.2l-2.1.1c-1.7.1-2.9.3-3.6.8-.7.4-1.1 1.2-1.1 2.1 0 .8.2 1.3.7 1.8.4.4 1 .6 1.9.6zm17.6.8v-7.9c0-1.2-.3-2.1-.8-2.7-.5-.6-1.3-.8-2.4-.8-1.5 0-2.5.4-3.2 1.1s-1 1.9-1 3.6v6.7h-1.1V43.6h.9l.2 1.7h.1c.8-1.3 2.2-1.9 4.2-1.9 2.8 0 4.1 1.5 4.1 4.4v7.9h-1zm12.4 0l-.3-1.9h-.1c-.6.8-1.2 1.3-1.9 1.7-.6.3-1.4.5-2.3.5-1.2 0-2.1-.3-2.8-.9-.7-.6-1-1.5-1-2.5 0-1.2.5-2.1 1.5-2.8s2.4-1 4.3-1l2.3-.1v-.8c0-1.2-.2-2-.7-2.6-.5-.6-1.2-.9-2.3-.9-1.1 0-2.3.3-3.5.9l-.4-1c1.3-.6 2.6-.9 3.9-.9 1.3 0 2.3.3 3 1 .7.7 1 1.8 1 3.2v8.1h-.7zm-4.5-.8c1.3 0 2.3-.4 3.1-1.1.7-.7 1.1-1.8 1.1-3.1v-1.2l-2.1.1c-1.7.1-2.9.3-3.6.8-.7.4-1.1 1.2-1.1 2.1 0 .8.2 1.3.7 1.8.4.4 1.1.6 1.9.6zm18.7-11.3v.8l-2.5.2c.7.8 1 1.7 1 2.7 0 1.2-.4 2.1-1.2 2.8-.8.7-1.8 1.1-3.1 1.1-.6 0-.9 0-1.2-.1-.4.2-.8.5-1 .8-.2.3-.3.6-.3 1s.1.7.4.8c.3.2.8.3 1.5.3h2.1c1.3 0 2.3.3 3 .8.7.5 1 1.3 1 2.4 0 1.3-.5 2.3-1.6 3-1 .7-2.5 1-4.4 1-1.5 0-2.7-.3-3.5-.9s-1.3-1.4-1.3-2.5c0-.8.3-1.5.8-2.1s1.2-.9 2.1-1.1c-.4-.2-.7-.4-.9-.7-.2-.3-.3-.6-.3-1 0-.8.5-1.5 1.6-2.1-.7-.3-1.3-.7-1.7-1.4-.4-.6-.6-1.3-.6-2.1 0-1.2.4-2.2 1.2-2.9.8-.7 1.8-1.1 3.1-1.1.8 0 1.4.1 1.9.2h3.9zM186 57.8c0 1.7 1.2 2.5 3.7 2.5 3.2 0 4.8-1 4.8-3 0-.7-.2-1.3-.7-1.6-.5-.3-1.3-.5-2.4-.5h-2c-2.3-.1-3.4.8-3.4 2.6zm.9-10.4c0 .9.3 1.7.9 2.2.6.5 1.3.8 2.3.8 1 0 1.8-.3 2.3-.8.5-.5.8-1.3.8-2.2 0-1-.3-1.8-.8-2.3-.6-.5-1.3-.8-2.3-.8-1 0-1.7.3-2.3.8-.6.5-.9 1.3-.9 2.3zm16.3 8.5c-1.8 0-3.1-.5-4.1-1.6-1-1.1-1.5-2.6-1.5-4.6 0-1.9.5-3.5 1.4-4.6 1-1.2 2.2-1.7 3.8-1.7 1.4 0 2.6.5 3.4 1.5.8 1 1.2 2.4 1.2 4.1v.9h-8.7c0 1.7.4 2.9 1.2 3.8.8.9 1.9 1.3 3.3 1.3.7 0 1.3 0 1.8-.1s1.2-.3 2-.6v1c-.7.3-1.3.5-1.9.6h-1.9zm-.3-11.6c-1.2 0-2.1.4-2.8 1.2-.7.8-1.1 1.9-1.2 3.3h7.5c0-1.4-.3-2.5-.9-3.3-.7-.8-1.5-1.2-2.6-1.2zm12.7-1c.5 0 1.1.1 1.7.2l-.2 1.1c-.5-.1-1-.2-1.6-.2-1 0-1.9.4-2.5 1.3s-1 2-1 3.3v6.7h-1.1V43.6h.9l.1 2.2h.1c.5-.9 1-1.5 1.6-1.9.5-.4 1.2-.6 2-.6z"/></svg>