<svg xmlns="http://www.w3.org/2000/svg" viewBox="0 0 74.6 59.8"><path fill="#369647" d="M44.8 0c-2.6 0-5 .3-7.4 1 12.7 3.3 22.2 14.7 22.4 28.3v1.2c-.3 8-7 14.4-15 14.4-2.7 0-5.3-.7-7.4-2-4.5-2.6-7.5-7.4-7.5-13s3-10.3 7.4-13c-2.2-1.3-4.7-2-7.4-2-8.1 0-14.6 6.4-14.9 14.4v1.2c.2 13.7 9.7 25.1 22.4 28.3 2.4.6 4.9 1 7.4 1 16.5 0 29.8-13.4 29.8-29.8 0-16.6-13.3-30-29.8-30z"/><path fill="#AFD136" d="M59.7 29.3C59.5 15.6 50 4.2 37.3 1c-2.4-.6-4.9-1-7.4-1C13.4 0 0 13.4 0 29.9s13.4 29.8 29.8 29.8c2.6 0 5-.3 7.4-1-12.6-3.3-22.1-14.6-22.3-28.3v-1.2c.3-8 6.9-14.4 14.9-14.4 2.7 0 5.3.7 7.4 2 4.5 2.6 7.4 7.4 7.4 13s-3 10.3-7.4 13c2.2 1.2 4.8 2 7.5 2 8.1 0 14.6-6.4 14.9-14.4v-.6c.1-.1.1-.3.1-.5z"/><linearGradient id="a" gradientUnits="userSpaceOnUse" x1="-113.28" y1="-9.763" x2="-113.28" y2="23.285" gradientTransform="matrix(1.8 0 0 1.8 233.74 17.744)"><stop offset="0" stop-color="#010101" stop-opacity=".6"/><stop offset=".6" stop-color="#010101" stop-opacity=".1"/></linearGradient><path opacity=".15" fill="url(#a)" d="M59.7 29.3C59.5 15.6 50 4.2 37.3 1c-2.4-.6-4.9-1-7.4-1C13.4 0 0 13.4 0 29.9s13.4 29.8 29.8 29.8c2.6 0 5-.3 7.4-1-12.6-3.3-22.1-14.6-22.3-28.3v-1.2c.3-8 6.9-14.4 14.9-14.4 2.7 0 5.3.7 7.4 2 4.5 2.6 7.4 7.4 7.4 13s-3 10.3-7.4 13c2.2 1.2 4.8 2 7.5 2 8.1 0 14.6-6.4 14.9-14.4v-.6c.1-.1.1-.3.1-.5z"/><linearGradient id="b" gradientUnits="userSpaceOnUse" x1="-104.949" y1="23.128" x2="-104.949" y2="-9.891" gradientTransform="matrix(1.8 0 0 1.8 233.74 17.744)"><stop offset="0" stop-color="#010101" stop-opacity=".6"/><stop offset=".6" stop-color="#010101" stop-opacity=".1"/></linearGradient><path opacity=".15" fill="url(#b)" d="M44.8 0c-2.6 0-5 .3-7.4 1 12.7 3.3 22.2 14.7 22.4 28.3v1.2c-.3 8-7 14.4-15 14.4-2.7 0-5.3-.7-7.4-2-4.5-2.6-7.5-7.4-7.5-13s3-10.3 7.4-13c-2.2-1.3-4.7-2-7.4-2-8.1 0-14.6 6.4-14.9 14.4v1.2c.2 13.7 9.7 25.1 22.4 28.3 2.4.6 4.9 1 7.4 1 16.5 0 29.8-13.4 29.8-29.8 0-16.6-13.3-30-29.8-30z"/><linearGradient id="c" gradientUnits="userSpaceOnUse" x1="-117.505" y1="9.857" x2="-111.878" y2="27.951" gradientTransform="matrix(1.8 0 0 1.8 233.74 17.744)"><stop offset="0" stop-color="#010101" stop-opacity=".5"/><stop offset=".75" stop-color="#010101" stop-opacity=".03"/></linearGradient><path opacity=".4" fill="url(#c)" d="M37.3 58.7C24.7 55.5 15.2 44.1 15 30.4v-.1.2c.2 11.6 4.3 21.9 10.8 28.9 1.4.2 2.7.3 4.1.3 2.5 0 5.1-.3 7.4-1z"/><linearGradient id="d" gradientUnits="userSpaceOnUse" x1="-120.864" y1="2.596" x2="-104.604" y2="2.596" gradientTransform="matrix(1.8 0 0 1.8 233.74 17.744)"><stop offset="0" stop-color="#010101" stop-opacity=".9"/><stop offset=".6" stop-color="#010101" stop-opacity=".1"/></linearGradient><path opacity=".25" fill="url(#d)" d="M15.1 29.4c2.3-7.7 10.3-12.2 18.2-10 .2.1.6.2.8.2 1-1 2.1-1.9 3.3-2.6-2.2-1.3-4.7-2-7.4-2-8.1 0-14.7 6.4-14.9 14.4v.5c-.1-.2-.1-.4 0-.5z"/></svg>