<?xml version="1.0" encoding="utf-8"?>
<!-- Generator: Adobe Illustrator 21.0.0, SVG Export Plug-In . SVG Version: 6.00 Build 0)  -->
<svg version="1.1" id="Слой_1" xmlns="http://www.w3.org/2000/svg" xmlns:xlink="http://www.w3.org/1999/xlink" x="0px" y="0px"
	 viewBox="0 0 286.9 61.2" enable-background="new 0 0 286.9 61.2" xml:space="preserve">
<g>
	<path fill="#333333" d="M89.5,27.5V6.4h5.9c1.3,0,2.5,0.2,3.6,0.7c1.1,0.4,2.1,1.1,2.9,1.9c0.8,0.9,1.4,1.8,1.9,3
		c0.4,1.2,0.6,2.5,0.6,4v1.9c0,1.4-0.2,2.8-0.6,4c-0.4,1.2-1.1,2.2-1.9,3c-0.8,0.9-1.8,1.5-2.9,1.9c-1.1,0.4-2.4,0.7-3.7,0.7
		L89.5,27.5L89.5,27.5L89.5,27.5L89.5,27.5z M91.3,7.9V26h4c1.1,0,2.1-0.2,3.1-0.6c0.9-0.4,1.7-0.9,2.3-1.6c0.6-0.7,1.1-1.6,1.5-2.6
		c0.4-1,0.5-2.1,0.5-3.3v-2c0-1.2-0.2-2.3-0.6-3.3c-0.4-1-0.9-1.8-1.5-2.5c-0.6-0.7-1.4-1.2-2.3-1.6c-0.9-0.4-1.9-0.6-3-0.6
		L91.3,7.9L91.3,7.9L91.3,7.9L91.3,7.9z M106.5,19.4c0-1.1,0.1-2.2,0.5-3.2c0.4-1,0.8-1.8,1.4-2.5c0.6-0.7,1.3-1.2,2.2-1.6
		c0.9-0.4,1.8-0.6,2.9-0.6c1.1,0,2,0.2,2.9,0.6c0.9,0.4,1.6,0.9,2.2,1.6c0.6,0.7,1.1,1.5,1.4,2.5c0.4,1,0.5,2,0.5,3.2v0.5
		c0,1.1-0.1,2.2-0.5,3.2c-0.4,1-0.8,1.8-1.4,2.5c-0.6,0.7-1.3,1.2-2.2,1.6c-0.9,0.4-1.8,0.6-2.9,0.6c-1,0-2-0.2-2.9-0.6
		c-0.9-0.4-1.6-0.9-2.2-1.6c-0.6-0.7-1.1-1.5-1.4-2.5c-0.4-1-0.5-2-0.5-3.2L106.5,19.4L106.5,19.4z M108.3,19.9
		c0,0.9,0.1,1.7,0.4,2.5c0.2,0.8,0.6,1.4,1,2c0.4,0.6,1,1,1.6,1.4c0.6,0.4,1.4,0.6,2.3,0.6c0.9,0,1.6-0.2,2.3-0.6
		c0.6-0.4,1.2-0.8,1.6-1.4c0.4-0.6,0.8-1.3,1-2c0.2-0.8,0.4-1.6,0.4-2.5v-0.5c0-0.9-0.1-1.6-0.4-2.4c-0.2-0.8-0.6-1.5-1-2
		c-0.4-0.6-1-1-1.7-1.4c-0.6-0.4-1.4-0.6-2.3-0.6s-1.6,0.2-2.2,0.6c-0.6,0.4-1.2,0.9-1.6,1.4c-0.4,0.6-0.8,1.3-1,2
		c-0.2,0.8-0.4,1.6-0.4,2.4L108.3,19.9L108.3,19.9z M133.4,25.5c-0.5,0.7-1.1,1.3-2,1.7c-0.9,0.4-1.8,0.6-3,0.6
		c-0.8,0-1.5-0.1-2.1-0.4c-0.6-0.2-1.2-0.6-1.6-1c-0.4-0.5-0.8-1.1-1-1.8c-0.2-0.7-0.4-1.7-0.4-2.7v-10h1.7v10.1
		c0,0.9,0.1,1.5,0.3,2.1c0.2,0.6,0.4,1,0.8,1.3c0.4,0.4,0.7,0.6,1.1,0.7c0.4,0.1,0.9,0.2,1.4,0.2c0.7,0,1.3-0.1,1.8-0.2
		c0.6-0.1,1-0.4,1.4-0.6c0.4-0.3,0.7-0.6,0.9-1c0.2-0.4,0.4-0.8,0.6-1.2V11.8h1.7v15.7h-1.7L133.4,25.5z M151.5,19.8
		c0,1.2-0.1,2.3-0.4,3.2c-0.2,1-0.6,1.8-1.2,2.5c-0.5,0.7-1.1,1.2-1.9,1.6c-0.7,0.4-1.6,0.6-2.5,0.6c-1.1,0-2.1-0.2-3-0.6
		c-0.9-0.4-1.5-1-2-1.8l-0.1,2.1h-1.6V5.2h1.7v8.9c0.6-0.8,1.2-1.4,2-1.9c0.8-0.4,1.8-0.7,2.9-0.7c0.9,0,1.8,0.2,2.6,0.6
		c0.7,0.4,1.4,0.9,1.9,1.6c0.5,0.7,0.9,1.5,1.2,2.5c0.2,1,0.4,2.1,0.4,3.3L151.5,19.8L151.5,19.8L151.5,19.8L151.5,19.8z
		 M149.8,19.5c0-0.9-0.1-1.8-0.2-2.6c-0.2-0.8-0.4-1.5-0.9-2.1c-0.4-0.6-0.9-1-1.4-1.4c-0.6-0.3-1.3-0.5-2.1-0.5
		c-0.6,0-1.2,0.1-1.7,0.2c-0.5,0.2-0.9,0.4-1.3,0.7c-0.4,0.3-0.7,0.6-0.9,1c-0.2,0.4-0.4,0.8-0.6,1.2v7.1c0.2,0.4,0.4,0.8,0.7,1.2
		c0.3,0.4,0.6,0.7,1,0.9c0.4,0.2,0.8,0.5,1.3,0.6c0.5,0.1,1,0.2,1.6,0.2c0.8,0,1.5-0.1,2-0.5c0.6-0.4,1-0.8,1.4-1.4
		c0.4-0.6,0.6-1.3,0.9-2c0.2-0.8,0.2-1.6,0.2-2.6L149.8,19.5z M156.3,27.5h-1.7V5.2h1.7V27.5z M166.4,27.8c-1,0-2-0.2-2.8-0.6
		c-0.9-0.4-1.6-0.9-2.2-1.6c-0.6-0.7-1.1-1.5-1.4-2.4c-0.4-0.9-0.6-2-0.6-3.1v-0.6c0-1.2,0.2-2.3,0.6-3.3c0.4-1,0.9-1.8,1.5-2.5
		c0.6-0.7,1.3-1.2,2.1-1.6c0.8-0.4,1.7-0.6,2.6-0.6c1,0,1.9,0.2,2.7,0.6c0.8,0.4,1.4,0.9,1.9,1.5c0.5,0.6,0.9,1.4,1.2,2.3
		c0.2,0.9,0.4,1.8,0.4,2.9v1h-11.2v0.4c0,0.9,0.1,1.7,0.4,2.4c0.2,0.7,0.6,1.4,1.1,2c0.5,0.6,1,1,1.7,1.3c0.6,0.4,1.4,0.5,2.2,0.5
		c0.9,0,1.7-0.1,2.5-0.5c0.7-0.4,1.3-0.9,1.9-1.6l1.1,0.9c-0.2,0.4-0.6,0.7-0.9,1.1c-0.4,0.4-0.7,0.6-1.2,0.9
		c-0.4,0.2-1,0.4-1.5,0.6C167.8,27.7,167.1,27.8,166.4,27.8z M166.1,13c-0.6,0-1.3,0.1-1.8,0.4c-0.6,0.2-1,0.6-1.5,1.1
		c-0.4,0.4-0.8,1-1,1.7c-0.3,0.6-0.4,1.4-0.6,2.2h9.4v-0.2c0-0.6-0.1-1.3-0.3-1.9c-0.2-0.6-0.5-1.1-0.9-1.6
		c-0.4-0.5-0.9-0.9-1.4-1.1C167.5,13.1,166.8,13,166.1,13z M190.6,20.9c-0.1,1.1-0.4,2-0.7,2.9c-0.4,0.9-0.9,1.6-1.5,2.2
		c-0.6,0.6-1.4,1-2.3,1.3c-0.9,0.3-1.9,0.5-3.1,0.5c-1.2,0-2.3-0.2-3.3-0.7c-1-0.4-1.8-1.1-2.5-1.9c-0.7-0.9-1.2-1.8-1.6-3
		c-0.4-1.2-0.6-2.5-0.6-3.9v-2.7c0-1.4,0.2-2.7,0.6-3.9c0.4-1.2,0.9-2.2,1.6-3c0.7-0.9,1.5-1.5,2.5-1.9c1-0.4,2.1-0.7,3.4-0.7
		c1.1,0,2.1,0.1,3,0.4c0.9,0.3,1.7,0.7,2.3,1.3c0.6,0.6,1.1,1.3,1.5,2.2c0.4,0.9,0.6,1.8,0.7,2.9h-1.8c-0.1-0.9-0.3-1.6-0.6-2.3
		c-0.3-0.7-0.6-1.2-1.1-1.7c-0.5-0.4-1-0.8-1.7-1s-1.5-0.4-2.4-0.4c-1,0-1.9,0.2-2.6,0.6c-0.8,0.4-1.4,0.9-2,1.6
		c-0.5,0.7-0.9,1.5-1.2,2.5c-0.3,1-0.4,2.1-0.4,3.3v2.7c0,1.1,0.1,2.2,0.4,3.2c0.2,1,0.6,1.8,1.2,2.5c0.6,0.7,1.2,1.3,1.9,1.7
		c0.7,0.4,1.6,0.6,2.6,0.6c1.9,0,3.3-0.4,4.2-1.3c0.9-0.9,1.5-2.2,1.7-4L190.6,20.9L190.6,20.9L190.6,20.9z M195.7,27.5H194V5.2h1.7
		V27.5z M200,7.3c0-0.4,0.1-0.6,0.3-0.9c0.2-0.2,0.5-0.4,0.9-0.4c0.4,0,0.6,0.1,0.9,0.4c0.2,0.2,0.4,0.5,0.4,0.9
		c0,0.4-0.1,0.6-0.4,0.9c-0.2,0.2-0.5,0.4-0.9,0.4c-0.4,0-0.6-0.1-0.9-0.4C200.1,7.9,200,7.6,200,7.3z M202,27.5h-1.7V11.8h1.7V27.5
		z M211.7,26.3c0.5,0,1.1-0.1,1.6-0.2c0.5-0.1,0.9-0.4,1.3-0.7c0.4-0.3,0.7-0.7,1-1.1c0.2-0.4,0.4-1,0.4-1.6h1.7
		c-0.1,0.7-0.2,1.4-0.6,2.1c-0.4,0.6-0.8,1.2-1.3,1.6c-0.6,0.4-1.2,0.8-1.9,1.1c-0.7,0.2-1.5,0.4-2.3,0.4c-1.1,0-2.1-0.2-2.9-0.6
		c-0.9-0.4-1.5-0.9-2.1-1.7c-0.5-0.7-1-1.5-1.3-2.5c-0.3-0.9-0.4-2-0.4-3.1v-0.6c0-1.1,0.1-2.1,0.4-3.1c0.3-0.9,0.7-1.8,1.3-2.5
		c0.6-0.7,1.2-1.2,2.1-1.7c0.9-0.4,1.8-0.6,2.9-0.6c0.9,0,1.6,0.1,2.3,0.4c0.7,0.2,1.3,0.6,1.9,1.1c0.5,0.5,0.9,1.1,1.3,1.8
		c0.3,0.7,0.5,1.5,0.6,2.3H216c-0.1-0.6-0.2-1.2-0.4-1.7c-0.2-0.5-0.5-0.9-0.9-1.3c-0.4-0.4-0.9-0.6-1.4-0.9
		c-0.5-0.2-1.1-0.3-1.7-0.3c-0.9,0-1.7,0.2-2.3,0.6c-0.6,0.4-1.1,0.9-1.5,1.4c-0.4,0.6-0.7,1.3-0.9,2c-0.2,0.7-0.2,1.6-0.2,2.4v0.6
		c0,0.9,0.1,1.6,0.2,2.4c0.1,0.8,0.4,1.4,0.9,2c0.4,0.6,0.9,1,1.5,1.4C210,26.2,210.7,26.3,211.7,26.3L211.7,26.3z M224.3,19.6
		l-2,1.9v6h-1.7V5.2h1.7v14.3l1.6-1.8l6-5.9h2.2l-6.6,6.7l7.2,9.1h-2.1L224.3,19.6z"/>
	<g>
		<path fill="#369647" d="M44.8,0c-2.6,0-5,0.3-7.4,1c12.7,3.3,22.2,14.7,22.4,28.3v1.2c-0.3,8-7,14.4-15,14.4c-2.7,0-5.3-0.7-7.4-2
			c-4.5-2.6-7.5-7.4-7.5-13c0-5.6,3-10.3,7.4-13c-2.2-1.3-4.7-2-7.4-2c-8.1,0-14.6,6.4-14.9,14.4v1.2c0.2,13.7,9.7,25.1,22.4,28.3
			c2.4,0.6,4.9,1,7.4,1c16.5,0,29.8-13.4,29.8-29.8C74.6,13.4,61.3,0,44.8,0L44.8,0z"/>
		<path fill="#AEEA00" d="M59.7,29.3C59.5,15.6,50,4.2,37.3,1c-2.4-0.6-4.9-1-7.4-1C13.4,0,0,13.4,0,29.9
			c0,16.5,13.4,29.8,29.8,29.8c2.6,0,5-0.3,7.4-1c-12.6-3.3-22.1-14.6-22.3-28.3v-1.2c0.3-8,6.9-14.4,14.9-14.4c2.7,0,5.3,0.7,7.4,2
			c4.5,2.6,7.4,7.4,7.4,13s-3,10.3-7.4,13c2.2,1.2,4.8,2,7.5,2c8.1,0,14.6-6.4,14.9-14.4v-0.6C59.7,29.7,59.7,29.5,59.7,29.3z"/>
		
			<linearGradient id="SVGID_1_" gradientUnits="userSpaceOnUse" x1="-448.6448" y1="98.6237" x2="-448.6448" y2="131.6711" gradientTransform="matrix(1.8 0 0 1.8 837.3975 -177.3508)">
			<stop  offset="0" style="stop-color:#000000;stop-opacity:0.6"/>
			<stop  offset="0.6" style="stop-color:#000000;stop-opacity:0.1"/>
		</linearGradient>
		<path opacity="0.15" fill="url(#SVGID_1_)" enable-background="new    " d="M59.7,29.3C59.5,15.6,50,4.2,37.3,1
			c-2.4-0.6-4.9-1-7.4-1C13.4,0,0,13.4,0,29.9c0,16.5,13.4,29.8,29.8,29.8c2.6,0,5-0.3,7.4-1c-12.6-3.3-22.1-14.6-22.3-28.3v-1.2
			c0.3-8,6.9-14.4,14.9-14.4c2.7,0,5.3,0.7,7.4,2c4.5,2.6,7.4,7.4,7.4,13s-3,10.3-7.4,13c2.2,1.2,4.8,2,7.5,2
			c8.1,0,14.6-6.4,14.9-14.4v-0.6C59.7,29.7,59.7,29.5,59.7,29.3z"/>
		
			<linearGradient id="SVGID_2_" gradientUnits="userSpaceOnUse" x1="-440.3136" y1="131.5141" x2="-440.3136" y2="98.4955" gradientTransform="matrix(1.8 0 0 1.8 837.3975 -177.3508)">
			<stop  offset="0" style="stop-color:#000000;stop-opacity:0.6"/>
			<stop  offset="0.6" style="stop-color:#000000;stop-opacity:0.1"/>
		</linearGradient>
		<path opacity="0.15" fill="url(#SVGID_2_)" enable-background="new    " d="M44.8,0c-2.6,0-5,0.3-7.4,1
			c12.7,3.3,22.2,14.7,22.4,28.3v1.2c-0.3,8-7,14.4-15,14.4c-2.7,0-5.3-0.7-7.4-2c-4.5-2.6-7.5-7.4-7.5-13c0-5.6,3-10.3,7.4-13
			c-2.2-1.3-4.7-2-7.4-2c-8.1,0-14.6,6.4-14.9,14.4v1.2c0.2,13.7,9.7,25.1,22.4,28.3c2.4,0.6,4.9,1,7.4,1
			c16.5,0,29.8-13.4,29.8-29.8C74.6,13.4,61.3,0,44.8,0L44.8,0z"/>
		
			<linearGradient id="SVGID_3_" gradientUnits="userSpaceOnUse" x1="-452.8701" y1="118.2435" x2="-447.2433" y2="136.3368" gradientTransform="matrix(1.8 0 0 1.8 837.3975 -177.3508)">
			<stop  offset="0" style="stop-color:#000000;stop-opacity:0.5"/>
			<stop  offset="0.75" style="stop-color:#000000;stop-opacity:3.000000e-02"/>
		</linearGradient>
		<path opacity="0.4" fill="url(#SVGID_3_)" enable-background="new    " d="M37.3,58.7C24.7,55.5,15.2,44.1,15,30.4v-0.1v0.2
			c0.2,11.6,4.3,21.9,10.8,28.9c1.4,0.2,2.7,0.3,4.1,0.3C32.4,59.7,35,59.4,37.3,58.7z"/>
		
			<linearGradient id="SVGID_4_" gradientUnits="userSpaceOnUse" x1="-456.2292" y1="110.9821" x2="-439.9692" y2="110.9821" gradientTransform="matrix(1.8 0 0 1.8 837.3975 -177.3508)">
			<stop  offset="0" style="stop-color:#000000;stop-opacity:0.9"/>
			<stop  offset="0.6" style="stop-color:#000000;stop-opacity:0.1"/>
		</linearGradient>
		<path opacity="0.25" fill="url(#SVGID_4_)" enable-background="new    " d="M15.1,29.4c2.3-7.7,10.3-12.2,18.2-10
			c0.2,0.1,0.6,0.2,0.8,0.2c1-1,2.1-1.9,3.3-2.6c-2.2-1.3-4.7-2-7.4-2C21.9,15,15.3,21.4,15.1,29.4l0,0.5C15,29.7,15,29.5,15.1,29.4
			z"/>
	</g>
	<g>
		<path fill="#333333" d="M244.3,25.1c0,0.4-0.1,0.7-0.1,1c-0.1,0.3-0.2,0.6-0.4,0.8c-0.2,0.2-0.4,0.4-0.6,0.5
			c-0.2,0.1-0.5,0.2-0.8,0.2c-0.3,0-0.6-0.1-0.8-0.2c-0.2-0.1-0.4-0.3-0.6-0.5l0,0.6h-0.8v-6.9h0.8v2.6c0.2-0.2,0.4-0.4,0.6-0.5
			c0.2-0.1,0.5-0.2,0.8-0.2c0.3,0,0.6,0.1,0.8,0.2c0.2,0.1,0.4,0.3,0.6,0.5c0.2,0.2,0.3,0.5,0.4,0.8c0.1,0.3,0.1,0.6,0.1,1
			L244.3,25.1L244.3,25.1L244.3,25.1z M243.5,25c0-0.2,0-0.5-0.1-0.7c-0.1-0.2-0.1-0.4-0.2-0.6c-0.1-0.2-0.2-0.3-0.4-0.4
			c-0.2-0.1-0.4-0.1-0.6-0.1c-0.2,0-0.3,0-0.4,0.1c-0.1,0-0.2,0.1-0.3,0.2c-0.1,0.1-0.2,0.1-0.2,0.2c-0.1,0.1-0.1,0.2-0.2,0.3v2.1
			c0.1,0.1,0.1,0.2,0.2,0.3l0.2,0.2c0.1,0.1,0.2,0.1,0.3,0.2c0.1,0,0.2,0.1,0.4,0.1c0.2,0,0.4-0.1,0.6-0.1c0.2-0.1,0.3-0.2,0.4-0.4
			c0.1-0.2,0.2-0.4,0.2-0.6c0.1-0.2,0.1-0.4,0.1-0.7L243.5,25L243.5,25z M246.8,26.3l1.1-3.6h0.9l-2,5.6c-0.1,0.1-0.1,0.2-0.2,0.4
			c-0.1,0.1-0.2,0.3-0.3,0.4c-0.1,0.1-0.2,0.2-0.4,0.3c-0.2,0.1-0.4,0.1-0.6,0.1h-0.1c-0.1,0-0.1,0-0.1,0c-0.1,0-0.1,0-0.1,0
			c0,0-0.1,0-0.1,0v-0.7h0.2c0.1,0,0.3,0,0.4,0c0.1,0,0.2-0.1,0.3-0.1c0.1-0.1,0.2-0.1,0.2-0.2c0.1-0.1,0.1-0.2,0.2-0.4l0.2-0.5
			l-1.7-4.8h0.9L246.8,26.3L246.8,26.3z M256.8,26.6c-0.1,0.1-0.1,0.2-0.2,0.3c-0.1,0.1-0.2,0.2-0.4,0.3c-0.2,0.1-0.4,0.2-0.7,0.2
			c-0.3,0.1-0.6,0.1-0.9,0.1c-0.4,0-0.8-0.1-1.1-0.2c-0.3-0.1-0.6-0.3-0.9-0.6c-0.2-0.3-0.4-0.6-0.6-1c-0.1-0.4-0.2-0.8-0.2-1.3V24
			c0-0.5,0.1-0.9,0.2-1.3c0.1-0.4,0.3-0.7,0.5-1c0.2-0.3,0.5-0.5,0.8-0.6c0.3-0.1,0.7-0.2,1.1-0.2c0.4,0,0.7,0.1,1,0.1
			c0.3,0.1,0.5,0.2,0.7,0.4c0.2,0.2,0.4,0.4,0.5,0.6c0.1,0.2,0.2,0.5,0.2,0.8H256c0-0.2-0.1-0.3-0.2-0.5c-0.1-0.2-0.2-0.3-0.3-0.4
			c-0.1-0.1-0.3-0.2-0.4-0.3c-0.2-0.1-0.4-0.1-0.6-0.1c-0.3,0-0.6,0.1-0.8,0.2c-0.2,0.1-0.4,0.3-0.5,0.5c-0.1,0.2-0.2,0.5-0.3,0.7
			c-0.1,0.3-0.1,0.6-0.1,1v0.5c0,0.4,0.1,0.7,0.1,1c0.1,0.3,0.2,0.6,0.4,0.7c0.2,0.2,0.4,0.4,0.6,0.5c0.2,0.1,0.5,0.2,0.8,0.2
			c0.2,0,0.4,0,0.6-0.1c0.2,0,0.3-0.1,0.4-0.1c0.1-0.1,0.2-0.1,0.3-0.2c0.1-0.1,0.1-0.1,0.2-0.2v-1.5h-1.5v-0.7h2.4L256.8,26.6
			L256.8,26.6L256.8,26.6z M257.6,25c0-0.4,0.1-0.7,0.2-1c0.1-0.3,0.2-0.6,0.4-0.8c0.2-0.2,0.4-0.4,0.7-0.5c0.3-0.1,0.6-0.2,0.9-0.2
			c0.4,0,0.7,0.1,0.9,0.2c0.3,0.1,0.5,0.3,0.7,0.5c0.2,0.2,0.3,0.5,0.4,0.8c0.1,0.3,0.2,0.6,0.2,1v0.1c0,0.4-0.1,0.7-0.2,1
			c-0.1,0.3-0.2,0.6-0.4,0.8c-0.2,0.2-0.4,0.4-0.7,0.5c-0.3,0.1-0.6,0.2-0.9,0.2s-0.7-0.1-0.9-0.2c-0.2-0.1-0.5-0.3-0.7-0.5
			c-0.2-0.2-0.3-0.5-0.4-0.8c-0.1-0.3-0.2-0.6-0.2-1L257.6,25L257.6,25L257.6,25z M258.4,25.1c0,0.2,0,0.5,0.1,0.7
			c0.1,0.2,0.1,0.4,0.2,0.6c0.1,0.2,0.2,0.3,0.4,0.4c0.4,0.2,0.8,0.2,1.2,0c0.2-0.1,0.3-0.2,0.4-0.4c0.1-0.2,0.2-0.4,0.2-0.6
			c0.1-0.2,0.1-0.4,0.1-0.7V25c0-0.2,0-0.5-0.1-0.7c-0.1-0.2-0.1-0.4-0.2-0.6c-0.1-0.2-0.2-0.3-0.4-0.4c-0.2-0.1-0.4-0.1-0.6-0.1
			c-0.2,0-0.4,0.1-0.6,0.1c-0.2,0.1-0.3,0.2-0.4,0.4c-0.1,0.2-0.2,0.4-0.2,0.6c-0.1,0.2-0.1,0.4-0.1,0.7V25.1z M262.8,25
			c0-0.4,0.1-0.7,0.2-1c0.1-0.3,0.2-0.6,0.4-0.8c0.2-0.2,0.4-0.4,0.7-0.5c0.3-0.1,0.6-0.2,0.9-0.2c0.3,0,0.7,0.1,0.9,0.2
			c0.3,0.1,0.5,0.3,0.7,0.5c0.2,0.2,0.3,0.5,0.4,0.8c0.1,0.3,0.2,0.6,0.2,1v0.1c0,0.4-0.1,0.7-0.2,1c-0.1,0.3-0.2,0.6-0.4,0.8
			c-0.2,0.2-0.4,0.4-0.7,0.5c-0.3,0.1-0.6,0.2-0.9,0.2c-0.3,0-0.7-0.1-0.9-0.2c-0.3-0.1-0.5-0.3-0.7-0.5c-0.2-0.2-0.3-0.5-0.4-0.8
			c-0.1-0.3-0.2-0.6-0.2-1L262.8,25L262.8,25L262.8,25z M263.6,25.1c0,0.2,0,0.5,0.1,0.7c0.1,0.2,0.1,0.4,0.2,0.6
			c0.1,0.2,0.2,0.3,0.4,0.4c0.4,0.2,0.8,0.2,1.2,0c0.2-0.1,0.3-0.2,0.4-0.4c0.1-0.2,0.2-0.4,0.2-0.6c0.1-0.2,0.1-0.4,0.1-0.7V25
			c0-0.2,0-0.5-0.1-0.7c-0.1-0.2-0.1-0.4-0.2-0.6c-0.1-0.2-0.2-0.3-0.4-0.4c-0.2-0.1-0.4-0.1-0.6-0.1s-0.4,0.1-0.6,0.1
			c-0.2,0.1-0.3,0.2-0.4,0.4c-0.1,0.2-0.2,0.4-0.2,0.6c-0.1,0.2-0.1,0.4-0.1,0.7V25.1z M268,25c0-0.4,0.1-0.7,0.1-1
			c0.1-0.3,0.2-0.6,0.4-0.8c0.2-0.2,0.4-0.4,0.6-0.5c0.2-0.1,0.5-0.2,0.8-0.2s0.6,0.1,0.8,0.2c0.2,0.1,0.4,0.3,0.6,0.5l0-0.6h0.8
			v4.8c0,0.3-0.1,0.6-0.1,0.9c-0.1,0.2-0.2,0.5-0.4,0.6c-0.2,0.2-0.4,0.3-0.7,0.4c-0.2,0.1-0.5,0.1-0.8,0.1c-0.1,0-0.3,0-0.4-0.1
			c-0.2,0-0.3-0.1-0.5-0.1c-0.2-0.1-0.3-0.1-0.5-0.2c-0.2-0.1-0.3-0.2-0.4-0.4l0.4-0.5c0.1,0.1,0.2,0.2,0.3,0.3
			c0.1,0.1,0.2,0.1,0.3,0.2c0.1,0.1,0.2,0.1,0.3,0.1c0.1,0,0.2,0,0.3,0c0.2,0,0.4,0,0.5-0.1c0.2-0.1,0.3-0.1,0.4-0.2
			c0.1-0.1,0.2-0.2,0.2-0.4c0.1-0.2,0.1-0.4,0.1-0.6V27c-0.2,0.2-0.4,0.3-0.6,0.4c-0.2,0.1-0.5,0.1-0.8,0.1c-0.3,0-0.6-0.1-0.8-0.2
			c-0.2-0.1-0.4-0.3-0.6-0.5c-0.2-0.2-0.3-0.5-0.4-0.8C268.1,25.8,268,25.4,268,25L268,25z M268.9,25.1c0,0.2,0,0.5,0.1,0.7
			c0.1,0.2,0.1,0.4,0.2,0.6c0.1,0.2,0.2,0.3,0.4,0.4c0.2,0.1,0.4,0.1,0.6,0.1c0.1,0,0.3,0,0.4-0.1c0.1,0,0.2-0.1,0.3-0.1
			c0.1-0.1,0.2-0.1,0.2-0.2c0.1-0.1,0.1-0.2,0.2-0.3V24c-0.1-0.1-0.1-0.2-0.2-0.3c-0.1-0.1-0.2-0.2-0.2-0.2
			c-0.1-0.1-0.2-0.1-0.3-0.1c-0.1,0-0.2-0.1-0.4-0.1c-0.2,0-0.4,0.1-0.6,0.1c-0.2,0.1-0.3,0.2-0.4,0.4c-0.1,0.2-0.2,0.4-0.2,0.5
			C268.9,24.6,268.9,24.8,268.9,25.1L268.9,25.1L268.9,25.1z M274.1,27.5h-0.8v-6.9h0.8V27.5z M277.5,27.6c-0.3,0-0.6-0.1-0.9-0.2
			c-0.3-0.1-0.5-0.3-0.7-0.5c-0.2-0.2-0.4-0.5-0.4-0.7c-0.1-0.3-0.2-0.6-0.2-0.9V25c0-0.4,0.1-0.7,0.2-1c0.1-0.3,0.3-0.6,0.5-0.8
			c0.2-0.2,0.4-0.4,0.7-0.5c0.2-0.1,0.5-0.2,0.8-0.2c0.4,0,0.6,0.1,0.9,0.2c0.2,0.1,0.5,0.3,0.6,0.5c0.2,0.2,0.3,0.5,0.4,0.7
			c0.1,0.3,0.1,0.6,0.1,0.9v0.4h-3.3c0,0.2,0.1,0.4,0.1,0.6c0.1,0.2,0.2,0.4,0.3,0.5c0.1,0.1,0.3,0.2,0.4,0.3
			c0.2,0.1,0.4,0.1,0.6,0.1c0.3,0,0.6-0.1,0.7-0.2c0.2-0.1,0.4-0.3,0.5-0.5l0.5,0.4c-0.1,0.1-0.2,0.2-0.3,0.4
			c-0.1,0.1-0.2,0.2-0.4,0.3c-0.1,0.1-0.3,0.2-0.5,0.2C277.9,27.5,277.7,27.6,277.5,27.6L277.5,27.6z M277.4,23.2
			c-0.2,0-0.3,0-0.5,0.1c-0.1,0.1-0.3,0.1-0.4,0.3c-0.1,0.1-0.2,0.3-0.3,0.4c-0.1,0.2-0.1,0.4-0.1,0.6h2.4v-0.1c0-0.2,0-0.3-0.1-0.5
			c-0.1-0.2-0.1-0.3-0.2-0.4c-0.1-0.1-0.2-0.2-0.4-0.3C277.8,23.3,277.6,23.2,277.4,23.2L277.4,23.2z"/>
	</g>
	<g>
		<path fill="#333333" d="M97.2,40.2c-2,0-3.7,0.7-4.8,2c-1.2,1.3-1.8,3.1-1.8,5.4c0,2.3,0.6,4.1,1.7,5.4s2.7,1.9,4.8,1.9
			c1.4,0,2.6-0.2,3.8-0.5v1c-1.1,0.4-2.4,0.6-4,0.6c-2.3,0-4.1-0.7-5.4-2.2c-1.3-1.5-2-3.5-2-6.2c0-1.7,0.3-3.1,0.9-4.4
			c0.6-1.3,1.5-2.2,2.7-2.9s2.5-1,4.1-1c1.6,0,3,0.3,4.3,0.9l-0.5,1C99.7,40.5,98.5,40.2,97.2,40.2z"/>
		<path fill="#333333" d="M111.5,55.7l-0.3-1.9h-0.1c-0.6,0.8-1.2,1.3-1.9,1.7c-0.6,0.3-1.4,0.5-2.3,0.5c-1.2,0-2.1-0.3-2.8-0.9
			c-0.7-0.6-1-1.5-1-2.5c0-1.2,0.5-2.1,1.5-2.8s2.4-1,4.3-1l2.3-0.1v-0.8c0-1.2-0.2-2-0.7-2.6c-0.5-0.6-1.2-0.9-2.3-0.9
			c-1.1,0-2.3,0.3-3.5,0.9l-0.4-1c1.3-0.6,2.6-0.9,3.9-0.9c1.3,0,2.3,0.3,3,1c0.7,0.7,1,1.8,1,3.2v8.1H111.5z M107,54.9
			c1.3,0,2.3-0.4,3.1-1.1c0.7-0.7,1.1-1.8,1.1-3.1v-1.2l-2.1,0.1c-1.7,0.1-2.9,0.3-3.6,0.8c-0.7,0.4-1.1,1.2-1.1,2.1
			c0,0.8,0.2,1.3,0.7,1.8C105.5,54.7,106.2,54.9,107,54.9z"/>
		<path fill="#333333" d="M131.4,55.7v-8c0-1.2-0.2-2-0.7-2.6s-1.2-0.8-2.1-0.8c-1.2,0-2.2,0.3-2.8,1c-0.6,0.7-0.9,1.8-0.9,3.2v7.1
			h-1.1v-8.3c0-2-0.9-3.1-2.8-3.1c-1.3,0-2.2,0.4-2.8,1.1c-0.6,0.7-0.9,1.9-0.9,3.6v6.7h-1.1V43.6h0.9l0.2,1.7h0.1
			c0.3-0.6,0.8-1.1,1.4-1.4c0.6-0.3,1.3-0.5,2-0.5c1.9,0,3.1,0.7,3.7,2.2h0c0.4-0.7,0.9-1.2,1.6-1.6c0.7-0.4,1.4-0.6,2.3-0.6
			c1.3,0,2.3,0.4,3,1.1c0.7,0.7,1,1.8,1,3.4v7.9H131.4z"/>
		<path fill="#333333" d="M141.6,55.9c-1.9,0-3.2-0.7-4.1-2.1h-0.1l0,0.9c0,0.6,0,1.2,0,1.8v4.6h-1.1V43.6h0.9l0.2,1.7h0.1
			c0.8-1.3,2.2-2,4-2c1.6,0,2.9,0.5,3.7,1.6c0.9,1.1,1.3,2.6,1.3,4.7c0,2-0.5,3.5-1.4,4.6S143.1,55.9,141.6,55.9z M141.6,54.9
			c1.2,0,2.2-0.5,2.9-1.4c0.7-0.9,1-2.2,1-3.9c0-3.6-1.3-5.3-3.9-5.3c-1.4,0-2.5,0.4-3.1,1.2s-1,2-1,3.8v0.4c0,1.9,0.3,3.3,1,4.1
			S140.1,54.9,141.6,54.9z"/>
		<path fill="#333333" d="M157.4,55.7l-0.3-1.9H157c-0.6,0.8-1.2,1.3-1.9,1.7c-0.6,0.3-1.4,0.5-2.3,0.5c-1.2,0-2.1-0.3-2.8-0.9
			c-0.7-0.6-1-1.5-1-2.5c0-1.2,0.5-2.1,1.5-2.8s2.4-1,4.3-1l2.3-0.1v-0.8c0-1.2-0.2-2-0.7-2.6c-0.5-0.6-1.2-0.9-2.3-0.9
			c-1.1,0-2.3,0.3-3.5,0.9l-0.4-1c1.3-0.6,2.6-0.9,3.9-0.9c1.3,0,2.3,0.3,3,1c0.7,0.7,1,1.8,1,3.2v8.1H157.4z M152.9,54.9
			c1.3,0,2.3-0.4,3.1-1.1c0.7-0.7,1.1-1.8,1.1-3.1v-1.2l-2.1,0.1c-1.7,0.1-2.9,0.3-3.6,0.8c-0.7,0.4-1.1,1.2-1.1,2.1
			c0,0.8,0.2,1.3,0.7,1.8C151.4,54.7,152,54.9,152.9,54.9z"/>
		<path fill="#333333" d="M161.9,40.2c0-0.7,0.2-1.1,0.7-1.1c0.2,0,0.4,0.1,0.5,0.3s0.2,0.4,0.2,0.8c0,0.3-0.1,0.6-0.2,0.8
			s-0.3,0.3-0.5,0.3C162.2,41.3,161.9,40.9,161.9,40.2z M163.2,55.7h-1.1V43.6h1.1V55.7z"/>
		<path fill="#333333" d="M176.7,43.6v0.8l-2.5,0.2c0.7,0.8,1,1.7,1,2.7c0,1.2-0.4,2.1-1.2,2.8c-0.8,0.7-1.8,1.1-3.1,1.1
			c-0.6,0-0.9,0-1.2-0.1c-0.4,0.2-0.8,0.5-1,0.8c-0.2,0.3-0.3,0.6-0.3,1c0,0.4,0.1,0.7,0.4,0.8c0.3,0.2,0.8,0.3,1.5,0.3h2.1
			c1.3,0,2.3,0.3,3,0.8c0.7,0.5,1,1.3,1,2.4c0,1.3-0.5,2.3-1.6,3c-1,0.7-2.5,1-4.4,1c-1.5,0-2.7-0.3-3.5-0.9s-1.3-1.4-1.3-2.5
			c0-0.8,0.3-1.5,0.8-2.1s1.2-0.9,2.1-1.1c-0.4-0.2-0.7-0.4-0.9-0.7c-0.2-0.3-0.3-0.6-0.3-1c0-0.8,0.5-1.5,1.6-2.1
			c-0.7-0.3-1.3-0.7-1.7-1.4c-0.4-0.6-0.6-1.3-0.6-2.1c0-1.2,0.4-2.2,1.2-2.9c0.8-0.7,1.8-1.1,3.1-1.1c0.8,0,1.4,0.1,1.9,0.2H176.7z
			 M166.9,57.8c0,1.7,1.2,2.5,3.7,2.5c3.2,0,4.8-1,4.8-3c0-0.7-0.2-1.3-0.7-1.6c-0.5-0.3-1.3-0.5-2.4-0.5h-2
			C168,55.1,166.9,56,166.9,57.8z M167.8,47.4c0,0.9,0.3,1.7,0.9,2.2c0.6,0.5,1.3,0.8,2.3,0.8c1,0,1.8-0.3,2.3-0.8
			c0.5-0.5,0.8-1.3,0.8-2.2c0-1-0.3-1.8-0.8-2.3c-0.6-0.5-1.3-0.8-2.3-0.8c-1,0-1.7,0.3-2.3,0.8C168.1,45.6,167.8,46.4,167.8,47.4z"
			/>
		<path fill="#333333" d="M187.7,55.7v-7.9c0-1.2-0.3-2.1-0.8-2.7c-0.5-0.6-1.3-0.8-2.4-0.8c-1.5,0-2.5,0.4-3.2,1.1s-1,1.9-1,3.6
			v6.7h-1.1V43.6h0.9l0.2,1.7h0.1c0.8-1.3,2.2-1.9,4.2-1.9c2.8,0,4.1,1.5,4.1,4.4v7.9H187.7z"/>
		<path fill="#333333" d="M206.1,55.7L200,40.6h-0.1c0.1,0.9,0.1,1.9,0.1,2.8v12.2h-1.1V39.4h1.8l5.8,14.3h0.1l5.8-14.3h1.7v16.3
			h-1.1V43.3c0-0.9,0-1.8,0.1-2.7h-0.1l-6.1,15H206.1z"/>
		<path fill="#333333" d="M225.7,55.7l-0.3-1.9h-0.1c-0.6,0.8-1.2,1.3-1.9,1.7c-0.6,0.3-1.4,0.5-2.3,0.5c-1.2,0-2.1-0.3-2.8-0.9
			c-0.7-0.6-1-1.5-1-2.5c0-1.2,0.5-2.1,1.5-2.8s2.4-1,4.3-1l2.3-0.1v-0.8c0-1.2-0.2-2-0.7-2.6c-0.5-0.6-1.2-0.9-2.3-0.9
			c-1.1,0-2.3,0.3-3.5,0.9l-0.4-1c1.3-0.6,2.6-0.9,3.9-0.9c1.3,0,2.3,0.3,3,1c0.7,0.7,1,1.8,1,3.2v8.1H225.7z M221.2,54.9
			c1.3,0,2.3-0.4,3.1-1.1c0.7-0.7,1.1-1.8,1.1-3.1v-1.2l-2.1,0.1c-1.7,0.1-2.9,0.3-3.6,0.8c-0.7,0.4-1.1,1.2-1.1,2.1
			c0,0.8,0.2,1.3,0.7,1.8C219.7,54.7,220.4,54.9,221.2,54.9z"/>
		<path fill="#333333" d="M238.9,55.7v-7.9c0-1.2-0.3-2.1-0.8-2.7c-0.5-0.6-1.3-0.8-2.4-0.8c-1.5,0-2.5,0.4-3.2,1.1s-1,1.9-1,3.6
			v6.7h-1.1V43.6h0.9l0.2,1.7h0.1c0.8-1.3,2.2-1.9,4.2-1.9c2.8,0,4.1,1.5,4.1,4.4v7.9H238.9z"/>
		<path fill="#333333" d="M251.3,55.7l-0.3-1.9h-0.1c-0.6,0.8-1.2,1.3-1.9,1.7c-0.6,0.3-1.4,0.5-2.3,0.5c-1.2,0-2.1-0.3-2.8-0.9
			c-0.7-0.6-1-1.5-1-2.5c0-1.2,0.5-2.1,1.5-2.8s2.4-1,4.3-1l2.3-0.1v-0.8c0-1.2-0.2-2-0.7-2.6c-0.5-0.6-1.2-0.9-2.3-0.9
			c-1.1,0-2.3,0.3-3.5,0.9l-0.4-1c1.3-0.6,2.6-0.9,3.9-0.9c1.3,0,2.3,0.3,3,1c0.7,0.7,1,1.8,1,3.2v8.1H251.3z M246.8,54.9
			c1.3,0,2.3-0.4,3.1-1.1c0.7-0.7,1.1-1.8,1.1-3.1v-1.2l-2.1,0.1c-1.7,0.1-2.9,0.3-3.6,0.8c-0.7,0.4-1.1,1.2-1.1,2.1
			c0,0.8,0.2,1.3,0.7,1.8C245.3,54.7,246,54.9,246.8,54.9z"/>
		<path fill="#333333" d="M265.5,43.6v0.8l-2.5,0.2c0.7,0.8,1,1.7,1,2.7c0,1.2-0.4,2.1-1.2,2.8c-0.8,0.7-1.8,1.1-3.1,1.1
			c-0.6,0-0.9,0-1.2-0.1c-0.4,0.2-0.8,0.5-1,0.8c-0.2,0.3-0.3,0.6-0.3,1c0,0.4,0.1,0.7,0.4,0.8c0.3,0.2,0.8,0.3,1.5,0.3h2.1
			c1.3,0,2.3,0.3,3,0.8c0.7,0.5,1,1.3,1,2.4c0,1.3-0.5,2.3-1.6,3c-1,0.7-2.5,1-4.4,1c-1.5,0-2.7-0.3-3.5-0.9
			c-0.8-0.6-1.3-1.4-1.3-2.5c0-0.8,0.3-1.5,0.8-2.1s1.2-0.9,2.1-1.1c-0.4-0.2-0.7-0.4-0.9-0.7c-0.2-0.3-0.3-0.6-0.3-1
			c0-0.8,0.5-1.5,1.6-2.1c-0.7-0.3-1.3-0.7-1.7-1.4c-0.4-0.6-0.6-1.3-0.6-2.1c0-1.2,0.4-2.2,1.2-2.9c0.8-0.7,1.8-1.1,3.1-1.1
			c0.8,0,1.4,0.1,1.9,0.2H265.5z M255.7,57.8c0,1.7,1.2,2.5,3.7,2.5c3.2,0,4.8-1,4.8-3c0-0.7-0.2-1.3-0.7-1.6
			c-0.5-0.3-1.3-0.5-2.4-0.5h-2C256.8,55.1,255.7,56,255.7,57.8z M256.6,47.4c0,0.9,0.3,1.7,0.9,2.2c0.6,0.5,1.3,0.8,2.3,0.8
			c1,0,1.8-0.3,2.3-0.8c0.5-0.5,0.8-1.3,0.8-2.2c0-1-0.3-1.8-0.8-2.3c-0.6-0.5-1.3-0.8-2.3-0.8c-1,0-1.7,0.3-2.3,0.8
			C256.9,45.6,256.6,46.4,256.6,47.4z"/>
		<path fill="#333333" d="M272.9,55.9c-1.8,0-3.1-0.5-4.1-1.6c-1-1.1-1.5-2.6-1.5-4.6c0-1.9,0.5-3.5,1.4-4.6c1-1.2,2.2-1.7,3.8-1.7
			c1.4,0,2.6,0.5,3.4,1.5c0.8,1,1.2,2.4,1.2,4.1v0.9h-8.7c0,1.7,0.4,2.9,1.2,3.8c0.8,0.9,1.9,1.3,3.3,1.3c0.7,0,1.3,0,1.8-0.1
			s1.2-0.3,2-0.6v1c-0.7,0.3-1.3,0.5-1.9,0.6C274.2,55.9,273.6,55.9,272.9,55.9z M272.5,44.3c-1.2,0-2.1,0.4-2.8,1.2
			c-0.7,0.8-1.1,1.9-1.2,3.3h7.5c0-1.4-0.3-2.5-0.9-3.3C274.5,44.7,273.6,44.3,272.5,44.3z"/>
		<path fill="#333333" d="M285.3,43.3c0.5,0,1.1,0.1,1.7,0.2l-0.2,1.1c-0.5-0.1-1-0.2-1.6-0.2c-1,0-1.9,0.4-2.5,1.3s-1,2-1,3.3v6.7
			h-1.1V43.6h0.9l0.1,2.2h0.1c0.5-0.9,1-1.5,1.6-1.9C283.8,43.5,284.5,43.3,285.3,43.3z"/>
	</g>
</g>
</svg>
