<svg xmlns="http://www.w3.org/2000/svg" viewBox="330.2 183.5 67.4 93.8"><path fill="#00AD1D" d="M397.1 208.3c-.5-1.2-1.3-2.2-2.3-2.9l-.3-.2.8-2c.6-1.3.6-2.8 0-4.1-.5-1.3-1.6-2.4-2.9-2.9-.7-.3-1.4-.4-2.1-.4-2.2 0-4.1 1.3-4.9 3.3l-11.9 28h-4.3v-20.2l.1-.1c1.6-1.5 2.6-3.7 2.6-5.9 0-3.8-5.7-14.4-6.8-16.5-.3-.5-.7-.8-1.3-.8-.5 0-1 .3-1.3.8-1.1 2.1-6.8 12.7-6.8 16.5 0 2.2.9 4.4 2.6 5.9l.1.1v20.2h-5L340 195.5c-.3-.7-1.2-1.1-1.9-.8l-7.2 3c-.4.1-.6.4-.8.8-.1.4-.1.8 0 1.1l11.7 27.5h-3c-.8 0-1.5.7-1.5 1.5V270c0 4.1 3.3 7.4 7.4 7.4h38.1c4.1 0 7.4-3.3 7.4-7.4v-41.5c0-.8-.7-1.5-1.5-1.5h-3.6l8.1-19.2.4.5c.3.3.5.6.6 1 .4.9.4 1.8 0 2.7l-3.7 8.7c-.3.7 0 1.6.8 1.9.7.3 1.6-.1 1.9-.8l3.7-8.7c.9-1.5.9-3.2.2-4.8zm-33.6-19.5l.4-.7.4.7c1.1 2.2 4.8 9.7 4.8 12 0 1.6-.8 3.2-2.1 4.2-.9.6-1.9 1-3 1s-2.2-.3-3-1c-1.3-1-2.1-2.5-2.1-4.2-.2-2.3 3.5-9.7 4.6-12zm2.8 19.8v18.5h-4.9v-18.5l.5.1c1.3.3 2.6.3 3.9 0l.5-.1zm-32.8-8.8l4.5-1.9 1.8 4.3-4.5 1.9-1.8-4.3zm3 7l4.5-1.9 9.4 22.2h-5.3l-8.6-20.3zm50.9 23.2v40c0 1.2-.5 2.3-1.3 3.1-.8.8-2 1.3-3.1 1.3h-38.1c-2.5 0-4.5-2-4.5-4.5v-40h47zm-5.3-2.9h-5.3l9.4-22.2 4.5 1.8-8.6 20.4zm10.6-25l-.8 2-4.5-1.8.9-2c.5-1.2 2-1.8 3.2-1.3.6.3 1.1.7 1.3 1.3.1.5.1 1.2-.1 1.8z"/></svg>