<svg xmlns="http://www.w3.org/2000/svg" viewBox="207.6 188 69.6 87"><g fill="#00AD1D"><path d="M264.1 224.3h-36.3c-.8 0-1.5.6-1.5 1.5 0 .8.6 1.4 1.5 1.4h36.3c.8 0 1.5-.6 1.5-1.4 0-.9-.7-1.5-1.5-1.5zm-36.2-8.7h14.5c.8 0 1.4-.6 1.4-1.5 0-.8-.6-1.4-1.4-1.4h-14.5c-.8 0-1.5.6-1.5 1.4 0 .8.7 1.5 1.5 1.5zm36.2 20.3h-36.3c-.8 0-1.5.6-1.5 1.4 0 .8.6 1.5 1.5 1.5h36.3c.8 0 1.5-.6 1.5-1.5 0-.8-.7-1.4-1.5-1.4zm0 11.6h-36.3c-.8 0-1.5.6-1.5 1.5s.6 1.4 1.5 1.4h36.3c.8 0 1.5-.6 1.5-1.4s-.7-1.5-1.5-1.5zm0 11.6h-36.3c-.8 0-1.5.6-1.5 1.4 0 .8.6 1.4 1.5 1.4h36.3c.8 0 1.5-.6 1.5-1.4 0-.8-.7-1.4-1.5-1.4z"/><path d="M269.9 209.2V188h-62.4v79.8h7.3v7.3h62.4v-58.6l-7.3-7.3zm-13-9l13.1 13.1 2.3 2.3h-15.4v-15.4zm-46.4 64.7v-74H267v15.3l-11-11h-41.2v69.6h-4.3zm7.2 7.2v-74H254v20.3h20.3v53.7h-56.6z"/></g></svg>