<svg xmlns="http://www.w3.org/2000/svg" viewBox="445.4 196.4 78.9 78.9"><g fill="#00AD1D"><path d="M516 243.8c.1-1.3-.4-2.6-1.4-3.7l-1.7-1.7c-7.5-7.5-17.4-11.6-28-11.6-10.6 0-20.5 4.1-28 11.6l-1.7 1.7c-2.7 3-.9 6 0 6.9l1.7 1.7c7.5 7.5 17.4 11.6 28 11.6 10.6 0 20.5-4.1 28-11.6l1.7-1.7c.6-.5 1.3-1.7 1.4-3.2zm-3.5 1.2l-1.7 1.7c-6.9 6.9-16.1 10.7-25.9 10.7-9.8 0-19-3.8-25.9-10.7l-1.7-1.7c-.3-.3-1-1.5 0-2.7l1.7-1.7c6.9-6.9 16.1-10.7 25.9-10.7 9.8 0 19 3.8 25.9 10.7l1.7 1.7c1 1.1.3 2.3 0 2.7z"/><path d="M524.3 197.9c0-.4-.1-.8-.4-1-.3-.3-.7-.4-1-.4H447c-.8 0-1.5.7-1.5 1.5v75.9c0 .8.7 1.5 1.5 1.5h75.9c.8 0 1.5-.7 1.5-1.5v-76zm-3 74.5h-73v-57.5h73v57.5zm0-60.5h-73v-12.5h73v12.5z"/><path d="M458.6 204.2h-5c-.8 0-1.5.7-1.5 1.5s.7 1.5 1.5 1.5h5c.8 0 1.5-.7 1.5-1.5 0-.9-.7-1.5-1.5-1.5zm13.1 0h-5c-.8 0-1.5.7-1.5 1.5s.7 1.5 1.5 1.5h5c.8 0 1.5-.7 1.5-1.5 0-.9-.7-1.5-1.5-1.5zm13.2 0h-5c-.8 0-1.5.7-1.5 1.5s.7 1.5 1.5 1.5h5c.8 0 1.5-.7 1.5-1.5-.1-.9-.7-1.5-1.5-1.5zm0 28.8c-5.9 0-10.6 4.8-10.6 10.6 0 5.9 4.8 10.6 10.6 10.6 5.9 0 10.6-4.8 10.6-10.6s-4.8-10.6-10.6-10.6zm0 18.3c-4.2 0-7.6-3.4-7.6-7.6 0-4.2 3.4-7.6 7.6-7.6 4.2 0 7.6 3.4 7.6 7.6 0 4.1-3.4 7.6-7.6 7.6z"/></g></svg>