<svg xmlns="http://www.w3.org/2000/svg" viewBox="68.4 190.7 80.6 83.6"><path d="M78.8 211.6c5.3 0 9.6-3.9 10.3-9h58.3c.8 0 1.5-.7 1.5-1.5s-.7-1.5-1.5-1.5H89.1c-.7-5.1-5.1-9-10.3-9-5.8 0-10.4 4.7-10.4 10.4s4.7 10.6 10.4 10.6zm0-17.9c4.1 0 7.5 3.3 7.5 7.5 0 4.1-3.3 7.5-7.5 7.5-4.1 0-7.5-3.3-7.5-7.5.1-4.2 3.4-7.5 7.5-7.5zm59.7 59.6c-5.3 0-9.6 3.9-10.3 9H69.9c-.8 0-1.5.7-1.5 1.5s.7 1.5 1.5 1.5h58.3c.7 5.1 5.1 9 10.3 9 5.8 0 10.4-4.7 10.4-10.4 0-5.9-4.6-10.6-10.4-10.6zm0 17.9c-4.1 0-7.5-3.3-7.5-7.5 0-4.1 3.3-7.5 7.5-7.5 4.1 0 7.5 3.3 7.5 7.5s-3.4 7.5-7.5 7.5zm9-40.2h-27.8c-.6-5.4-5.2-9.6-10.7-9.6s-10.1 4.2-10.7 9.6H69.9c-.8 0-1.5.7-1.5 1.5s.7 1.5 1.5 1.5h28.5c.9 5.1 5.3 9 10.6 9s9.7-3.9 10.6-9h27.9c.8 0 1.5-.7 1.5-1.5-.1-.9-.7-1.5-1.5-1.5zm-38.5 8.9c-4.3 0-7.8-3.5-7.8-7.8s3.5-7.8 7.8-7.8 7.8 3.5 7.8 7.8c-.1 4.3-3.5 7.8-7.8 7.8z" fill="#00AD1D"/></svg>