<svg xmlns="http://www.w3.org/2000/svg" style="display:none"><symbol id="icon-callcenter" viewbox="0 0 100.4 100.4"><path fill="#FFF" d="M50.2 100.4C22.5 100.4 0 77.9 0 50.2 0 22.5 22.5 0 50.2 0c27.7 0 50.2 22.5 50.2 50.2 0 27.7-22.5 50.2-50.2 50.2zm0-98.4C23.6 2 2 23.6 2 50.2s21.6 48.2 48.2 48.2 48.2-21.6 48.2-48.2S76.8 2 50.2 2z"/><path fill="#FFF" d="M38.3 43.8h.8v.2c.4 3.6 2.6 6.7 5.7 8.5 3.3 1.8 7.5 1.8 10.8 0 1.6-.9 2.9-2.1 3.9-3.6l.1-.1h.1c.8-.1 1.6-.3 2.2-.7 3.4-1.8 3.8-6.4 3.8-6.6l.5-5.4c.1-.7-.2-1.4-.7-1.9-.5-.5-1.2-.8-1.9-.8H62l.4-6.1c.2-2.4-.7-4.7-2.3-6.5-1.6-1.8-3.9-2.8-6.3-2.8h-7.1c-2.4 0-4.7 1-6.3 2.8-1.7 1.8-2.5 4.1-2.3 6.5l.4 6.1h-1.8c-.7 0-1.4.3-1.9.8s-.7 1.2-.7 1.9l.5 5.4c.1 1 .7 1.8 1.7 2.2l.2.1V53c0 .5.4 1 1 1 .5 0 1-.4 1-1v-9.2zm21.2-.5c-.1 1.2-.4 2.3-.9 3.4l-.1.2h-.2c-1.1-.1-2.3-.5-3.7-1.2l-.2-.1v-.2c0-.2.1-.4.1-.6 0-1.5-1.3-2.8-2.8-2.8-1.5 0-2.8 1.3-2.8 2.8 0 1.5 1.3 2.8 2.8 2.8.5 0 1-.1 1.4-.4l.1-.1.1.1c1.2.6 2.4 1.1 3.5 1.3l.4.1-.2.4c-.7.7-1.5 1.4-2.4 1.8-1.4.8-2.9 1.2-4.5 1.2-1.5 0-3.1-.4-4.5-1.2-2.8-1.5-4.6-4.3-4.8-7.5l-.7-10.4h.2c6.7-.6 10.4-3 12.3-4.9l.2-.2.2.2c.5.5 1.2 1 2 1.5 1 .5 2.6 1 4.8 1.6h.2l-.5 12.2zm-6.8 1.5c0 .5-.4.9-.9.9s-.9-.4-.9-.9.4-.9.9-.9c.5.1.9.4.9.9zm9.2-9.5h1.8c.2 0 .3.1.4.2.1.1.2.3.2.5l-.5 5.4c0 .3-.3.5-.6.5h-1.8l.5-6.6zm-1 10.7c.2-.6.3-1.3.4-1.9v-.2h1.9l-.2.4c-.5.9-1 1.6-1.8 2.1l-.6.4.3-.8zm-4.2-25.4c.7.4 1.4.9 2 1.5 1.3 1.4 1.9 3.2 1.8 5.1l-.1 2.1-.3-.1c-2.3-.6-3.4-1-4-1.3-1.3-.7-1.8-1.3-1.8-1.6v-.1l.1-.1 2.1-5.5h.2zm-15 1.5c1.3-1.4 3-2.1 4.9-2.1H54.5l-2 5.3c-.3.5-3.1 4.8-12.2 5.7H40l-.3-3.9c.1-1.9.7-3.6 2-5zM37 41.9c-.3 0-.6-.2-.6-.5l-.4-5.5c0-.2 0-.3.2-.5.1-.1.3-.2.4-.2h1.9l.4 6.6H37zM79.4 70.3c-.7-3.6-2.4-6.9-4.9-9.4-2.6-2.5-5.8-4.2-9.3-4.9-1.1-.2-2.2-.3-3.3-.3h-3.6c-.3 0-.5.1-.7.3l-7.4 7.4-7.4-7.4c-.2-.2-.4-.3-.7-.3h-3.6c-1.1 0-2.2.1-3.3.3-3.5.7-6.8 2.4-9.3 4.9-2.6 2.6-4.3 5.8-4.9 9.4l-1.2 6.5c-.1.3 0 .6.2.8.2.2.5.3.7.3h58.8c.3 0 .6-.1.7-.3.2-.2.3-.5.2-.8l-1-6.5zM58.7 57.6h4.2L50.2 70.3l-2.1-2.1 10.6-10.6zm-20.6 0h3.6l7.1 7.1-2.1 2.1-9.2-9.2h.6zM22 76l1-5.4c1.1-6.2 5.8-11.1 12-12.6h.1l.1.1 14.3 14.3.1.1c.3.3.9.3 1.2 0 0 0 .1 0 .1-.1L65.2 58h.1c6.2 1.4 10.9 6.4 12.1 12.7l1 5.4H22z"/></symbol><symbol id="icon-consult" viewbox="-204.9 314.9 112.3 112.3"><circle fill="none" stroke="#FFF" stroke-width="2" stroke-miterlimit="10" cx="-148.8" cy="371" r="55.1"/><g fill="none" stroke="#FFF" stroke-width="2" stroke-miterlimit="10"><path d="M-143.1 394l-9.1 4.1c-3.5 1.5-5.7 5-5.7 8.8v18.5M-104.4 403.7c-.8-2.5-2.7-4.6-5.2-5.7l-9.1-4.1"/></g><path fill="none" stroke="#FFF" stroke-width="2" stroke-miterlimit="10" d="M-161.5 383.6c2.7-3.5 4.3-7.8 4.3-12.6 0-11.4-9.2-20.6-20.6-20.6-11.4 0-20.6 9.2-20.6 20.6 0 11.4 9.2 20.6 20.6 20.6 3.3 0 6.4-.8 9.1-2.2.9.6 1.8 1.1 2.8 1.5 3.6 1.3 7.3.7 10.3-1.2-2.7-1.2-4.8-3.5-5.9-6.1zm-5.1-16.5c2.1 0 3.9 1.7 3.9 3.9 0 2.1-1.7 3.9-3.9 3.9-2.1 0-3.9-1.7-3.9-3.9.1-2.1 1.8-3.9 3.9-3.9zm-22.5 7.8c-2.1 0-3.9-1.7-3.9-3.9 0-2.1 1.7-3.9 3.9-3.9 2.1 0 3.9 1.7 3.9 3.9 0 2.1-1.7 3.9-3.9 3.9zm11.3 0c-2.1 0-3.9-1.7-3.9-3.9 0-2.1 1.7-3.9 3.9-3.9 2.1 0 3.9 1.7 3.9 3.9-.1 2.1-1.8 3.9-3.9 3.9zM-111.1 376.4v2.1c0 10.9-8.9 19.8-19.8 19.8s-19.8-8.9-19.8-19.8v-4.7"/><path fill="none" stroke="#FFF" stroke-width="2" stroke-miterlimit="10" d="M-108.4 367.3c.9-5.3-.6-17-11.8-21.8-11.2-4.7-25.2 1.9-24.9 6.9-7.9 4.1-7.7 13.7-6.6 19.5.4 2.4 3.4 3.2 5 1.4 3.7-4.2 4.8-8.9 5.1-10.8 4 6.7 12.5 14.3 30.6 13.8 1.7 0 2.9-1.6 2.6-3.2-.3-1.5-.4-3.5 0-5.8zM-125.1 420.8c-.7-4.7-2.4-13.6-3.4-16.8l1.7-6.3M-135 397.8l1.7 6.3c-.9 3.1-2.8 13.1-3.2 20.7"/></symbol><symbol id="icon-lib" viewbox="90.8 420.5 136.8 105.9"><path fill="#00AD1D" d="M177.9 498.4c0-1.9-1.5-3.4-3.4-3.4h-30.6c-1.9 0-3.4 1.5-3.4 3.4v9.4c0 1.9 1.5 3.4 3.4 3.4h30.6c1.9 0 3.4-1.5 3.4-3.4v-9.4zm-3.8 9h-29.7v-8.5h29.7v8.5z"/><path fill="#00AD1D" d="M227.6 475.9c0-1.5-.4-3-1.2-4.4l-.6-.9.1-.1-19.7-39c-1.5-2.9-4.4-4.7-7.6-4.7h-4.8v-4.7c0-.9-.8-1.7-1.7-1.7h-65.8c-.9 0-1.7.8-1.7 1.7v4.7h-4.8c-3.2 0-6.1 1.8-7.6 4.7l-19.7 39h.1l-.5.9c-.8 1.3-1.2 2.8-1.2 4.4V518c0 4.6 3.8 8.4 8.4 8.4h119.9c4.6 0 8.4-3.8 8.4-8.4v-42.1zm-33.8-45.1h4.8c1.7 0 3.3 1 4.1 2.5l17.2 34.1H206v-11c0-.9-.8-1.7-1.7-1.7H200v-15.4c0-.9-.8-1.7-1.7-1.7h-4.6v-6.8zm8.9 27.3v9.4h-15.2c-2 0-3.9 1.2-4.7 3.1l-3.9 8.6c-.2.4-.6.7-1.1.7h-37.1c-.5 0-.9-.3-1.1-.7l-3.9-8.6c-.8-1.9-2.7-3.1-4.7-3.1h-15.2v-9.4h86.9zM128 423.8h62.4v13.7H128v-13.7zm68.7 17.2v13.7h-74.9V441h74.9zm-81-7.7c.8-1.5 2.3-2.5 4.1-2.5h4.8v6.7H120c-.9 0-1.7.8-1.7 1.7v15.4H114c-.9 0-1.7.8-1.7 1.7v11H98.5l17.2-34zM223.6 518c0 1.2-.5 2.3-1.3 3.1-.8.8-2 1.3-3.1 1.3h-120c-2.5 0-4.4-2-4.4-4.4v-42.1c0-2.5 2-4.4 4.4-4.4h31.7c.5 0 .9.3 1.1.7l3.9 8.6c.8 1.9 2.7 3.1 4.7 3.1h37.1c2 0 3.9-1.2 4.7-3.1l3.9-8.6c.2-.4.6-.7 1.1-.7h31.7c2.4 0 4.4 2 4.4 4.4V518z"/></symbol><symbol id="icon-measures" viewbox="510.4 411 133.2 133.2"><path fill="#00AD1D" d="M643.1 541.1l-50.7-50.7c-.7-.7-1.9-.7-2.6 0-.3.3-.5.8-.5 1.3s.2 1 .5 1.3l47.6 47.6h-18.1v-3.2c0-1-.8-1.8-1.8-1.8s-1.8.8-1.8 1.8v3.2h-11.5v-3.2c0-1-.8-1.8-1.8-1.8s-1.8.8-1.8 1.8v3.2h-11.5v-3.2c0-1-.8-1.8-1.8-1.8s-1.8.8-1.8 1.8v3.2H574v-3.2c0-1-.8-1.8-1.8-1.8s-1.8.8-1.8 1.8v3.2h-11.5v-3.2c0-1-.8-1.8-1.8-1.8s-1.8.8-1.8 1.8v3.2h-11.5v-3.2c0-1-.8-1.8-1.8-1.8s-1.8.8-1.8 1.8v3.2h-11.5v-3.2c0-1-.8-1.8-1.8-1.8s-1.8.8-1.8 1.8v3.2h-10.4V417.2l48 48c.7.7 1.9.7 2.6 0 .7-.7.7-1.9 0-2.6l-51.2-51.2c-.3-.3-.8-.5-1.3-.5-.2 0-.5 0-.7.1-.7.3-1.1.9-1.1 1.7v129.6c0 1 .8 1.8 1.8 1.8h129.6c.7 0 1.4-.4 1.7-1.1-.3-.6-.5-1.4-1-1.9z"/><path fill="#00AD1D" d="M550.8 476.5l-17.7-17.7c-.3-.3-.8-.5-1.3-.5-.2 0-.5 0-.7.1-.7.3-1.1.9-1.1 1.7v35.5c0 1 .8 1.8 1.8 1.8s1.8-.8 1.8-1.8v-31.1l14.5 14.5c.7.7 1.9.7 2.6 0 .9-.6.9-1.7.1-2.5zM595.7 521.5l-17.2-17.2c-.7-.7-1.9-.7-2.6 0-.7.7-.7 1.9 0 2.6L590 521h-33.2c-1 0-1.8.8-1.8 1.8s.8 1.8 1.8 1.8h37.7c.7 0 1.4-.4 1.7-1.1.2-.7.1-1.5-.5-2zM631.2 429.4l-6-6c-1.6-1.6-3.8-2.6-6.2-2.6-2.3 0-4.5.9-6.2 2.6L537 499.2c-.2.2-.3.4-.4.7l-9 24.7c-.2.7-.1 1.4.4 1.9s1.3.7 1.9.4l24.7-9c.3-.1.5-.2.7-.4l75.8-75.8c3.5-3.4 3.5-8.9.1-12.3zm-98.7 92.7l6.7-18.3 11.6 11.6-18.3 6.7zm21.6-8.5L541 500.5l65.2-65.2 13.1 13.1-65.2 65.2zm74.5-74.5l-6.7 6.7-13.1-13.1 6.7-6.7c1-1 2.2-1.5 3.6-1.5s2.6.5 3.6 1.5l6 6c1 1 1.5 2.2 1.5 3.6-.1 1.3-.7 2.6-1.6 3.5z"/></symbol><symbol id="icon-microscope" viewbox="0 0 100.4 100.4"><path fill="#FFF" d="M50.2 100.4C22.5 100.4 0 77.9 0 50.2 0 22.5 22.5 0 50.2 0c27.7 0 50.2 22.5 50.2 50.2 0 27.7-22.5 50.2-50.2 50.2zm0-98.4C23.6 2 2 23.6 2 50.2s21.6 48.2 48.2 48.2 48.2-21.6 48.2-48.2S76.8 2 50.2 2z"/><path fill="#FFF" d="M74.3 73.3c.3-.7.2-1.4-.1-2-.4-.5-1-.8-1.8-.8H42.8l-.1-.1c-1.3-2.1-2.2-4.5-2.7-6.9v-.2h29.1c.6 0 1-.5 1-1 0-.6-.5-1-1-1H39.8v-.2c-.1-.8-.1-1.4-.1-2 0-6.9 3.1-13.2 8.5-17.5l.2-.2 3 9.6c.4 1.3 1.6 2.1 2.9 2.1.3 0 .6 0 .9-.1l8.5-2.7c.8-.2 1.4-.8 1.8-1.5.4-.7.5-1.5.2-2.3l-8.9-28.4c-.4-1.3-1.6-2.1-2.9-2.1-.3 0-.6 0-.9.1l-.4.1-.3-.9c-.4-1.3-1.6-2.1-2.9-2.1-.3 0-.6 0-.9.1l-2 .6c-.8.2-1.4.8-1.8 1.5-.4.7-.5 1.5-.2 2.3l.3.9-.4.1c-.8.2-1.4.8-1.8 1.5-.4.7-.5 1.5-.2 2.3l2.2 7.1-.1.1C34.4 36 28 47.2 28 59.1c0 3.8.6 7.6 1.9 11.2l.1.2h-1c-1.7 0-3 1.4-3 3v4c0 1.7 1.4 3 3 3h39.4c1.7 0 3.6-1.3 4.2-2.9l1.7-4.3zM62.4 43.7l.2-.1 1.1 3.6c.1.3 0 .6-.1.7-.1.1-.2.4-.6.5l-8.5 2.7h-.3c-.4 0-.8-.2-.9-.7l-1.1-3.6 10.2-3.1zM47.2 16l2-.6h.3c.3 0 .8.2.9.7l.3.9-3.9 1.2-.3-.9c-.1-.6.2-1.1.7-1.3zm-2.7 6.1c-.1-.3 0-.6.1-.7.1-.1.2-.4.6-.5l8.5-2.7h.3c.3 0 .8.2.9.7L62 41.7h-.2-.1l-10.1 3.2-.1-.2-7-22.6zm.7 9.9l.2-.1 2.4 7.5-.1.1c-6.3 4.6-10 11.9-10 19.7 0 3.9.9 7.7 2.7 11.2l.1.3h-8.3v-.1C30.7 66.8 30 63 30 59.1 30 48 35.7 37.8 45.2 32zm25.4 45c-.3.8-1.4 1.6-2.3 1.6H29c-.5 0-1-.4-1-1v-4c0-.5.4-1 1-1h43.4L70.6 77z"/></symbol><symbol id="icon-plug" viewbox="-371.6 314.9 112.3 112.3"><ellipse transform="rotate(-45.001 -315.453 371.002)" fill="none" stroke="#FFF" stroke-width="2" stroke-miterlimit="10" cx="-315.4" cy="371" rx="55.1" ry="55.1"/><path fill="none" stroke="#FFF" stroke-miterlimit="10" d="M-353.3 411.1l8.4-8.4M-347.2 400.5l-8.3 8.3"/><path fill="none" stroke="#FFF" stroke-width="2" stroke-miterlimit="10" d="M-314.5 343.1l12.4-12.4c1.2-1.2 3.3-1.2 4.5 0 1.2 1.2 1.2 3.3 0 4.5l-12.4 12.4"/><path fill="none" stroke="#FFF" stroke-width="2" stroke-miterlimit="10" d="M-348.3 390.3c-2.5 2.5-2.5 6.5 0 9l4.5 4.5c2.5 2.5 6.5 2.5 9 0l2.9-2.9c5.4-5.4 12.6-8.6 20.1-8.9 7.5-.3 14.7-3.5 20.1-8.9l8.6-8.6-36-36-8.6 8.6c-5.4 5.4-8.6 12.6-8.9 20.1-.3 7.5-3.6 14.9-8.9 20.1l-2.8 3z"/><path fill="none" stroke="#FFF" stroke-width="2" stroke-miterlimit="10" d="M-287.5 370.1l12.4-12.4c1.2-1.2 1.2-3.3 0-4.5-1.2-1.2-3.3-1.2-4.5 0l-12.4 12.4M-330.9 379.2c-.4-.4-.5-.8-.5-1.4 0-1.1.8-1.9 1.9-1.9h14.6l-7.7-7.7c-.6-.5-.8-1.4-.4-2.1.3-.8 1-1.2 1.8-1.2h19.3c1.1 0 1.9.8 1.9 1.9 0 1.1-.8 1.9-1.9 1.9h-14.6l7.7 7.7c.5.6.8 1.4.4 2.1-.3.8-1 1.2-1.8 1.2h-19.3c-.6.1-1-.1-1.4-.5"/></symbol><symbol id="icon-rocket" viewbox="292.5 410.1 137.4 137.4"><path fill="#00AD1D" d="M309.3 511.1c-.4-.4-.9-.6-1.5-.6s-1.1.2-1.5.6l-6.9 6.9c-.4.4-.6.9-.6 1.5s.2 1.1.6 1.5c.8.8 2.2.8 3 0l6.9-6.9c.8-.8.8-2.1 0-3zM293.1 546.9c.8.8 2.2.8 3 0l23-23c.4-.4.6-.9.6-1.5s-.2-1.1-.6-1.5c-.4-.4-.9-.6-1.5-.6s-1.1.2-1.5.6l-23 23c-.8.8-.8 2.2 0 3zM325.9 530.7l-11.5 11.5c-.8.8-.8 2.2 0 3 .8.8 2.2.8 3 0l11.5-11.5c.8-.8.8-2.2 0-3-.4-.4-.9-.6-1.5-.6-.6-.1-1.1.2-1.5.6zM392.2 447.7c-3.7-3.7-8.6-5.7-13.8-5.7-5.2 0-10.1 2-13.8 5.7-3.7 3.7-5.7 8.6-5.7 13.8 0 5.2 2 10.1 5.7 13.8 3.7 3.7 8.6 5.7 13.8 5.7 5.2 0 10.1-2 13.8-5.7 7.6-7.6 7.6-20 0-27.6zm-3 24.6c-2.9 2.9-6.7 4.5-10.8 4.5-4.1 0-7.9-1.6-10.8-4.5-2.9-2.9-4.5-6.7-4.5-10.8 0-4.1 1.6-7.9 4.5-10.8 2.9-2.9 6.7-4.5 10.8-4.5 4.1 0 7.9 1.6 10.8 4.5 6 6 6 15.7 0 21.6z"/><path fill="#00AD1D" d="M426.1 453.7c.7-1.9 1.2-3.6 1.6-5.3 2.9-11.3 2.9-23.3-.1-34.5-.2-.7-.8-1.3-1.5-1.5-11.2-3-23.3-3.1-34.5-.1-1.7.4-3.4 1-5.2 1.6-.2.1-.3.1-.4.1-9.5 3.4-18.2 8.9-25.2 15.9l-1-.8.9.9-.1.1-10.7 12.4h-1.2c-15.6 0-30.8 6.3-41.9 17.3-3.7 3.7-6.8 7.7-9.4 12.2-.3.6-.4 1.3-.1 1.9.3.6.8 1.1 1.4 1.2l20 5.1-4.1 11.2c-1.6 4.4-.5 9.5 2.8 12.8l18.3 18.3c2.3 2.3 5.4 3.6 8.6 3.6 1.4 0 2.8-.3 4.2-.7l11.2-4.1 5.1 20c.2.6.6 1.2 1.2 1.4.6.3 1.3.2 1.9-.1 4.4-2.6 8.5-5.7 12.2-9.4 11.2-11.2 17.5-26.7 17.3-42.5v-.6l12.6-10.9c7.1-7.1 12.5-15.8 15.8-25.1.3-.2.3-.3.3-.4zm-123.6 18l1-1.5c1.8-2.6 3.9-5.1 6.2-7.4 8.9-8.9 20.8-14.5 33.4-15.8l3.1-.3-25.5 29.7-18.2-4.7zm17.2 28.6c-1.6-2.2-2-5-1.1-7.5l3.8-10.3 6.4 6.4-8.1 12.9-1-1.5zm4.2 4.4l8-12.7 6.6 6.6-10.3 10.3-4.3-4.2zm11.4 11.4l-4.2-4.2 10.3-10.3 6.6 6.6-12.7 7.9zm11.8 5.3c-.9.3-1.8.5-2.7.5-1.7 0-3.4-.6-4.8-1.6l-1.5-1.1 12.9-8.1 6.4 6.4-10.3 3.9zm45.9-24.6c-1.3 12.6-6.9 24.5-15.8 33.4-2.3 2.3-4.8 4.4-7.4 6.2l-1.5 1-4.7-18.3 29.7-25.5-.3 3.2zm28.4-42.3c-3.2 8.2-8 15.6-14.2 21.8l-45.7 39.3-37-37 39.2-45.7c6.3-6.3 13.7-11.1 21.9-14.3l.8-.3 35.4 35.4-.4.8zm2.3-7.4l-.5 2.1-32.4-32.4 2.1-.5c9.8-2.5 20.3-2.6 30.2-.3l.8.2.2.8c2.2 9.8 2.1 20.3-.4 30.1z"/></symbol><symbol id="icon-rulers" viewbox="0 0 100.4 100.4"><path fill="#FFF" d="M50.2 100.4C22.5 100.4 0 77.9 0 50.2 0 22.5 22.5 0 50.2 0c27.7 0 50.2 22.5 50.2 50.2 0 27.7-22.5 50.2-50.2 50.2zm0-98.4C23.6 2 2 23.6 2 50.2s21.6 48.2 48.2 48.2 48.2-21.6 48.2-48.2S76.8 2 50.2 2z"/><path fill="#FFF" d="M39.6 58.7c-6.4 0-11.6 5.2-11.6 11.6 0 .5.4.9.9.9h21.4c.5 0 .9-.4.9-.9.1-6.4-5.1-11.6-11.6-11.6zm-9.8 10.8c.5-5 4.6-8.9 9.8-8.9 5.2 0 9.4 3.9 9.8 8.9H29.8z"/><path fill="#FFF" d="M58.4 69.5h-1.8c-.2-4.7-2.5-9-5.8-11.9l-.1-.1-.2-.2c-3-2.5-6.8-4-10.9-4-9.1 0-16.5 7.1-17 16.1h-1.8c-.5 0-.9.4-.9.9v5.4c0 .5.4.9.9.9h37.5c.5 0 .9-.4.9-.9v-5.4c.1-.5-.2-.8-.8-.8zm-.9 5.3h-2.7v-.9c0-.5-.4-.9-.9-.9s-.9.4-.9.9v.9h-5.4v-.9c0-.5-.4-.9-.9-.9s-.9.4-.9.9v.9h-5.4v-.9c0-.5-.4-.9-.9-.9s-.9.4-.9.9v.9h-5.4v-.9c0-.5-.4-.9-.9-.9s-.9.4-.9.9v.9H26v-.9c0-.5-.4-.9-.9-.9s-.9.4-.9.9v.9h-2.7v-3.6h1.8c.5 0 .9-.4.9-.9 0-4.3 1.8-8.2 4.7-11l.9.9c.2.2.4.3.6.3.3 0 .4-.1.6-.3.4-.4.4-.9 0-1.3l-.8-.8c2.3-1.7 5.1-2.8 8.2-3v.9c0 .5.4.9.9.9s.9-.4.9-.9v-.9c3.1.2 5.9 1.3 8.2 3l-.4.9c-.4.4-.4.9 0 1.3.2.2.4.3.6.3.3 0 .4-.1.6-.3l.9-.9c2.9 2.8 4.7 6.7 4.7 11 0 .5.4.9.9.9h1.8v3.5zM76.7 23H66c-.5 0-.9.4-.9.9v51.8c0 .5.4.9.9.9h10.7c.5 0 .9-.4.9-.9V23.9c0-.6-.4-.9-.9-.9zm-.9 51.8h-8.9V73h4.5c.5 0 .9-.4.9-.9s-.4-.9-.9-.9h-4.5v-2.7h2.7c.5 0 .9-.4.9-.9s-.4-.9-.9-.9h-2.7V64h4.5c.5 0 .9-.4.9-.9s-.4-.9-.9-.9h-4.5v-2.7h2.7c.5 0 .9-.4.9-.9s-.4-.9-.9-.9h-2.7V55h4.5c.5 0 .9-.4.9-.9s-.4-.9-.9-.9h-4.5v-2.7h2.7c.5 0 .9-.4.9-.9s-.4-.9-.9-.9h-2.7V46h4.5c.5 0 .9-.4.9-.9s-.4-.9-.9-.9h-4.5v-2.7h2.7c.5 0 .9-.4.9-.9s-.4-.9-.9-.9h-2.7V37h4.5c.5 0 .9-.4.9-.9s-.4-.9-.9-.9h-4.5v-2.7h2.7c.5 0 .9-.4.9-.9s-.4-.9-.9-.9h-2.7v-6.3h8.9v50.4zM19.3 51.1h.5L36 43.4c.2-.1.3-.2.4-.3l15.2-12.8c.1 0 .3-.1.4-.2l3.3-2.8c1.7-1.4 1.9-4 .5-5.7l-1.6-1.9c-1.4-1.7-4-1.9-5.7-.5l-3.4 2.7-15.6 13c-.1.1-.3.2-.3.3-.1.1-.2.2-.2.3L18.7 49.7c-.2.3-.2.8.1 1.1.1.2.3.3.5.3zm10.9-14.3c1.2.6 2.2 1.5 3 2.6.1.1.1.2.2.3 0 0 0 .1.1.1 0 .1.1.2.1.2l.1.1c0 .1.1.1.1.2s.1.1.1.2.1.1.1.2.1.1.1.2c.1.1.1.2.2.4l.3.8-6.3 2.9-2.1-2.7 4-5.5zm-8 11.1l3-4.1 1.6 1.9-4.6 2.2zM36 41.1l-.1-.4c-.9-2.2-2.4-4-4.4-5.2L45.3 24c1 2.3 2.6 4.2 4.6 5.5L36 41.1zm13.7-20.7c1-.7 2.5-.6 3.2.3l1.6 1.9c.7 1 .6 2.5-.3 3.2l-2.9 2.4c-2.1-1.3-3.7-3.1-4.6-5.4l3-2.4z"/><path fill="#FFF" d="M72.2 30.1c1 0 1.8-.8 1.8-1.8s-.8-1.8-1.8-1.8-1.8.8-1.8 1.8.9 1.8 1.8 1.8z"/></symbol><symbol id="icon-smile" viewbox="-94.5 12.9 56 56"><path fill="#FFF" d="M-46.7 21.1c-5.3-5.3-12.3-8.2-19.8-8.2s-14.5 2.9-19.8 8.2c-10.9 10.9-10.9 28.7 0 39.6C-81 66-74 68.9-66.5 68.9S-52 66-46.7 60.7c10.9-10.9 10.9-28.7 0-39.6zm-1.2 38.4c-5 5-11.6 7.7-18.6 7.7-7 0-13.6-2.7-18.6-7.7-5-5-7.7-11.6-7.7-18.6 0-7 2.7-13.7 7.7-18.6 5-5 11.6-7.7 18.6-7.7 7 0 13.7 2.7 18.6 7.7 5 5 7.7 11.6 7.7 18.6 0 7-2.7 13.6-7.7 18.6z"/><g fill="#FFF"><path d="M-76.2 31.3c1.9 0 3.5 1.6 3.5 3.5 0 .5.4.8.8.8.5 0 .8-.4.8-.8 0-2.8-2.3-5.1-5.1-5.1s-5.1 2.3-5.1 5.1c0 .5.4.8.8.8.5 0 .8-.4.8-.8 0-1.9 1.6-3.5 3.5-3.5zM-56.8 31.4c1.9 0 3.5 1.6 3.5 3.5 0 .5.4.8.8.8s.8-.4.8-.8c0-2.8-2.3-5.1-5.1-5.1s-5.1 2.3-5.1 5.1c0 .5.4.8.8.8.5 0 .8-.4.8-.8 0-2 1.5-3.5 3.5-3.5z"/></g><path fill="#FFF" d="M-54.2 46.4c-.1-.2-.2-.4-.5-.5-.4-.2-.9 0-1.1.4-1.8 4.1-6 6.8-10.7 6.8-4.8 0-9-2.7-10.7-6.8-.1-.3-.4-.5-.8-.5-.1 0-.2 0-.3.1-.4.2-.6.7-.5 1.1 2 4.8 6.8 7.8 12.3 7.8 5.4 0 10.2-3.1 12.2-7.8.2-.1.2-.4.1-.6z"/></symbol><symbol id="icon-team" viewbox="0 0 100.4 100.4"><path fill="#FFF" d="M50.2 100.4C22.5 100.4 0 77.9 0 50.2 0 22.5 22.5 0 50.2 0c27.7 0 50.2 22.5 50.2 50.2 0 27.7-22.5 50.2-50.2 50.2zm0-98.4C23.6 2 2 23.6 2 50.2s21.6 48.2 48.2 48.2 48.2-21.6 48.2-48.2S76.8 2 50.2 2z"/><path fill="#FFF" d="M78.6 59.1V48c0-3.7-1.5-7.2-4.2-9.8-1.5-1.5-3.4-2.6-5.4-3.3l-.5-.2.4-.3c1.5-1.4 2.3-3.3 2.3-5.3 0-4-3.3-7.2-7.3-7.2-1.2 0-2.3.3-3.4.8-.6.3-.8 1-.5 1.5.3.5 1 .8 1.5.5.7-.4 1.5-.6 2.3-.6 2.8 0 5 2.2 5 5 0 1.3-.5 2.6-1.5 3.5-.9.9-2.2 1.5-3.5 1.5h-.5l-.1-.1c-2-2.8-4.8-4.8-8.1-5.8l-.5-.2.4-.4c1.8-1.5 2.8-3.8 2.8-6.1 0-4.5-3.6-8.1-8.1-8.1s-8.1 3.6-8.1 8.1c0 2.4 1.1 4.7 3 6.3l.4.3-.5.2c-3 1.1-5.6 3-7.5 5.6l-.1.1h-1.3c-2.8 0-5-2.2-5-5s2.2-5 5-5c.8 0 1.7.2 2.4.6.5.3 1.2.1 1.5-.5.3-.5.1-1.2-.5-1.5-1.1-.6-2.3-.9-3.5-.9-4 0-7.3 3.3-7.3 7.3 0 2.1.9 4.1 2.5 5.5l.4.3-.5.2c-5.5 2.1-9 7.2-9 12.9V59c0 .6.5 1.1 1.1 1.1.6 0 1.1-.5 1.1-1.1V48c0-6 4.8-11.1 11-11.6h.5l-.2.5c-.9 2-1.3 4.1-1.3 6.2v13.8c0 3.9 3.2 7.2 7.2 7.4h.3v18.2h2.3v-39c0-.6-.5-1.1-1.1-1.1-.6 0-1.1.5-1.1 1.1v18.6h-.3c-2.8-.3-4.9-2.5-4.9-5.2V43.1c0-2.5.7-5 2.1-7.1 2.5-3.9 6.9-6.2 11.7-6.2 4.8 0 9.1 2.3 11.7 6.2 1.4 2.1 2.1 4.6 2.1 7.1v13.8c0 2.6-2 4.8-4.6 5.1h-.3V43.6c0-.6-.5-1.1-1.1-1.1-.6 0-1.1.5-1.1 1.1v39H59V64.4h.3c3.9-.3 7-3.6 7-7.4V43.1c0-2.2-.4-4.3-1.3-6.2l-.2-.5h.5c2.9.2 5.6 1.4 7.7 3.4 2.3 2.2 3.5 5.1 3.5 8.2v11.1c0 .6.5 1.1 1.1 1.1.5.1 1-.4 1-1.1zM49.7 27.5c-3.2 0-5.8-2.6-5.8-5.8s2.6-5.8 5.8-5.8c3.2 0 5.8 2.6 5.8 5.8s-2.6 5.8-5.8 5.8z"/><path fill="#FFF" d="M63 67.9v14.6h2.3V67.9c0-.6-.5-1.1-1.1-1.1-.3 0-.6.1-.8.3-.3.3-.4.5-.4.8zM48.7 82.6H51V63.7c0-.6-.5-1.1-1.1-1.1-.6 0-1.1.5-1.1 1.1v18.9zM34.8 82.6H37V67.9c0-.6-.5-1.1-1.1-1.1-.6 0-1.1.5-1.1 1.1v14.7zM69.9 48.5l.1 34.1h2.3l-.1-34.1c0-.6-.5-1.1-1.1-1.1-.6-.1-1.2.4-1.2 1.1zM28.4 82.6h2.3V48.5c0-.6-.5-1.1-1.1-1.1-.6 0-1.1.5-1.1 1.1v34.1z"/></symbol></svg>