<?xml version="1.0" encoding="utf-8"?>
<!-- Generator: Adobe Illustrator 20.1.0, SVG Export Plug-In . SVG Version: 6.00 Build 0)  -->
<svg version="1.1" id="Layer_1" xmlns="http://www.w3.org/2000/svg" xmlns:xlink="http://www.w3.org/1999/xlink" x="0px" y="0px"
	 viewBox="0 0 74.6 59.8" enable-background="new 0 0 74.6 59.8" xml:space="preserve">
<g>
	<path fill="#369647" d="M44.8,0c-2.6,0-5,0.3-7.4,1c12.7,3.3,22.2,14.7,22.4,28.3v1.2c-0.3,8-7,14.4-15,14.4c-2.7,0-5.3-0.7-7.4-2
		c-4.5-2.6-7.5-7.4-7.5-13c0-5.6,3-10.3,7.4-13c-2.2-1.3-4.7-2-7.4-2c-8.1,0-14.6,6.4-14.9,14.4v1.2c0.2,13.7,9.7,25.1,22.4,28.3
		c2.4,0.6,4.9,1,7.4,1c16.5,0,29.8-13.4,29.8-29.8C74.6,13.4,61.3,0,44.8,0L44.8,0z"/>
	<path fill="#AFD136" d="M59.7,29.3C59.5,15.6,50,4.2,37.3,1c-2.4-0.6-4.9-1-7.4-1C13.4,0,0,13.4,0,29.9c0,16.5,13.4,29.8,29.8,29.8
		c2.6,0,5-0.3,7.4-1c-12.6-3.3-22.1-14.6-22.3-28.3v-1.2c0.3-8,6.9-14.4,14.9-14.4c2.7,0,5.3,0.7,7.4,2c4.5,2.6,7.4,7.4,7.4,13
		c0,5.6-3,10.3-7.4,13c2.2,1.2,4.8,2,7.5,2c8.1,0,14.6-6.4,14.9-14.4v-0.6C59.7,29.7,59.7,29.5,59.7,29.3z"/>
	
		<linearGradient id="SVGID_1_" gradientUnits="userSpaceOnUse" x1="-113.2797" y1="-9.7626" x2="-113.2797" y2="23.2851" gradientTransform="matrix(1.8 0 0 1.8 233.7405 17.7445)">
		<stop  offset="0" style="stop-color:#010101;stop-opacity:0.6"/>
		<stop  offset="0.6" style="stop-color:#010101;stop-opacity:0.1"/>
	</linearGradient>
	<path opacity="0.15" fill="url(#SVGID_1_)" enable-background="new    " d="M59.7,29.3C59.5,15.6,50,4.2,37.3,1
		c-2.4-0.6-4.9-1-7.4-1C13.4,0,0,13.4,0,29.9c0,16.5,13.4,29.8,29.8,29.8c2.6,0,5-0.3,7.4-1c-12.6-3.3-22.1-14.6-22.3-28.3v-1.2
		c0.3-8,6.9-14.4,14.9-14.4c2.7,0,5.3,0.7,7.4,2c4.5,2.6,7.4,7.4,7.4,13c0,5.6-3,10.3-7.4,13c2.2,1.2,4.8,2,7.5,2
		c8.1,0,14.6-6.4,14.9-14.4v-0.6C59.7,29.7,59.7,29.5,59.7,29.3z"/>
	
		<linearGradient id="SVGID_2_" gradientUnits="userSpaceOnUse" x1="-104.9486" y1="23.1281" x2="-104.9486" y2="-9.8908" gradientTransform="matrix(1.8 0 0 1.8 233.7405 17.7445)">
		<stop  offset="0" style="stop-color:#010101;stop-opacity:0.6"/>
		<stop  offset="0.6" style="stop-color:#010101;stop-opacity:0.1"/>
	</linearGradient>
	<path opacity="0.15" fill="url(#SVGID_2_)" enable-background="new    " d="M44.8,0c-2.6,0-5,0.3-7.4,1
		c12.7,3.3,22.2,14.7,22.4,28.3v1.2c-0.3,8-7,14.4-15,14.4c-2.7,0-5.3-0.7-7.4-2c-4.5-2.6-7.5-7.4-7.5-13c0-5.6,3-10.3,7.4-13
		c-2.2-1.3-4.7-2-7.4-2c-8.1,0-14.6,6.4-14.9,14.4v1.2c0.2,13.7,9.7,25.1,22.4,28.3c2.4,0.6,4.9,1,7.4,1c16.5,0,29.8-13.4,29.8-29.8
		C74.6,13.4,61.3,0,44.8,0L44.8,0z"/>
	
		<linearGradient id="SVGID_3_" gradientUnits="userSpaceOnUse" x1="-117.5051" y1="9.8574" x2="-111.8783" y2="27.9509" gradientTransform="matrix(1.8 0 0 1.8 233.7405 17.7445)">
		<stop  offset="0" style="stop-color:#010101;stop-opacity:0.5"/>
		<stop  offset="0.75" style="stop-color:#010101;stop-opacity:3.000000e-02"/>
	</linearGradient>
	<path opacity="0.4" fill="url(#SVGID_3_)" enable-background="new    " d="M37.3,58.7C24.7,55.5,15.2,44.1,15,30.4v-0.1v0.2
		c0.2,11.6,4.3,21.9,10.8,28.9c1.4,0.2,2.7,0.3,4.1,0.3C32.4,59.7,35,59.4,37.3,58.7z"/>
	
		<linearGradient id="SVGID_4_" gradientUnits="userSpaceOnUse" x1="-120.8642" y1="2.5961" x2="-104.6042" y2="2.5961" gradientTransform="matrix(1.8 0 0 1.8 233.7405 17.7445)">
		<stop  offset="0" style="stop-color:#010101;stop-opacity:0.9"/>
		<stop  offset="0.6" style="stop-color:#010101;stop-opacity:0.1"/>
	</linearGradient>
	<path opacity="0.25" fill="url(#SVGID_4_)" enable-background="new    " d="M15.1,29.4c2.3-7.7,10.3-12.2,18.2-10
		c0.2,0.1,0.6,0.2,0.8,0.2c1-1,2.1-1.9,3.3-2.6c-2.2-1.3-4.7-2-7.4-2C21.9,15,15.3,21.4,15.1,29.4l0,0.5C15,29.7,15,29.5,15.1,29.4z
		"/>
</g>
</svg>
