<svg xmlns="http://www.w3.org/2000/svg" viewBox="0 0 391.9 59.8"><path fill="#369647" d="M44.8 0c-2.6 0-5 .3-7.4 1 12.7 3.3 22.2 14.7 22.4 28.3v1.2c-.3 8-7 14.4-15 14.4-2.7 0-5.3-.7-7.4-2-4.5-2.6-7.5-7.4-7.5-13s3-10.3 7.4-13c-2.2-1.3-4.7-2-7.4-2-8.1 0-14.6 6.4-14.9 14.4v1.2c.2 13.7 9.7 25.1 22.4 28.3 2.4.6 4.9 1 7.4 1 16.5 0 29.8-13.4 29.8-29.8 0-16.6-13.3-30-29.8-30z"/><path fill="#AEEA00" d="M59.7 29.3C59.5 15.6 50 4.2 37.3 1c-2.4-.6-4.9-1-7.4-1C13.4 0 0 13.4 0 29.9s13.4 29.8 29.8 29.8c2.6 0 5-.3 7.4-1-12.6-3.3-22.1-14.6-22.3-28.3v-1.2c.3-8 6.9-14.4 14.9-14.4 2.7 0 5.3.7 7.4 2 4.5 2.6 7.4 7.4 7.4 13s-3 10.3-7.4 13c2.2 1.2 4.8 2 7.5 2 8.1 0 14.6-6.4 14.9-14.4v-.6c.1-.1.1-.3.1-.5z"/><linearGradient id="a" gradientUnits="userSpaceOnUse" x1="-433.642" y1="106.641" x2="-433.642" y2="139.689" gradientTransform="matrix(1.8 0 0 1.8 810.393 -191.782)"><stop offset="0" stop-opacity=".6"/><stop offset=".6" stop-opacity=".1"/></linearGradient><path opacity=".15" fill="url(#a)" d="M59.7 29.3C59.5 15.6 50 4.2 37.3 1c-2.4-.6-4.9-1-7.4-1C13.4 0 0 13.4 0 29.9s13.4 29.8 29.8 29.8c2.6 0 5-.3 7.4-1-12.6-3.3-22.1-14.6-22.3-28.3v-1.2c.3-8 6.9-14.4 14.9-14.4 2.7 0 5.3.7 7.4 2 4.5 2.6 7.4 7.4 7.4 13s-3 10.3-7.4 13c2.2 1.2 4.8 2 7.5 2 8.1 0 14.6-6.4 14.9-14.4v-.6c.1-.1.1-.3.1-.5z"/><linearGradient id="b" gradientUnits="userSpaceOnUse" x1="-425.311" y1="139.532" x2="-425.311" y2="106.513" gradientTransform="matrix(1.8 0 0 1.8 810.393 -191.782)"><stop offset="0" stop-opacity=".6"/><stop offset=".6" stop-opacity=".1"/></linearGradient><path opacity=".15" fill="url(#b)" d="M44.8 0c-2.6 0-5 .3-7.4 1 12.7 3.3 22.2 14.7 22.4 28.3v1.2c-.3 8-7 14.4-15 14.4-2.7 0-5.3-.7-7.4-2-4.5-2.6-7.5-7.4-7.5-13s3-10.3 7.4-13c-2.2-1.3-4.7-2-7.4-2-8.1 0-14.6 6.4-14.9 14.4v1.2c.2 13.7 9.7 25.1 22.4 28.3 2.4.6 4.9 1 7.4 1 16.5 0 29.8-13.4 29.8-29.8 0-16.6-13.3-30-29.8-30z"/><linearGradient id="c" gradientUnits="userSpaceOnUse" x1="-437.868" y1="126.261" x2="-432.241" y2="144.355" gradientTransform="matrix(1.8 0 0 1.8 810.393 -191.782)"><stop offset="0" stop-opacity=".5"/><stop offset=".75" stop-opacity=".03"/></linearGradient><path opacity=".4" fill="url(#c)" d="M37.3 58.7C24.7 55.5 15.2 44.1 15 30.4v-.1.2c.2 11.6 4.3 21.9 10.8 28.9 1.4.2 2.7.3 4.1.3 2.5 0 5.1-.3 7.4-1z"/><linearGradient id="d" gradientUnits="userSpaceOnUse" x1="-441.227" y1="119" x2="-424.967" y2="119" gradientTransform="matrix(1.8 0 0 1.8 810.393 -191.782)"><stop offset="0" stop-opacity=".9"/><stop offset=".6" stop-opacity=".1"/></linearGradient><path opacity=".25" fill="url(#d)" d="M15.1 29.4c2.3-7.7 10.3-12.2 18.2-10 .2.1.6.2.8.2 1-1 2.1-1.9 3.3-2.6-2.2-1.3-4.7-2-7.4-2-8.1 0-14.7 6.4-14.9 14.4v.5c-.1-.2-.1-.4 0-.5z"/><path fill="#FFF" d="M96.6 45.7V12.9h9.2c2.1 0 3.9.4 5.6 1.1 1.7.7 3.3 1.7 4.5 3 1.2 1.3 2.2 2.9 2.9 4.7.7 1.8 1 3.9 1 6.2v3c0 2.2-.3 4.3-1 6.2-.7 1.8-1.7 3.4-2.9 4.7-1.2 1.3-2.8 2.3-4.5 3-1.8.7-3.7 1.1-5.8 1.1l-9-.2zm2.7-30.4v28.1h6.3c1.8 0 3.3-.3 4.8-.9 1.4-.6 2.6-1.5 3.6-2.5 1-1.1 1.8-2.5 2.3-4 .6-1.5.8-3.3.8-5.1v-3.1c0-1.9-.3-3.6-.9-5.2-.6-1.5-1.3-2.9-2.3-3.9-1-1.1-2.1-1.9-3.6-2.5-1.4-.6-2.9-.9-4.6-.9h-6.4zM123 33.2c0-1.8.2-3.4.8-4.9.6-1.5 1.2-2.8 2.2-3.9.9-1.1 2.1-1.9 3.5-2.5 1.3-.6 2.9-.9 4.5-.9 1.7 0 3.2.3 4.5.9 1.3.6 2.5 1.5 3.5 2.5.9 1.1 1.7 2.4 2.1 3.9.6 1.5.8 3.2.8 4.9v.8c0 1.8-.2 3.4-.8 4.9-.6 1.5-1.2 2.8-2.1 3.9-.9 1.1-2.1 1.9-3.5 2.5-1.3.6-2.9.9-4.5.9s-3.2-.3-4.5-.9c-1.3-.6-2.5-1.5-3.5-2.5-.9-1.1-1.7-2.4-2.2-3.9-.6-1.5-.8-3.2-.8-4.9v-.8zm2.7.7c0 1.3.2 2.6.6 3.9.4 1.2.9 2.2 1.6 3.2.7.9 1.5 1.6 2.5 2.1 1 .6 2.2.9 3.6.9 1.3 0 2.5-.3 3.6-.9 1-.6 1.8-1.2 2.5-2.1.7-.9 1.2-2 1.6-3.2.4-1.2.6-2.5.6-3.9v-.8c0-1.3-.2-2.5-.6-3.8-.4-1.2-.9-2.3-1.6-3.2-.7-.9-1.5-1.6-2.6-2.2-1-.6-2.2-.9-3.6-.9-1.3 0-2.5.3-3.5.9-1 .6-1.8 1.3-2.5 2.2-.7.9-1.2 2-1.6 3.2-.4 1.2-.6 2.5-.6 3.8v.8zm39 8.7c-.8 1.1-1.8 2-3.1 2.6-1.3.6-2.9.9-4.7.9-1.2 0-2.3-.2-3.3-.6-1-.3-1.8-.9-2.5-1.6-.7-.8-1.2-1.7-1.6-2.9-.4-1.2-.6-2.6-.6-4.2V21.3h2.7V37c0 1.3.2 2.4.5 3.3.3.9.7 1.5 1.2 2.1.6.6 1.1.9 1.8 1.2.7.2 1.4.3 2.1.3 1.1 0 2-.2 2.9-.4.9-.2 1.5-.6 2.1-1 .6-.5 1.1-.9 1.5-1.5.4-.6.7-1.2.9-1.9V21.3h2.7v24.4h-2.6v-3.1zm28.3-8.8c0 1.8-.2 3.6-.6 5-.4 1.5-1 2.9-1.8 3.9-.8 1.1-1.8 1.9-2.9 2.5-1.2.6-2.5.9-3.9.9-1.8 0-3.3-.3-4.6-1-1.3-.7-2.3-1.6-3.2-2.8l-.1 3.3h-2.5V11h2.7v13.8c.9-1.2 1.8-2.2 3.1-2.9 1.2-.7 2.8-1.1 4.5-1.1 1.5 0 2.9.3 4 .9 1.2.6 2.1 1.4 2.9 2.5.8 1.1 1.4 2.4 1.8 3.9.4 1.5.6 3.3.6 5.2v.5zm-2.7-.5c0-1.4-.2-2.8-.4-4-.3-1.2-.7-2.3-1.3-3.3-.6-.9-1.3-1.6-2.2-2.1-.9-.5-2-.8-3.3-.8-1 0-1.9.2-2.7.4-.8.3-1.5.6-2 1.1-.6.5-1.1 1-1.5 1.6-.4.6-.7 1.2-.9 1.8v11c.3.6.6 1.2 1.1 1.8.5.6.9 1.1 1.5 1.5.6.4 1.2.8 2 1 .8.2 1.6.4 2.5.4 1.2 0 2.3-.2 3.2-.8.9-.6 1.6-1.2 2.2-2.1.6-.9 1-2 1.3-3.2.3-1.2.4-2.5.4-4l.1-.3zm10.1 12.4h-2.7V11h2.7v34.7zm15.8.5c-1.6 0-3.1-.3-4.4-.9-1.3-.6-2.5-1.4-3.5-2.5s-1.7-2.3-2.2-3.8c-.6-1.5-.9-3.1-.9-4.8v-1c0-1.8.3-3.6.9-5.1.6-1.5 1.3-2.9 2.3-3.9.9-1.1 2.1-1.9 3.3-2.5 1.2-.6 2.6-.9 4-.9 1.5 0 2.9.3 4.2.9 1.2.6 2.2 1.3 3 2.3.8 1 1.5 2.1 1.8 3.6.4 1.4.6 2.9.6 4.5v1.6h-17.4v.6c0 1.3.2 2.6.6 3.8.4 1.2 1 2.2 1.7 3.1.8.9 1.6 1.5 2.6 2.1 1 .6 2.1.8 3.4.8 1.5 0 2.7-.2 3.9-.8 1.1-.6 2.1-1.4 3-2.5l1.7 1.3c-.4.6-.9 1.2-1.4 1.7-.6.6-1.2 1-1.8 1.4-.7.4-1.5.7-2.4.9-.9 0-2 .1-3 .1zm-.5-23.1c-1 0-2 .2-2.9.6-.9.4-1.6.9-2.3 1.7-.7.7-1.2 1.6-1.6 2.6-.5 1-.7 2.1-.9 3.4h14.6v-.3c0-1-.2-2-.5-3-.3-.9-.8-1.8-1.3-2.5-.6-.8-1.3-1.3-2.1-1.8-.9-.4-1.9-.7-3-.7zm38.1 12.4c-.2 1.7-.6 3.2-1.2 4.5-.6 1.3-1.4 2.5-2.4 3.4-1 .9-2.2 1.6-3.6 2.1s-3 .8-4.8.8c-1.8 0-3.6-.4-5.1-1.1-1.5-.7-2.9-1.7-3.9-3-1.1-1.3-1.9-2.9-2.5-4.7-.6-1.8-.9-3.9-.9-6v-4.2c0-2.2.3-4.2.9-6.1.6-1.8 1.4-3.4 2.5-4.7 1.1-1.3 2.4-2.3 3.9-3 1.5-.7 3.3-1.1 5.2-1.1 1.8 0 3.3.2 4.7.7 1.4.5 2.6 1.2 3.6 2.1 1 .9 1.8 2.1 2.4 3.4.6 1.3 1 2.9 1.2 4.5H251c-.2-1.3-.5-2.5-.9-3.6-.5-1.1-1-1.9-1.8-2.6-.8-.7-1.6-1.2-2.7-1.6-1.1-.4-2.3-.6-3.7-.6-1.5 0-2.9.3-4.1.9-1.2.6-2.2 1.5-3.1 2.5-.9 1.1-1.5 2.4-1.9 3.9-.5 1.5-.7 3.3-.7 5.1v4.2c0 1.8.2 3.5.6 5 .4 1.5 1 2.9 1.8 3.9.9 1.1 1.8 2 3 2.6 1.2.6 2.5.9 4.1.9 2.9 0 5.1-.7 6.6-2.1 1.5-1.4 2.4-3.5 2.7-6.3l2.9.2zm7.9 10.2H259V11h2.7v34.7zm6.7-31.4c0-.6.2-.9.5-1.3s.8-.6 1.4-.6c.6 0 1 .2 1.4.6.3.4.6.8.6 1.3 0 .6-.2.9-.6 1.3-.3.3-.8.6-1.4.6-.6 0-1-.2-1.4-.6-.4-.4-.5-.9-.5-1.3zm3.1 31.4h-2.7V21.3h2.7v24.4zm15.1-1.8c.9 0 1.7-.2 2.5-.4s1.5-.6 2.1-1.1c.6-.5 1.2-1.1 1.5-1.8.4-.7.6-1.5.7-2.5h2.6c-.1 1.2-.4 2.2-.9 3.3-.6 1-1.2 1.8-2.1 2.5-.9.7-1.8 1.2-2.9 1.7-1.1.4-2.3.6-3.6.6-1.7 0-3.3-.3-4.5-.9-1.3-.6-2.4-1.5-3.3-2.6-.9-1.1-1.5-2.4-2-3.9s-.7-3.1-.7-4.8v-.9c0-1.7.2-3.3.7-4.8.5-1.5 1.1-2.8 2-3.9.9-1.1 1.9-1.9 3.3-2.6 1.3-.6 2.8-.9 4.5-.9 1.3 0 2.5.2 3.6.6 1.2.4 2.1 1 2.9 1.8.9.8 1.5 1.7 2 2.8.5 1.1.8 2.3.9 3.6h-2.6c-.1-1-.3-1.8-.6-2.7-.4-.8-.9-1.5-1.5-2-.6-.6-1.3-1-2.1-1.3-.8-.3-1.7-.5-2.6-.5-1.4 0-2.6.3-3.6.9-1 .6-1.8 1.3-2.4 2.1-.6.9-1.1 2-1.3 3.2-.3 1.2-.4 2.5-.4 3.7v.9c0 1.3.2 2.5.4 3.8.2 1.2.7 2.2 1.3 3.2.6.9 1.4 1.6 2.4 2.1s2.2.8 3.7.8zm19.6-10.4l-3.1 3v9.3h-2.7V11.1h2.7v22.2l2.5-2.8 9.3-9.2h3.4L308 31.7l11.3 14.1H316l-9.8-12.3zm31.1 8.5c0 .6-.1 1.1-.2 1.5-.1.5-.3.9-.6 1.2-.3.3-.6.6-.9.8-.3.2-.8.3-1.2.3-.5 0-.9-.1-1.3-.3-.3-.2-.7-.4-.9-.8v.9H331V35h1.3v4c.3-.3.6-.6.9-.7.3-.2.8-.3 1.2-.3.5 0 .9.1 1.2.3.4.2.7.4.9.8.3.3.4.7.6 1.2.1.5.2 1 .2 1.6v.1zm-1.3-.1c0-.4 0-.7-.1-1.1l-.3-.9c-.2-.3-.3-.5-.6-.6-.3-.1-.6-.2-.9-.2-.3 0-.5 0-.6.1-.2 0-.3.1-.5.3-.2.1-.3.2-.4.4-.1.1-.2.3-.3.5v3.3c.1.2.2.3.3.5l.4.4c.2.1.3.2.5.3.2 0 .4.1.6.1.3 0 .6-.1.9-.2.3-.1.4-.3.6-.6.2-.3.3-.6.3-.9.1-.3.1-.7.1-1.1v-.3zm5.2 1.9l1.8-5.7h1.4l-3 8.7-.3.6c-.1.2-.3.4-.4.6-.2.2-.4.3-.6.5-.3.1-.6.2-.9.2h-.7v-1h.9c.2 0 .3-.1.4-.2.1-.1.3-.2.3-.4.1-.2.2-.3.3-.6l.3-.8-2.7-7.4h1.4l1.8 5.5zm15.6.6c-.1.1-.2.3-.4.5s-.4.3-.7.5c-.3.1-.6.3-1 .4-.4.1-.9.2-1.5.2s-1.2-.1-1.7-.3c-.5-.2-1-.5-1.3-.9-.4-.4-.7-.9-.9-1.5-.2-.6-.3-1.3-.3-2.1v-.8c0-.8.1-1.5.3-2 .2-.6.4-1.1.8-1.5.3-.4.8-.7 1.3-.9.5-.2 1.1-.3 1.8-.3.6 0 1.1.1 1.5.2.4.2.8.4 1.1.6.3.3.6.6.7 1 .2.4.3.8.4 1.2h-1.3c0-.3-.1-.5-.3-.8-.1-.3-.3-.5-.5-.6-.2-.2-.4-.3-.7-.4-.3-.1-.6-.2-1-.2-.5 0-.9.1-1.2.3-.3.2-.6.4-.9.7-.2.3-.4.7-.5 1.2-.1.5-.2 1-.2 1.5v.6c0 .6.1 1.1.2 1.6s.3.9.6 1.2c.3.3.6.6.9.7.3.2.8.3 1.2.3.3 0 .7 0 .9-.1.3 0 .5-.1.6-.2.2-.1.3-.2.4-.3l.3-.3v-2.3H353v-1.1h3.7l.1 3.9zm1.2-2.6c0-.6.1-1.1.3-1.5.2-.5.4-.9.7-1.2.3-.3.6-.6 1.1-.8.4-.2.9-.3 1.4-.3.6 0 1 .1 1.5.3.4.2.8.5 1.1.8.3.3.5.8.7 1.2.2.5.3 1 .3 1.5v.2c0 .6-.1 1.1-.3 1.5-.2.5-.4.9-.7 1.2-.3.3-.6.6-1.1.8-.4.2-.9.3-1.4.3-.5 0-1-.1-1.4-.3-.4-.2-.8-.5-1.1-.8-.3-.3-.5-.7-.7-1.2-.2-.5-.3-1-.3-1.5l-.1-.2zm1.2.2c0 .4 0 .7.1 1.1.1.3.2.6.4.9.2.3.4.5.7.6.6.3 1.3.3 1.9 0 .3-.1.5-.3.7-.6.2-.3.3-.6.4-.9.1-.3.1-.7.1-1.1v-.2c0-.4 0-.7-.1-1.1-.1-.3-.2-.6-.4-.9-.2-.3-.4-.5-.7-.6-.3-.2-.6-.2-.9-.2-.3 0-.6.1-.9.2-.3.2-.5.3-.7.6-.2.3-.3.6-.4.9-.1.3-.1.7-.1 1.1v.2zm6.9-.2c0-.6.1-1.1.3-1.5.2-.5.4-.9.7-1.2.3-.3.6-.6 1.1-.8.4-.2.9-.3 1.4-.3.5 0 1 .1 1.5.3.4.2.8.5 1.1.8.3.3.5.8.7 1.2.2.5.3 1 .3 1.5v.2c0 .6-.1 1.1-.3 1.5-.2.5-.4.9-.7 1.2-.3.3-.6.6-1.1.8-.4.2-.9.3-1.4.3-.5 0-1-.1-1.4-.3-.4-.2-.8-.5-1.1-.8-.3-.3-.5-.7-.7-1.2-.2-.5-.3-1-.3-1.5l-.1-.2zm1.3.2c0 .4 0 .7.1 1.1.1.3.2.6.4.9.2.3.4.5.7.6.6.3 1.3.3 1.9 0 .3-.1.5-.3.7-.6.2-.3.3-.6.4-.9.1-.3.1-.7.1-1.1v-.2c0-.4 0-.7-.1-1.1-.1-.3-.2-.6-.4-.9-.2-.3-.4-.5-.7-.6-.3-.2-.6-.2-.9-.2-.3 0-.6.1-.9.2-.3.2-.5.3-.7.6-.2.3-.3.6-.4.9-.1.3-.1.7-.1 1.1v.2zm6.8-.1c0-.6.1-1.1.2-1.6s.3-.9.6-1.2c.3-.3.6-.6.9-.8.4-.2.8-.3 1.2-.3.5 0 .9.1 1.2.3.3.2.6.4.9.7v-.9h1.2v7.4c0 .5-.1.9-.2 1.3-.2.4-.4.7-.6 1-.3.3-.6.5-1 .6-.4.1-.8.2-1.3.2-.2 0-.4 0-.7-.1-.3 0-.5-.1-.8-.2-.3-.1-.5-.2-.7-.4-.3-.2-.4-.4-.6-.6l.7-.8.5.5c.2.1.3.2.5.3.2.1.3.1.5.2h.5c.3 0 .6 0 .8-.1.3-.1.5-.2.6-.4.2-.2.3-.4.4-.6.1-.3.1-.6.1-.9v-.6c-.3.3-.6.5-.9.6-.3.2-.8.2-1.2.2-.5 0-.9-.1-1.2-.3-.4-.2-.7-.5-.9-.8-.3-.3-.5-.7-.6-1.2 0-.4-.1-.9-.1-1.5zm1.3.1c0 .4 0 .7.1 1.1l.3.9c.2.3.4.4.6.6.3.1.6.2.9.2.2 0 .4 0 .6-.1.2 0 .3-.1.5-.2.1-.1.3-.2.4-.3.1-.1.2-.3.3-.4v-3.4c-.1-.2-.2-.3-.3-.4-.1-.1-.3-.3-.4-.3-.1-.1-.3-.2-.5-.2s-.4-.1-.6-.1c-.3 0-.6.1-.9.2-.3.1-.5.3-.6.6-.2.3-.3.6-.3.9 0 .1-.1.4-.1.9zm8.2 3.7h-1.3V35h1.3v10.7zm5.2.1c-.5 0-1-.1-1.4-.3-.4-.2-.8-.4-1.1-.8-.3-.3-.6-.7-.7-1.2-.2-.4-.3-.9-.3-1.5v-.3c0-.6.1-1.2.3-1.6.2-.5.4-.9.7-1.2.3-.3.6-.6 1.1-.8.4-.2.8-.3 1.2-.3.6 0 1 .1 1.4.3.4.2.7.4 1 .8.3.3.4.7.6 1.2.1.5.2.9.2 1.5v.6h-5.1c0 .3.1.7.2 1 .1.3.3.6.4.8.2.2.4.4.7.5.3.1.6.2.9.2.5 0 .9-.1 1.2-.3.3-.2.6-.4.8-.7l.8.6c-.1.2-.3.4-.4.6-.2.2-.4.3-.6.5-.2.1-.5.3-.8.3-.4.1-.7.1-1.1.1zm-.2-6.7c-.3 0-.5 0-.7.1-.2.1-.4.2-.6.4-.2.2-.3.4-.4.7-.1.3-.2.6-.2.9h3.8v-.1c0-.3 0-.5-.1-.7-.1-.3-.2-.5-.3-.6-.1-.2-.3-.3-.6-.5-.3-.1-.5-.2-.9-.2z"/></svg>