<?xml version="1.0" encoding="utf-8"?>
<!-- Generator: Adobe Illustrator 20.1.0, SVG Export Plug-In . SVG Version: 6.00 Build 0)  -->
<svg version="1.1" id="Capa_1" xmlns="http://www.w3.org/2000/svg" xmlns:xlink="http://www.w3.org/1999/xlink" x="0px" y="0px"
	 viewBox="207.6 188 69.6 87" enable-background="new 207.6 188 69.6 87" xml:space="preserve">
<g>
	<path fill="#00AD1D" d="M264.1,224.3h-36.3c-0.8,0-1.5,0.6-1.5,1.5c0,0.8,0.6,1.4,1.5,1.4h36.3c0.8,0,1.5-0.6,1.5-1.4
		C265.6,224.9,264.9,224.3,264.1,224.3z"/>
	<path fill="#00AD1D" d="M227.9,215.6h14.5c0.8,0,1.4-0.6,1.4-1.5c0-0.8-0.6-1.4-1.4-1.4h-14.5c-0.8,0-1.5,0.6-1.5,1.4
		C226.4,214.9,227.1,215.6,227.9,215.6z"/>
	<path fill="#00AD1D" d="M264.1,235.9h-36.3c-0.8,0-1.5,0.6-1.5,1.4c0,0.8,0.6,1.5,1.5,1.5h36.3c0.8,0,1.5-0.6,1.5-1.5
		C265.6,236.5,264.9,235.9,264.1,235.9z"/>
	<path fill="#00AD1D" d="M264.1,247.5h-36.3c-0.8,0-1.5,0.6-1.5,1.5s0.6,1.4,1.5,1.4h36.3c0.8,0,1.5-0.6,1.5-1.4
		S264.9,247.5,264.1,247.5z"/>
	<path fill="#00AD1D" d="M264.1,259.1h-36.3c-0.8,0-1.5,0.6-1.5,1.4c0,0.8,0.6,1.4,1.5,1.4h36.3c0.8,0,1.5-0.6,1.5-1.4
		C265.6,259.7,264.9,259.1,264.1,259.1z"/>
	<path fill="#00AD1D" d="M269.9,209.2V188h-62.4v79.8h7.3v7.3h62.4v-58.6L269.9,209.2z M256.9,200.2l13.1,13.1l2.3,2.3h-15.4V200.2z
		 M210.5,264.9v-74H267v15.3l-11-11h-41.2v69.6H210.5z M217.7,272.1v-4.4v-69.6H254v20.3h20.3v53.7H217.7z"/>
</g>
</svg>
