<?xml version="1.0" encoding="utf-8"?>
<!-- Generator: Adobe Illustrator 20.1.0, SVG Export Plug-In . SVG Version: 6.00 Build 0)  -->
<svg version="1.1" id="Capa_1" xmlns="http://www.w3.org/2000/svg" xmlns:xlink="http://www.w3.org/1999/xlink" x="0px" y="0px"
	 viewBox="68.4 190.7 80.6 83.6" enable-background="new 68.4 190.7 80.6 83.6" xml:space="preserve">
<g>
	<path fill="#00AD1D" d="M78.8,211.6c5.3,0,9.6-3.9,10.3-9h58.3c0.8,0,1.5-0.7,1.5-1.5s-0.7-1.5-1.5-1.5H89.1c-0.7-5.1-5.1-9-10.3-9
		c-5.8,0-10.4,4.7-10.4,10.4S73.1,211.6,78.8,211.6z M78.8,193.7c4.1,0,7.5,3.3,7.5,7.5c0,4.1-3.3,7.5-7.5,7.5
		c-4.1,0-7.5-3.3-7.5-7.5C71.4,197,74.7,193.7,78.8,193.7z"/>
	<path fill="#00AD1D" d="M138.5,253.3c-5.3,0-9.6,3.9-10.3,9H69.9c-0.8,0-1.5,0.7-1.5,1.5s0.7,1.5,1.5,1.5h58.3
		c0.7,5.1,5.1,9,10.3,9c5.8,0,10.4-4.7,10.4-10.4C148.9,258,144.3,253.3,138.5,253.3z M138.5,271.2c-4.1,0-7.5-3.3-7.5-7.5
		c0-4.1,3.3-7.5,7.5-7.5c4.1,0,7.5,3.3,7.5,7.5C146,267.9,142.6,271.2,138.5,271.2z"/>
	<path fill="#00AD1D" d="M147.5,231h-27.8c-0.6-5.4-5.2-9.6-10.7-9.6s-10.1,4.2-10.7,9.6H69.9c-0.8,0-1.5,0.7-1.5,1.5
		c0,0.8,0.7,1.5,1.5,1.5h28.5c0.9,5.1,5.3,9,10.6,9c5.3,0,9.7-3.9,10.6-9h27.9c0.8,0,1.5-0.7,1.5-1.5
		C148.9,231.6,148.3,231,147.5,231z M109,239.9c-4.3,0-7.8-3.5-7.8-7.8c0-4.3,3.5-7.8,7.8-7.8c4.3,0,7.8,3.5,7.8,7.8
		C116.7,236.4,113.3,239.9,109,239.9z"/>
</g>
</svg>
