<svg xmlns="http://www.w3.org/2000/svg" viewBox="0 0 321 52.8"><path d="M306.6 14c-2.4 0-7.3 1.1-9.4 5.3h-.3s.1-1.1.1-1.5c.5-6.7 4.5-11.1 10.7-11.8l11.6-1.8-2.5-4.2-9.7 1.5c-4.5.5-8.3 2.4-10.9 5.4-2.8 3.2-4.1 7.5-4.1 12.9v7.9c0 7.8 6.2 13.6 14.5 13.6 8.1 0 14.4-6 14.4-13.6 0-7.7-6.3-13.7-14.4-13.7zm0 22.8c-5.4 0-9.4-3.9-9.4-9.1 0-5.2 4-9.1 9.4-9.1 5.3 0 9.3 3.9 9.3 9.1 0 5.1-4 9.1-9.3 9.1zm-31.5-25.5c-4.3 0-8 1.5-10.5 4.2s-3.9 6.4-3.9 10.4c0 4.2 1.3 7.9 3.9 10.7 2.7 3.1 6.6 4.7 11.4 4.7 4.7 0 8.8-1.6 10.9-3l.2-.1-2.3-4-.2.1c-2.8 1.6-5.4 2.4-8.2 2.4-3.2 0-5.8-1.1-7.6-3.2-1-1.1-2.2-3-2.5-5.5h22.2v-.2c.4-6.3-1.3-9.9-2.8-11.8-2.6-3-6.3-4.7-10.6-4.7zm0 4.6c2.4 0 4.6.9 6.1 2.5 1.2 1.4 2 3.3 2.1 5.4h-17.2c.2-1.8 1-3.7 2.3-5.2 1.6-1.8 3.9-2.7 6.7-2.7zm-71.7.1c0 5.5-.4 10.6-1.7 15.3-1.1 3.9-4.5 8.4-4.6 8.8v.2h5.6c1.6-2 3.4-5.7 4.1-8.7 1.2-5 1.5-9.7 1.6-14.6h12.8v23.2h5.2V12.4h-23V16zm50.7 10.4c-.8-.5-2.5-.9-3.3-1v-.3c1-.1 2.1-.6 2.9-1.2.9-.7 1.9-1.9 1.9-4 0-5.1-4.6-8.2-12.3-8.2-5.9 0-11.2 1.1-11.2 1.1v26.6s5.3 1.1 12.3 1.1c12.2 0 13.1-6.7 13.1-8.7.1-3-1.9-4.5-3.4-5.4zm-16.7-9.7c.5-.1 3.2-.4 6-.4 6.6 0 7.1 2.8 7.1 3.7 0 .8-.5 3.6-7.1 3.6h-6v-6.9zm7.1 19.5c-1.7 0-5.1-.2-7.1-.5v-7.8h7.1c5.9 0 8 2.1 8 4.1 0 2-2.1 4.2-8 4.2zm-116-20.6c-3-2.8-7.2-4.4-11.8-4.4-5.9 0-11.5 2.3-11.5 2.3v39.3h5.1V39.7h.3c1.7 1.4 4.9 1.6 6.1 1.6 4.6 0 8.8-1.6 11.8-4.4 2.9-2.8 4.6-6.5 4.6-10.6s-1.7-7.9-4.6-10.7zm-11.8 21c-1.7 0-4.2-.6-6.3-1.6V16.9c2.4-.6 4.7-1 6.3-1 6.6 0 11 4.2 11 10.4-.1 6.2-4.5 10.3-11 10.3zm64.8-25.3c-6.1 0-9.9 3.2-9.9 3.2s2 3.4 2.2 3.7c1.2-.7 3.6-2.3 7.8-2.3 4.3 0 8 1.8 8 6.7h-.2c-.8-.3-3-.9-7.2-.9-10.3 0-13.9 5.1-13.9 9.8 0 4.8 3.7 9.8 13.9 9.8 3 0 5.9-.4 8.8-1.1 1.2-.3 2.3-.6 3.6-1.1l.2-.1V22.8c-.1-7-5.3-11.5-13.3-11.5zm8 24.4c-.7.3-3.2 1-7.4 1-5.4 0-8.5-1.9-8.5-5.2 0-3.3 3.1-5.2 8.5-5.2 4.7 0 7.1.7 7.4.8v8.6zm-29.6-23.3l-17 19.7-.5.8h-.2V12.4h-5.1v27.9h4.5l16.8-19.2.6-.9h.2v20.1h5.1V12.4z" fill="#FFF"/><path fill="#0064C8" d="M0 52.7L30.4 0l30.5 52.7z"/><path fill="#E10000" d="M91.3 0L60.9 52.7 30.4 0z"/></svg>